<svg width="112" height="60" viewBox="0 0 112 60" fill="none" xmlns="http://www.w3.org/2000/svg">
<g clip-path="url(#clip0_238_10)">
<path fill-rule="evenodd" clip-rule="evenodd" d="M3.72712 33.1985C6.85861 29.7378 11.4081 27.2625 14.333 30.8876L17.4709 34.7769L26.7324 62L15.1154 53.7532L4.62126 44.8676C1.04233 41.8373 0.595855 36.6592 3.72712 33.1985Z" fill="url(#paint0_linear_238_10)"/>
<path fill-rule="evenodd" clip-rule="evenodd" d="M4.07443 44.4255L4.08038 44.4306L4.08633 44.4355L4.09228 44.4406L4.09823 44.4456C4.21735 44.5454 4.33901 44.641 4.46216 44.7335L3.68945 44.0789C3.8039 44.188 3.92154 44.2951 4.04335 44.3991L4.04959 44.4043L4.05569 44.4095L4.06194 44.4149L4.06811 44.4203L4.07443 44.4255ZM17.3289 33.6732L18.2916 37.1912L14.6111 44.1115C12.2146 48.6128 12.3667 50.4226 14.4094 53.1682L12.8346 51.8239C9.75656 47.4484 11.7874 43.945 13.6663 41.4694L17.3289 33.6732Z" fill="black"/>
<path fill-rule="evenodd" clip-rule="evenodd" d="M31.1289 45.0196H31.662C31.8767 45.0196 32.0419 45.0446 32.1567 45.0953C32.2722 45.1459 32.3633 45.2241 32.4298 45.3291C32.497 45.4335 32.5303 45.5506 32.5303 45.6779C32.5303 45.7981 32.5008 45.9068 32.4425 46.005C32.384 46.1032 32.298 46.1827 32.185 46.2439C32.3256 46.2914 32.4336 46.3471 32.509 46.4115C32.5849 46.4753 32.6433 46.5528 32.6853 46.6442C32.7275 46.7347 32.7488 46.8335 32.7488 46.9398C32.7488 47.1562 32.6697 47.3394 32.5109 47.4888C32.3519 47.6382 32.1392 47.7133 31.8717 47.7133H31.1289V45.0196ZM53.4737 48.1148H53.7449V47.7133H55.9034V48.1148H56.1746V47.462H55.9656L54.8448 45.0196H54.7513L53.6902 47.462H53.4737V48.1148ZM106.314 46.9398V46.9348C106.313 46.8304 106.292 46.7333 106.251 46.6442C106.209 46.5528 106.15 46.4753 106.074 46.4115C105.999 46.3471 105.891 46.2914 105.75 46.2439C105.863 46.1827 105.949 46.1032 106.008 46.005C106.066 45.9068 106.096 45.7981 106.096 45.6779C106.096 45.5506 106.062 45.4335 105.995 45.3291C105.929 45.2241 105.838 45.1459 105.722 45.0953C105.607 45.0446 105.442 45.0196 105.227 45.0196H104.694V47.7133H105.437C105.705 47.7133 105.917 47.6382 106.076 47.4888C106.235 47.3394 106.314 47.1562 106.314 46.9398ZM31.3926 45.2822V46.1452H31.5477C31.7362 46.1452 31.8748 46.1276 31.9633 46.0933C32.0519 46.0581 32.1222 46.0031 32.1737 45.9282C32.2258 45.8532 32.2516 45.7693 32.2516 45.6779C32.2516 45.5549 32.2082 45.458 32.1216 45.3873C32.0343 45.3173 31.8963 45.2822 31.7066 45.2822H31.3926ZM31.3926 46.4153V47.4507H31.7286C31.9264 47.4507 32.0714 47.4312 32.1637 47.3932C32.256 47.3545 32.33 47.2937 32.3859 47.2118C32.4418 47.1299 32.47 47.0411 32.47 46.9461C32.47 46.826 32.4305 46.721 32.3519 46.6316C32.2735 46.5429 32.1655 46.4815 32.0281 46.4484C31.9357 46.4265 31.775 46.4153 31.5458 46.4153H31.3926ZM37.3688 45.5168L37.1554 45.68C37.038 45.5273 36.8967 45.4117 36.7316 45.3328C36.5671 45.2541 36.3864 45.2147 36.1885 45.2147C35.9732 45.2147 35.7735 45.2665 35.5896 45.3697C35.4056 45.473 35.2637 45.6117 35.1626 45.7855C35.0614 45.9594 35.0107 46.1557 35.0107 46.3727C35.0107 46.7016 35.1237 46.9761 35.3497 47.1955C35.5757 47.4158 35.8608 47.5257 36.2054 47.5257C36.5841 47.5257 36.9004 47.3782 37.1554 47.083L37.3688 47.2443C37.2339 47.415 37.0656 47.5476 36.864 47.6408C36.6625 47.7339 36.4371 47.7809 36.1885 47.7809C35.7152 47.7809 35.3416 47.6239 35.0685 47.31C34.8392 47.0456 34.7243 46.7254 34.7243 46.3509C34.7243 45.9568 34.863 45.6249 35.1406 45.3559C35.4187 45.0866 35.7666 44.952 36.1848 44.952C36.4371 44.952 36.6651 45.0016 36.8684 45.1003C37.0718 45.1997 37.2389 45.3385 37.3688 45.5168ZM39.4794 45.0196H41.0276V45.2822H39.7507V46.1264H41.0164V46.389H39.7507V47.4507H41.0164V47.7133H39.4794V45.0196ZM45.6744 45.0196H46.2074C46.4222 45.0196 46.5873 45.0446 46.7022 45.0953C46.8177 45.1459 46.9088 45.2241 46.9754 45.3291C47.0425 45.4335 47.0758 45.5506 47.0758 45.6779C47.0758 45.7981 47.0463 45.9068 46.9879 46.005C46.9296 46.1032 46.8435 46.1827 46.7304 46.2439C46.8711 46.2914 46.9791 46.3471 47.0545 46.4115C47.1304 46.4753 47.1888 46.5528 47.2309 46.6442C47.273 46.7347 47.2943 46.8335 47.2943 46.9398C47.2943 47.1562 47.2152 47.3394 47.0564 47.4888C46.8975 47.6382 46.6846 47.7133 46.4171 47.7133H45.6744V45.0196ZM45.9381 45.2822V46.1452H46.0932C46.2816 46.1452 46.4203 46.1276 46.5088 46.0933C46.5973 46.0581 46.6677 46.0031 46.7191 45.9282C46.7713 45.8532 46.797 45.7693 46.797 45.6779C46.797 45.5549 46.7537 45.458 46.6671 45.3873C46.5799 45.3173 46.4417 45.2822 46.2521 45.2822H45.9381ZM45.9381 46.4153V47.4507H46.274C46.4718 47.4507 46.6168 47.4312 46.7091 47.3932C46.8015 47.3545 46.8755 47.2937 46.9314 47.2118C46.9873 47.1299 47.0155 47.0411 47.0155 46.9461C47.0155 46.826 46.9759 46.721 46.8975 46.6316C46.819 46.5429 46.711 46.4815 46.5735 46.4484C46.4812 46.4265 46.3206 46.4153 46.0913 46.4153H45.9381ZM51.5263 47.7133H51.2438V45.6437L49.4589 47.7133H49.3979V45.0196H49.6691V47.1199L51.4655 45.0196H51.5263V47.7133ZM53.9953 47.462H55.6453L54.7997 45.5824L53.9953 47.462ZM58.127 45.0196H58.3981V46.1752H58.5935C58.9475 46.1752 59.2018 46.192 59.3563 46.2265C59.5107 46.2608 59.6351 46.3389 59.7292 46.4615C59.824 46.5847 59.8712 46.7428 59.8712 46.9368C59.8712 47.1275 59.8253 47.2849 59.733 47.4101C59.6414 47.5352 59.5239 47.617 59.3821 47.6557C59.2394 47.6939 59.0009 47.7133 58.6663 47.7133H58.127V45.0196ZM58.3981 47.4507H58.687C58.9915 47.4507 59.1899 47.4363 59.2822 47.4075C59.3744 47.3787 59.4486 47.3256 59.5032 47.2474C59.5579 47.17 59.5849 47.0699 59.5849 46.948C59.5849 46.8135 59.5503 46.7047 59.4819 46.6204C59.4127 46.5366 59.3255 46.4853 59.2194 46.4658C59.1133 46.4471 58.9155 46.4378 58.626 46.4378H58.3981V47.4507ZM60.1875 45.0196H60.4588V47.7133H60.1875V45.0196ZM81.3714 46.4866H80.0943V46.2238H81.3601C81.3369 45.9149 81.2094 45.67 80.9771 45.488C80.7448 45.306 80.488 45.2147 80.2061 45.2147C79.7987 45.2147 79.4765 45.3697 79.2386 45.68L79.0239 45.5198C79.1463 45.3442 79.3114 45.2053 79.5192 45.1041C79.7271 45.0028 79.9574 44.952 80.2099 44.952C80.6249 44.952 80.9715 45.0866 81.2502 45.3548C81.5296 45.6237 81.669 45.9557 81.669 46.3509C81.669 46.7498 81.5371 47.088 81.2729 47.365C81.0085 47.642 80.6532 47.7809 80.2068 47.7809C79.7013 47.7809 79.3071 47.6019 79.0239 47.2443L79.2386 47.0824C79.491 47.3782 79.8074 47.5257 80.1872 47.5257C80.478 47.5257 80.7354 47.4413 80.9607 47.2719C81.1855 47.1024 81.3224 46.8411 81.3714 46.4866ZM83.7758 45.0196H84.0508V46.0301L85.1351 45.0196H85.4992L84.1958 46.2277L85.6009 47.7133H85.2399L84.0508 46.4552V47.7133H83.7758V45.0196ZM87.5659 45.0196H88.1051C88.4141 45.0196 88.6231 45.0328 88.7311 45.0596C88.8856 45.0978 89.0118 45.1752 89.1096 45.2936C89.2083 45.411 89.2573 45.5593 89.2573 45.7375C89.2573 45.9168 89.2095 46.0644 89.1136 46.1814C89.018 46.2976 88.8862 46.3759 88.7186 46.4165C88.5956 46.4458 88.3664 46.4603 88.0305 46.4603H87.8371V47.7133H87.5659V45.0196ZM87.8371 45.2822V46.1977L88.2954 46.2033C88.4807 46.2033 88.6162 46.1864 88.7023 46.1526C88.7882 46.1189 88.8561 46.0652 88.905 45.99C88.954 45.9149 88.9785 45.8306 88.9785 45.7381C88.9785 45.6479 88.954 45.5648 88.905 45.4898C88.8561 45.4148 88.7908 45.3616 88.7104 45.3299C88.6301 45.2979 88.4988 45.2822 88.3155 45.2822H87.8371ZM92.4672 45.0196L93.7292 47.7133H93.4384L93.0159 46.8279H91.8437L91.4237 47.7133H91.1223L92.3994 45.0196H92.4672ZM92.4333 45.5848L91.9681 46.5653H92.8966L92.4333 45.5848ZM95.7065 45.0196H95.9778V46.1489H97.3566V45.0196H97.6278V47.7133H97.3566V46.4115H95.9778V47.7133H95.7065V45.0196ZM101.138 44.952C101.547 44.952 101.89 45.0884 102.166 45.3604C102.441 45.6324 102.579 45.9675 102.579 46.3652C102.579 46.7598 102.442 47.0942 102.167 47.3687C101.891 47.6433 101.556 47.7809 101.16 47.7809C100.759 47.7809 100.421 47.6439 100.145 47.3707C99.8696 47.0975 99.7315 46.7666 99.7315 46.3782C99.7315 46.1194 99.7942 45.88 99.9198 45.6587C100.045 45.438 100.217 45.2647 100.434 45.1396C100.651 45.0146 100.885 44.952 101.138 44.952ZM101.15 45.2147C100.95 45.2147 100.76 45.2665 100.581 45.3705C100.402 45.4743 100.262 45.6137 100.161 45.7893C100.06 45.9657 100.01 46.1614 100.01 46.3777C100.01 46.6973 100.121 46.9673 100.344 47.1874C100.567 47.4081 100.836 47.5181 101.15 47.5181C101.36 47.5181 101.554 47.4676 101.732 47.3663C101.911 47.2649 102.051 47.1262 102.151 46.9505C102.25 46.7748 102.301 46.5797 102.301 46.3646C102.301 46.1507 102.25 45.9575 102.151 45.785C102.051 45.6124 101.91 45.4743 101.728 45.3705C101.547 45.2665 101.354 45.2147 101.15 45.2147ZM104.958 45.2822V46.1452H105.113C105.302 46.1452 105.44 46.1276 105.529 46.0933C105.617 46.0581 105.688 46.0031 105.739 45.9282C105.791 45.8532 105.817 45.7693 105.817 45.6779C105.817 45.5549 105.774 45.458 105.687 45.3873C105.6 45.3173 105.462 45.2822 105.272 45.2822H104.958ZM104.958 46.4153V47.4507H105.294C105.492 47.4507 105.637 47.4312 105.729 47.3932C105.821 47.3545 105.895 47.2937 105.951 47.2118C106.007 47.1299 106.035 47.0411 106.035 46.9461C106.035 46.826 105.996 46.721 105.917 46.6316C105.839 46.5429 105.731 46.4815 105.593 46.4484C105.501 46.4265 105.34 46.4153 105.111 46.4153H104.958ZM65.2857 45.0196H65.5569V47.4507H66.6005V47.7133H65.2857V45.0196ZM68.5935 45.0196H70.1418V45.2822H68.8649V46.1264H70.1305V46.389H68.8649V47.4507H70.1305V47.7133H68.5935V45.0196ZM72.174 47.7133V45.0196H72.7352C73.1395 45.0196 73.4334 45.0521 73.6161 45.1166C73.8785 45.2085 74.0839 45.3666 74.2314 45.5929C74.379 45.8187 74.4531 46.0875 74.4531 46.4002C74.4531 46.6702 74.3946 46.9073 74.2772 47.1124C74.1604 47.3174 74.0079 47.4695 73.8215 47.567C73.6343 47.6645 73.3719 47.7133 73.0347 47.7133H72.174ZM72.4339 47.4581H72.746C73.1189 47.4581 73.3769 47.435 73.5213 47.3887C73.7241 47.3225 73.8842 47.2043 74.0003 47.033C74.1165 46.861 74.1742 46.6516 74.1742 46.404C74.1742 46.1445 74.1116 45.9219 73.9853 45.7381C73.8598 45.5536 73.6839 45.4272 73.4591 45.3591C73.2903 45.3079 73.0121 45.2822 72.6247 45.2822H72.4339V47.4581Z" fill="white"/>
<path fill-rule="evenodd" clip-rule="evenodd" d="M2.9455 43.4718C3.08084 43.586 3.21923 43.695 3.35963 43.7994L12.8389 51.8303C11.527 49.9682 11.409 48.4836 11.851 47.2014L11.8507 47.2012L11.8517 47.1996C14.449 39.6764 34.6232 10.644 39.574 2L3.03853 30.9593C2.25274 31.5823 1.59091 32.2697 1.1773 32.9526C-0.781412 36.1871 -0.272919 40.3941 2.53004 43.0959L2.52944 43.0961L2.5377 43.1032C2.66895 43.2293 2.80451 43.3525 2.9455 43.4718Z" fill="url(#paint1_linear_238_10)"/>
<path fill-rule="evenodd" clip-rule="evenodd" d="M31.2891 41.4569V27.1646H34.2199V39.0212H41.4764V41.4569H31.2891ZM43.555 41.4569V27.0438H54.2678V29.4795H46.4858V32.6802H53.7221V35.1159H46.4858V39.0212H54.5508V41.4569H43.555ZM57.037 27.0438H62.3665C63.5692 27.0438 64.4855 27.1343 65.1155 27.3189C65.9611 27.5672 66.6888 28.01 67.2917 28.6475C67.8982 29.2815 68.3563 30.0599 68.673 30.9826C68.9862 31.9018 69.1446 33.0392 69.1446 34.3879C69.1446 35.5756 68.9964 36.5954 68.6999 37.4544C68.3395 38.5044 67.824 39.3533 67.1536 40.0008C66.6483 40.494 65.9645 40.8765 65.1054 41.1516C64.4619 41.3561 63.6029 41.4569 62.5249 41.4569H57.037V27.0438ZM59.9679 29.4795V39.0212H62.1408C62.9527 39.0212 63.5389 38.9742 63.8993 38.8836C64.3743 38.7661 64.7651 38.5648 65.075 38.2831C65.3883 38.0012 65.641 37.5383 65.8364 36.894C66.0352 36.25 66.1329 35.3675 66.1329 34.2537C66.1329 33.1398 66.0352 32.2876 65.8364 31.6905C65.641 31.0933 65.3648 30.6303 65.0111 30.2947C64.6573 29.9626 64.2092 29.7345 63.6635 29.6171C63.2593 29.5264 62.4608 29.4795 61.275 29.4795H59.9679ZM69.9565 41.4569L75.3332 28.7548C75.5622 28.2181 75.8182 27.8255 76.1013 27.5773C76.3842 27.3289 76.775 27.2048 77.2737 27.2048C77.7587 27.2048 78.1529 27.3324 78.456 27.5873C78.7593 27.8423 79.0187 28.2315 79.2343 28.7548L84.5907 41.4569H82.6099L81.013 37.6322H73.514L71.9373 41.4569H69.9565ZM76.7884 29.6406L74.0799 36.1023H80.4471L77.779 29.6406C77.5768 29.1842 77.4083 28.9562 77.2737 28.9562C77.2332 28.9562 77.1961 28.9662 77.1624 28.9863C77.1287 29.0064 77.0984 29.0333 77.0714 29.0668C77.0445 29.1004 77.0142 29.144 76.9805 29.1977C76.9468 29.2514 76.9233 29.2984 76.9097 29.3386C76.8963 29.3789 76.876 29.4325 76.8491 29.4996C76.8221 29.5667 76.802 29.6137 76.7884 29.6406ZM85.7025 41.4569V29.4996C85.7025 28.0771 86.3963 27.3659 87.7844 27.3659H94.3334C95.5732 27.3659 96.4557 27.7282 96.9812 28.4529C97.5068 29.1776 97.7696 30.2377 97.7696 31.6334C97.7696 33.0828 97.5237 34.1932 97.0318 34.9649C96.5399 35.7366 95.7146 36.1224 94.5557 36.1224H92.2716V36.2231L98.0727 41.4569H95.5663L90.1493 36.5049C89.7989 36.1828 89.6238 35.8875 89.6238 35.6191V35.2971C89.6238 34.8274 89.9067 34.5926 90.4726 34.5926H93.9291C94.7107 34.5926 95.2193 34.351 95.4551 33.8678C95.691 33.3848 95.809 32.6399 95.809 31.6334C95.809 30.6672 95.6674 29.9694 95.3844 29.5399C95.1014 29.1105 94.5153 28.8958 93.6259 28.8958H88.5929C88.2425 28.8958 87.9865 28.9662 87.8248 29.1071C87.6631 29.2481 87.5823 29.4996 87.5823 29.862V41.4569H85.7025ZM106.279 41.4569H104.399V28.8958H98.6791V27.3659H112V28.8958H106.279V41.4569Z" fill="black"/>
</g>
<defs>
<linearGradient id="paint0_linear_238_10" x1="25.2749" y1="41.7962" x2="3.51028" y2="51.7129" gradientUnits="userSpaceOnUse">
<stop stop-color="#6666FF"/>
<stop offset="1" stop-color="#022263"/>
</linearGradient>
<linearGradient id="paint1_linear_238_10" x1="23.1073" y1="0.985563" x2="21.5027" y2="51.1419" gradientUnits="userSpaceOnUse">
<stop stop-color="#F75BF2"/>
<stop offset="0.360784" stop-color="#9611AD"/>
<stop offset="1" stop-color="#022263"/>
</linearGradient>
<clipPath id="clip0_238_10">
<rect width="112" height="60" rx="30" fill="white"/>
</clipPath>
</defs>
</svg>
