<svg width="16" height="16" viewBox="0 0 16 16" fill="none" xmlns="http://www.w3.org/2000/svg">
<path fill-rule="evenodd" clip-rule="evenodd" d="M8 16C12.4183 16 16 12.4183 16 8C16 3.58172 12.4183 0 8 0C3.58172 0 0 3.58172 0 8C0 12.4183 3.58172 16 8 16ZM9.24512 4.13778C9.0543 4.13238 8.83327 4.13006 8.39781 4.12891L7.60198 4.12929C7.31965 4.12835 7.03731 4.13131 6.75506 4.13817L6.67997 4.14048C6.59326 4.14357 6.50733 4.14743 6.40437 4.15206C5.99213 4.17136 5.7115 4.23619 5.46454 4.33151C5.20642 4.42837 4.97261 4.58022 4.77942 4.77646C4.5819 4.96904 4.42916 5.20246 4.33196 5.46029C4.23635 5.7065 4.17132 5.98628 4.15197 6.39727L4.15178 6.40138C4.14722 6.50221 4.14341 6.58637 4.14035 6.67204L4.13765 6.7469C4.13089 7.02831 4.12805 7.30979 4.12913 7.59127V8.3847C4.12845 8.66618 4.13167 8.94767 4.13881 9.22906L4.14074 9.30393C4.14417 9.39554 4.14804 9.48713 4.15235 9.5787C4.17171 9.98969 4.23674 10.2699 4.33235 10.5157C4.42959 10.7733 4.58203 11.0067 4.77903 11.1995C4.97227 11.3959 5.20624 11.5477 5.46454 11.6445C5.7115 11.7398 5.99252 11.8046 6.40437 11.8239C6.49621 11.8284 6.58808 11.8324 6.67997 11.8359L6.75506 11.8382C7.03744 11.8451 7.31991 11.848 7.60237 11.8471H8.10905L8.39781 11.8467C8.83327 11.8459 9.0543 11.8432 9.24512 11.8378L9.32022 11.8355C9.4121 11.8321 9.50397 11.8282 9.59582 11.8239C10.0077 11.8046 10.2887 11.7398 10.5353 11.6445C10.7936 11.5475 11.0276 11.3957 11.2212 11.1995C11.4182 11.0068 11.5706 10.7734 11.6675 10.5157C11.7627 10.2695 11.8285 9.98969 11.8478 9.5787L11.848 9.57394C11.8526 9.4734 11.8564 9.38942 11.8594 9.30393L11.8618 9.22906C11.8687 8.94766 11.8716 8.66618 11.8707 8.3847V7.87916L11.8703 7.59127C11.8695 7.15712 11.8672 6.93677 11.8614 6.7469L11.8591 6.67204C11.856 6.58628 11.8522 6.50203 11.8476 6.40107L11.8474 6.39727C11.8281 5.98628 11.7631 5.70611 11.6675 5.46029C11.5703 5.20273 11.418 4.96937 11.2212 4.77646C11.0059 4.56228 10.7907 4.42953 10.5353 4.33151C10.2887 4.23619 10.0077 4.17136 9.59582 4.15206L9.58623 4.15163C9.48715 4.14719 9.40423 4.14348 9.32022 4.14048L9.24512 4.13778ZM6.63138 6.62359C6.99433 6.26174 7.4866 6.05845 7.9999 6.05845C8.5132 6.05845 9.00547 6.26174 9.36842 6.62359C9.73138 6.98545 9.93528 7.47624 9.93528 7.98798C9.93528 8.49973 9.73138 8.99052 9.36842 9.35237C9.00547 9.71423 8.5132 9.91752 7.9999 9.91752C7.4866 9.91752 6.99433 9.71423 6.63138 9.35237C6.26842 8.99052 6.06451 8.49973 6.06451 7.98798C6.06451 7.47624 6.26842 6.98545 6.63138 6.62359ZM8.4443 6.91831C8.30352 6.86021 8.15265 6.83029 8.00029 6.83026C7.69231 6.83026 7.39694 6.95223 7.17917 7.16935C6.9614 7.38647 6.83906 7.68094 6.83906 7.98798C6.83906 8.29503 6.9614 8.5895 7.17917 8.80662C7.39694 9.02373 7.69231 9.14571 8.00029 9.14571C8.15278 9.14568 8.30378 9.11571 8.44466 9.05751C8.58553 8.9993 8.71353 8.914 8.82134 8.80648C8.92916 8.69896 9.01467 8.57132 9.073 8.43085C9.13134 8.29038 9.16135 8.13983 9.16132 7.98779C9.1613 7.83576 9.13124 7.68522 9.07285 7.54476C9.01447 7.40431 8.92892 7.2767 8.82107 7.16921C8.71322 7.06173 8.58519 6.97647 8.4443 6.91831ZM9.69031 5.62087C9.78105 5.53041 9.90412 5.47958 10.0324 5.47958C10.1608 5.47958 10.2838 5.53041 10.3746 5.62087C10.4653 5.71134 10.5163 5.83403 10.5163 5.96197C10.5163 6.0899 10.4653 6.2126 10.3746 6.30307C10.2838 6.39353 10.1608 6.44435 10.0324 6.44435C9.90412 6.44435 9.78105 6.39353 9.69031 6.30307C9.59957 6.2126 9.54859 6.0899 9.54859 5.96197C9.54859 5.83403 9.59957 5.71134 9.69031 5.62087Z" fill="black"/>
</svg>
