<svg width="18" height="19" viewBox="0 0 18 19" fill="none" xmlns="http://www.w3.org/2000/svg">
<g clip-path="url(#clip0_129_1811)">
<path d="M16.5 2.31519H1.5C1.36739 2.31519 1.24021 2.36786 1.14645 2.46163C1.05268 2.5554 1 2.68258 1 2.81519V3.65019C1.00009 3.76828 1.02356 3.88519 1.06904 3.99417C1.11452 4.10315 1.18112 4.20206 1.265 4.28519L7 10.1052V15.2052L8 15.5852V9.81519C8.00038 9.74938 7.98777 9.68415 7.96289 9.62323C7.938 9.56231 7.90134 9.50691 7.855 9.46019L2 3.61019V3.31519H16V3.62019L10.165 9.46019C10.115 9.50522 10.0747 9.55987 10.0463 9.62087C10.018 9.68186 10.0022 9.74796 10 9.81519V16.4202L11 16.8152V10.0652L16.735 4.31519C16.8202 4.22995 16.8876 4.12854 16.9331 4.01692C16.9786 3.9053 17.0013 3.78572 17 3.66519V2.81519C17 2.68258 16.9473 2.5554 16.8536 2.46163C16.7598 2.36786 16.6326 2.31519 16.5 2.31519Z" fill="#3B3B3B"/>
</g>
<defs>
<clipPath id="clip0_129_1811">
<rect width="18" height="18" fill="white" transform="translate(0 0.315186)"/>
</clipPath>
</defs>
</svg>
