<svg width="27" height="27" viewBox="0 0 27 27" fill="none" xmlns="http://www.w3.org/2000/svg">
<g clip-path="url(#clip0_171_12)">
<circle cx="13.4718" cy="13.4718" r="13.4718" fill="#2A2A2A"/>
<path d="M13.4725 11.4907C12.9566 11.4907 12.4618 11.6941 12.0971 12.0562C11.7323 12.4182 11.5273 12.9092 11.5273 13.4213C11.5273 13.9333 11.7323 14.4243 12.0971 14.7864C12.4618 15.1484 12.9566 15.3518 13.4725 15.3518C13.9883 15.3518 14.4831 15.1484 14.8479 14.7864C15.2127 14.4243 15.4176 13.9333 15.4176 13.4213C15.4176 12.9092 15.2127 12.4182 14.8479 12.0562C14.4831 11.6941 13.9883 11.4907 13.4725 11.4907Z" fill="white"/>
<path fill-rule="evenodd" clip-rule="evenodd" d="M9.41407 6.56213C12.1111 6.2655 14.8329 6.2655 17.5299 6.56213C19.0033 6.72534 20.1912 7.87626 20.3642 9.3436C20.684 12.0571 20.684 14.7983 20.3642 17.5117C20.1912 18.9791 19.0033 20.13 17.5306 20.294C14.8334 20.5907 12.1113 20.5907 9.41407 20.294C7.94066 20.13 6.75277 18.9791 6.57975 17.5125C6.25987 14.7988 6.25987 12.0573 6.57975 9.3436C6.75277 7.87626 7.94066 6.72534 9.41407 6.56213ZM17.3514 8.80855C17.1456 8.80855 16.9483 8.88966 16.8028 9.03404C16.6573 9.17841 16.5755 9.37423 16.5755 9.57841C16.5755 9.78258 16.6573 9.9784 16.8028 10.1228C16.9483 10.2671 17.1456 10.3483 17.3514 10.3483C17.5572 10.3483 17.7545 10.2671 17.9 10.1228C18.0456 9.9784 18.1273 9.78258 18.1273 9.57841C18.1273 9.37423 18.0456 9.17841 17.9 9.03404C17.7545 8.88966 17.5572 8.80855 17.3514 8.80855ZM9.7865 13.4277C9.7865 12.4578 10.1748 11.5277 10.8659 10.8419C11.5571 10.1561 12.4945 9.77087 13.472 9.77087C14.4494 9.77087 15.3868 10.1561 16.078 10.8419C16.7691 11.5277 17.1574 12.4578 17.1574 13.4277C17.1574 14.3975 16.7691 15.3276 16.078 16.0134C15.3868 16.6992 14.4494 17.0845 13.472 17.0845C12.4945 17.0845 11.5571 16.6992 10.8659 16.0134C10.1748 15.3276 9.7865 14.3975 9.7865 13.4277Z" fill="white"/>
</g>
<defs>
<clipPath id="clip0_171_12">
<rect width="27" height="27" fill="white"/>
</clipPath>
</defs>
</svg>
