<svg width="27" height="27" viewBox="0 0 27 27" fill="none" xmlns="http://www.w3.org/2000/svg">
<g clip-path="url(#clip0_171_13)">
<circle cx="13.4718" cy="13.4718" r="13.4718" fill="#2A2A2A"/>
<path fill-rule="evenodd" clip-rule="evenodd" d="M18.9613 8.01112C19.1562 7.93431 19.3695 7.90782 19.579 7.93441C19.7885 7.96099 19.9866 8.03968 20.1526 8.16227C20.3186 8.28487 20.4465 8.44689 20.523 8.63149C20.5994 8.81608 20.6217 9.01649 20.5873 9.21185L18.7989 19.3708C18.6254 20.3507 17.4773 20.9127 16.5176 20.4246C15.7148 20.0162 14.5225 19.3871 13.4501 18.7306C12.9139 18.402 11.2713 17.3497 11.4732 16.6009C11.6466 15.9606 14.4066 13.5547 15.9837 12.1243C16.6027 11.5624 16.3204 11.2382 15.5894 11.7551C13.7742 13.0385 10.8596 14.9903 9.89603 15.5397C9.04596 16.0241 8.60279 16.1068 8.07287 16.0241C7.1061 15.8735 6.2095 15.6401 5.47772 15.3558C4.48886 14.9718 4.53696 13.6987 5.47693 13.328L18.9613 8.01112Z" fill="white"/>
</g>
<defs>
<clipPath id="clip0_171_13">
<rect width="27" height="27" fill="white"/>
</clipPath>
</defs>
</svg>
