<svg width="16" height="16" viewBox="0 0 16 16" fill="none" xmlns="http://www.w3.org/2000/svg">
<g clip-path="url(#clip0_133_2443)">
<path d="M7.68 0C3.44064 0 0 3.43467 0 7.66667C0 11.8987 3.44064 15.3333 7.68 15.3333C11.9194 15.3333 15.36 11.8987 15.36 7.66667C15.36 3.43467 11.9194 0 7.68 0ZM11.2435 5.21333C11.1283 6.42467 10.6291 9.36867 10.3757 10.7257C10.2682 11.3007 10.0531 11.4923 9.85344 11.5153C9.408 11.5537 9.07008 11.224 8.64 10.9403C7.96416 10.4957 7.58016 10.2197 6.92736 9.79033C6.16704 9.292 6.65856 9.016 7.09632 8.57133C7.21152 8.45633 9.1776 6.67 9.216 6.509C9.22134 6.48461 9.22062 6.4593 9.21393 6.43525C9.20724 6.4112 9.19477 6.38915 9.1776 6.371C9.13152 6.33267 9.07008 6.348 9.01632 6.35567C8.9472 6.371 7.872 7.084 5.77536 8.49467C5.46816 8.70167 5.19168 8.809 4.94592 8.80133C4.66944 8.79367 4.1472 8.648 3.75552 8.51767C3.27168 8.36433 2.89536 8.28 2.92608 8.01167C2.94144 7.87367 3.13344 7.73567 3.4944 7.59C5.73696 6.61633 7.22688 5.97233 7.97184 5.66567C10.1069 4.77633 10.5446 4.623 10.8365 4.623C10.8979 4.623 11.0438 4.63833 11.136 4.715C11.2128 4.77633 11.2358 4.86067 11.2435 4.922C11.2358 4.968 11.2512 5.106 11.2435 5.21333Z" fill="white"/>
</g>
<defs>
<clipPath id="clip0_133_2443">
<rect width="16" height="16" fill="white"/>
</clipPath>
</defs>
</svg>
