<?xml version="1.0" encoding="UTF-8"?>
<!DOCTYPE svg PUBLIC "-//W3C//DTD SVG 1.1//EN" "http://www.w3.org/Graphics/SVG/1.1/DTD/svg11.dtd">
<!-- Creator: CorelDRAW 2018 (64-Bit) -->
<svg xmlns="http://www.w3.org/2000/svg" xml:space="preserve" width="150.613mm" height="81.0183mm" version="1.1" style="shape-rendering:geometricPrecision; text-rendering:geometricPrecision; image-rendering:optimizeQuality; fill-rule:evenodd; clip-rule:evenodd"
viewBox="0 0 15061.26 8101.83"
 xmlns:xlink="http://www.w3.org/1999/xlink">
 <defs>
  <style type="text/css">
   <![CDATA[
    .fil1 {fill:black}
    .fil0 {fill:url(#id2)}
    .fil4 {fill:url(#id3)}
    .fil2 {fill:url(#id4)}
    .fil3 {fill:url(#id5)}
   ]]>
  </style>
    <mask id="id0">
  <linearGradient id="id1" gradientUnits="userSpaceOnUse" x1="3162.66" y1="4328.84" x2="1513.98" y2="7487.85">
   <stop offset="0" style="stop-opacity:1; stop-color:white"/>
   <stop offset="1" style="stop-opacity:0; stop-color:white"/>
  </linearGradient>
     <rect style="fill:url(#id1)" x="478.51" y="4259.21" width="1998.92" height="2667.7"/>
    </mask>
  <linearGradient id="id2" gradientUnits="userSpaceOnUse" x1="3398.79" y1="5373.69" x2="467.84" y2="6703.65">
   <stop offset="0" style="stop-opacity:1; stop-color:#6666FF"/>
   <stop offset="1" style="stop-opacity:1; stop-color:#022263"/>
  </linearGradient>
  <linearGradient id="id3" gradientUnits="userSpaceOnUse" x1="10323.23" y1="3341.25" x2="10323.23" y2="5301.78">
   <stop offset="0" style="stop-opacity:1; stop-color:white"/>
   <stop offset="0.380392" style="stop-opacity:1; stop-color:#C4C3C4"/>
   <stop offset="0.478431" style="stop-opacity:1; stop-color:#FDFDFD"/>
   <stop offset="0.839216" style="stop-opacity:1; stop-color:#C9C9C9"/>
   <stop offset="1" style="stop-opacity:1; stop-color:#888788"/>
  </linearGradient>
  <linearGradient id="id4" gradientUnits="userSpaceOnUse" xlink:href="#id3" x1="9883.03" y1="5790.96" x2="9883.03" y2="6221.17">
  </linearGradient>
  <linearGradient id="id5" gradientUnits="userSpaceOnUse" x1="3107.39" y1="-136.98" x2="2889.83" y2="6635.6">
   <stop offset="0" style="stop-opacity:1; stop-color:#F75BF2"/>
   <stop offset="0.360784" style="stop-opacity:1; stop-color:#9611AD"/>
   <stop offset="1" style="stop-opacity:1; stop-color:#022263"/>
  </linearGradient>
 </defs>
 <g id="Слой_x0020_1">
  <metadata id="CorelCorpID_0Corel-Layer"/>
  <g id="_1535394750784">
   <path class="fil0" d="M501.13 4212.74l0 0c421.11,-467.3 1032.91,-801.54 1426.24,-312.04l421.97 525.18 1245.45 3675.95 -1562.21 -1113.57 -1411.21 -1199.83c-481.28,-409.18 -541.32,-1108.39 -120.24,-1575.69l0 0z"/>
   <path class="fil1" style="mask:url(#id0)" d="M547.92 5728.73l0 0 0.8 0.69 0.8 0.66 0.8 0.69 0.8 0.68c16.02,13.48 32.38,26.38 48.94,38.88l-103.91 -88.4c15.39,14.74 31.21,29.2 47.59,43.24l0.84 0.71 0.82 0.7 0.84 0.72 0.83 0.73 0.85 0.7zm1782.41 -1451.88l129.46 475.03 -494.94 934.46c-322.28,607.81 -301.82,852.19 -27.13,1222.93l-211.77 -181.52c-413.92,-590.83 -140.82,-1063.9 111.84,-1398.18l492.54 -1052.72z"/>
   <path class="fil2" d="M4186.1 5808.96l71.69 0c28.87,0 51.08,3.37 66.53,10.21 15.53,6.84 27.78,17.4 36.72,31.58 9.04,14.09 13.51,29.9 13.51,47.1 0,16.22 -3.96,30.91 -11.81,44.17 -7.86,13.26 -19.43,23.99 -34.62,32.25 18.91,6.41 33.43,13.94 43.57,22.63 10.21,8.62 18.06,19.09 23.71,31.42 5.67,12.23 8.54,25.57 8.54,39.92 0,29.22 -10.64,53.96 -32,74.13 -21.37,20.18 -49.98,30.32 -85.95,30.32l-99.89 0 0 -363.73zm3004.83 417.94l36.47 0 0 -54.21 290.27 0 0 54.21 36.47 0 0 -88.15 -28.1 0 -150.72 -329.79 -12.58 0 -142.69 329.79 -29.12 0 0 88.15zm7105.77 -158.66l0 -0.67c-0.09,-14.1 -2.95,-27.21 -8.52,-39.25 -5.66,-12.33 -13.51,-22.8 -23.72,-31.42 -10.14,-8.69 -24.67,-16.22 -43.57,-22.63 15.2,-8.26 26.77,-18.99 34.62,-32.25 7.86,-13.26 11.81,-27.95 11.81,-44.17 0,-17.2 -4.48,-33.01 -13.5,-47.1 -8.96,-14.18 -21.2,-24.74 -36.73,-31.58 -15.46,-6.84 -37.66,-10.21 -66.53,-10.21l-71.68 0 0 363.73 99.88 0c35.97,0 64.58,-10.14 85.96,-30.32 21.35,-20.17 31.98,-44.91 31.98,-74.13zm-10075.14 -223.82l0 116.52 20.86 0c25.34,0 43.99,-2.37 55.89,-7.01 11.91,-4.74 21.36,-12.17 28.29,-22.29 7.01,-10.13 10.47,-21.45 10.47,-33.79 0,-16.62 -5.83,-29.7 -17.48,-39.25 -11.74,-9.45 -30.3,-14.18 -55.8,-14.18l-42.23 0zm0 152.99l0 139.82 45.18 0c26.6,0 46.1,-2.63 58.51,-7.77 12.42,-5.22 22.37,-13.43 29.89,-24.49 7.51,-11.06 11.31,-23.05 11.31,-35.88 0,-16.22 -5.32,-30.39 -15.88,-42.47 -10.55,-11.98 -25.07,-20.26 -43.55,-24.74 -12.42,-2.95 -34.04,-4.47 -64.86,-4.47l-20.6 0zm803.66 -121.32l-28.7 22.04c-15.79,-20.62 -34.79,-36.23 -56.99,-46.88 -22.13,-10.63 -46.43,-15.95 -73.03,-15.95 -28.96,0 -55.81,7 -80.55,20.93 -24.74,13.95 -43.82,32.68 -57.42,56.15 -13.6,23.48 -20.42,49.98 -20.42,79.28 0,44.41 15.19,81.48 45.58,111.11 30.4,29.74 68.73,44.58 115.08,44.58 50.92,0 93.46,-19.91 127.75,-59.78l28.7 21.79c-18.15,23.05 -40.78,40.95 -67.89,53.53 -27.1,12.58 -57.41,18.92 -90.83,18.92 -63.66,0 -113.9,-21.19 -150.62,-63.58 -30.83,-35.71 -46.28,-78.94 -46.28,-129.51 0,-53.21 18.65,-98.03 55.97,-134.35 37.41,-36.37 84.19,-54.54 140.42,-54.54 33.93,0 64.59,6.69 91.94,20.02 27.35,13.43 49.82,32.17 67.29,56.24zm283.82 -67.13l208.2 0 0 35.46 -171.72 0 0 113.99 170.21 0 0 35.45 -170.21 0 0 143.37 170.21 0 0 35.46 -206.69 0 0 -363.73zm833.08 0l71.68 0c28.88,0 51.08,3.37 66.53,10.21 15.54,6.84 27.78,17.4 36.74,31.58 9.02,14.09 13.5,29.9 13.5,47.1 0,16.22 -3.96,30.91 -11.82,44.17 -7.84,13.26 -19.41,23.99 -34.62,32.25 18.91,6.41 33.44,13.94 43.58,22.63 10.21,8.62 18.06,19.09 23.72,31.42 5.66,12.23 8.52,25.57 8.52,39.92 0,29.22 -10.63,53.96 -31.99,74.13 -21.37,20.18 -49.99,30.32 -85.96,30.32l-99.88 0 0 -363.73zm35.46 35.46l0 116.52 20.86 0c25.33,0 43.99,-2.37 55.89,-7.01 11.9,-4.74 21.36,-12.17 28.28,-22.29 7.02,-10.13 10.47,-21.45 10.47,-33.79 0,-16.62 -5.82,-29.7 -17.47,-39.25 -11.73,-9.45 -30.31,-14.18 -55.81,-14.18l-42.22 0zm0 152.99l0 139.82 45.17 0c26.6,0 46.1,-2.63 58.51,-7.77 12.42,-5.22 22.38,-13.43 29.9,-24.49 7.51,-11.06 11.31,-23.05 11.31,-35.88 0,-16.22 -5.33,-30.39 -15.88,-42.47 -10.55,-11.98 -25.08,-20.26 -43.56,-24.74 -12.42,-2.95 -34.02,-4.47 -64.85,-4.47l-20.6 0zm751.48 175.28l-37.99 0 0 -279.46 -240.03 279.46 -8.2 0 0 -363.73 36.47 0 0 283.6 241.57 -283.6 8.18 0 0 363.73zm332.02 -33.94l221.89 0 -113.72 -253.8 -108.17 253.8zm555.61 -329.79l36.46 0 0 156.03 26.27 0c47.61,0 81.81,2.27 102.58,6.93 20.77,4.64 37.49,15.18 50.15,31.74 12.75,16.63 19.09,37.98 19.09,64.17 0,25.75 -6.17,47.01 -18.58,63.91 -12.32,16.9 -28.12,27.94 -47.19,33.17 -19.18,5.15 -51.26,7.78 -96.26,7.78l-72.52 0 0 -363.73zm36.46 328.27l38.85 0c40.95,0 67.63,-1.95 80.04,-5.83 12.4,-3.89 22.37,-11.06 29.72,-21.62 7.35,-10.46 10.98,-23.97 10.98,-40.43 0,-18.16 -4.65,-32.85 -13.85,-44.24 -9.3,-11.31 -21.03,-18.24 -35.3,-20.87 -14.26,-2.53 -40.86,-3.79 -79.79,-3.79l-30.65 0 0 136.78zm240.63 -328.27l36.48 0 0 363.73 -36.48 0 0 -363.73zm2848.72 198.08l-171.73 0 0 -35.48 170.22 0c-3.13,-41.71 -20.27,-74.78 -51.51,-99.36 -31.24,-24.57 -65.77,-36.9 -103.68,-36.9 -54.79,0 -98.11,20.93 -130.11,62.83l-28.87 -21.63c16.46,-23.72 38.66,-42.47 66.61,-56.14 27.95,-13.68 58.93,-20.53 92.88,-20.53 55.81,0 102.42,18.17 139.9,54.39 37.57,36.31 56.31,81.14 56.31,134.5 0,53.86 -17.73,99.53 -53.26,136.93 -35.56,37.41 -83.34,56.16 -143.37,56.16 -67.97,0 -120.99,-24.16 -159.07,-72.45l28.87 -21.86c33.94,39.94 76.5,59.85 127.57,59.85 39.1,0 73.72,-11.39 104.02,-34.27 30.23,-22.88 48.64,-58.17 55.22,-106.04zm323.34 -198.08l36.98 0 0 136.44 145.81 -136.44 48.97 0 -175.28 163.13 188.95 200.6 -48.54 0 -159.91 -169.88 0 169.88 -36.98 0 0 -363.73zm509.67 0l72.51 0c41.56,0 69.66,1.78 84.19,5.4 20.77,5.16 37.75,15.61 50.9,31.59 13.27,15.85 19.86,35.88 19.86,59.94 0,24.22 -6.43,44.14 -19.33,59.94 -12.85,15.7 -30.58,26.27 -53.12,31.75 -16.54,3.96 -47.36,5.91 -92.53,5.91l-26.01 0 0 169.2 -36.47 0 0 -363.73zm36.47 35.46l0 123.61 61.64 0.76c24.91,0 43.14,-2.28 54.71,-6.84 11.56,-4.56 20.69,-11.81 27.26,-21.96 6.59,-10.14 9.89,-21.52 9.89,-34.02 0,-12.17 -3.3,-23.39 -9.89,-33.53 -6.57,-10.12 -15.36,-17.3 -26.17,-21.59 -10.8,-4.32 -28.45,-6.43 -53.1,-6.43l-64.34 0zm622.64 -35.46l169.71 363.73 -39.1 0 -56.82 -119.56 -157.63 0 -56.49 119.56 -40.53 0 171.74 -363.73 9.12 0zm-4.56 76.32l-62.56 132.39 124.87 0 -62.31 -132.39zm440.17 -76.32l36.48 0 0 152.49 185.42 0 0 -152.49 36.47 0 0 363.73 -36.47 0 0 -175.79 -185.42 0 0 175.79 -36.48 0 0 -363.73zm730.39 -9.13c55.04,0 101.14,18.41 138.21,55.14 37.06,36.73 55.64,81.98 55.64,135.68 0,53.28 -18.49,98.44 -55.47,135.5 -37.06,37.08 -82.15,55.66 -135.43,55.66 -53.88,0 -99.38,-18.49 -136.44,-55.39 -37.06,-36.89 -55.64,-81.57 -55.64,-134.01 0,-34.95 8.44,-67.28 25.33,-97.16 16.88,-29.8 39.93,-53.2 69.14,-70.09 29.13,-16.88 60.71,-25.33 94.66,-25.33zm1.6 35.47c-26.85,0 -52.35,7 -76.5,21.03 -24.06,14.02 -42.88,32.84 -56.48,56.56 -13.51,23.82 -20.26,50.24 -20.26,79.45 0,43.15 14.95,79.61 44.91,109.34 29.98,29.8 66.11,44.65 108.33,44.65 28.29,0 54.38,-6.82 78.35,-20.5 24.07,-13.69 42.81,-32.42 56.24,-56.14 13.41,-23.73 20.18,-50.08 20.18,-79.12 0,-28.88 -6.77,-54.97 -20.18,-78.26 -13.43,-23.31 -32.42,-41.96 -56.83,-55.98 -24.4,-14.03 -50.32,-21.03 -77.76,-21.03zm512.11 9.12l0 116.52 20.87 0c25.33,0 43.98,-2.37 55.89,-7.01 11.89,-4.74 21.35,-12.17 28.27,-22.29 7.02,-10.13 10.47,-21.45 10.47,-33.79 0,-16.62 -5.82,-29.7 -17.47,-39.25 -11.73,-9.45 -30.31,-14.18 -55.81,-14.18l-42.22 0zm0 152.99l0 139.82 45.17 0c26.6,0 46.11,-2.63 58.51,-7.77 12.42,-5.22 22.38,-13.43 29.9,-24.49 7.51,-11.06 11.31,-23.05 11.31,-35.88 0,-16.22 -5.32,-30.39 -15.88,-42.47 -10.55,-11.98 -25.08,-20.26 -43.56,-24.74 -12.42,-2.95 -34.03,-4.47 -64.84,-4.47l-20.61 0zm-5334.96 -188.45l36.47 0 0 328.27 140.33 0 0 35.46 -176.8 0 0 -363.73zm444.82 0l208.21 0 0 35.46 -171.72 0 0 113.99 170.2 0 0 35.45 -170.2 0 0 143.37 170.2 0 0 35.46 -206.69 0 0 -363.73zm481.48 363.73l0 -363.73 75.48 0c54.36,0 93.88,4.38 118.45,13.09 35.29,12.41 62.91,33.76 82.75,64.32 19.84,30.49 29.81,66.79 29.81,109.01 0,36.46 -7.86,68.47 -23.65,96.17 -15.71,27.68 -36.22,48.22 -61.29,61.38 -25.17,13.17 -60.46,19.76 -105.8,19.76l-115.75 0zm34.95 -34.46l41.97 0c50.15,0 84.85,-3.12 104.26,-9.37 27.28,-8.95 48.81,-24.91 64.42,-48.03 15.63,-23.23 23.39,-51.51 23.39,-84.94 0,-35.04 -8.43,-65.1 -25.41,-89.92 -16.88,-24.91 -40.53,-41.98 -70.76,-51.17 -22.7,-6.92 -60.11,-10.38 -112.21,-10.38l-25.66 0 0 293.81z"/>
   <path class="fil3" d="M396.11 5599.96l0 0c18.2,15.42 36.81,30.13 55.69,44.24l1274.74 1084.41c-176.42,-251.44 -192.3,-451.91 -132.86,-625.04l-0.03 -0.03 0.13 -0.22c349.27,-1015.86 3062.22,-4936.12 3727.98,-6103.32l-4913.14 3910.39c-105.67,84.12 -194.67,176.94 -250.29,269.16 -263.4,436.75 -195.02,1004.83 181.91,1369.65l-0.08 0.03 1.11 0.96c17.65,17.02 35.88,33.66 54.84,49.77l0 0z"/>
   <path class="fil4" d="M4207.65 5327.88l0 -1929.89 394.13 0 0 1601 975.82 0 0 328.89 -1369.95 0zm1649.47 0l0 -1946.2 1440.62 0 0 328.89 -1046.49 0 0 432.19 973.1 0 0 328.89 -973.1 0 0 527.34 1084.54 0 0 328.89 -1478.67 0zm1813.01 -1946.2l716.69 0c161.73,0 284.95,12.22 369.67,37.15 113.71,33.52 211.57,93.31 292.65,179.4 81.55,85.61 143.16,190.71 185.75,315.3 42.12,124.13 63.42,277.71 63.42,459.82 0,160.38 -19.93,298.09 -59.81,414.07 -48.46,141.79 -117.78,256.42 -207.93,343.85 -67.95,66.59 -159.91,118.24 -275.44,155.39 -86.53,27.62 -202.05,41.22 -347.02,41.22l-737.98 0 0 -1946.2zm394.13 328.89l0 1288.42 292.2 0c109.19,0 188.02,-6.35 236.48,-18.58 63.88,-15.86 116.43,-43.04 158.11,-81.09 42.13,-38.06 76.11,-100.57 102.38,-187.56 26.74,-86.97 39.87,-206.13 39.87,-356.53 0,-150.41 -13.13,-265.48 -39.87,-346.11 -26.27,-80.64 -63.42,-143.16 -110.98,-188.47 -47.58,-44.85 -107.83,-75.64 -181.22,-91.5 -54.36,-12.24 -161.73,-18.58 -321.19,-18.58l-175.78 0zm1343.23 1617.31l723.03 -1715.17c30.8,-72.47 65.23,-125.48 103.29,-159 38.05,-33.53 90.6,-50.29 157.66,-50.29 65.23,0 118.24,17.22 159,51.64 40.78,34.44 75.66,86.99 104.66,157.65l720.3 1715.17 -266.37 0 -214.74 -516.45 -1008.43 0 -212.03 516.45 -266.37 0zm918.73 -1595.56l-364.23 872.53 856.23 0 -358.8 -872.53c-27.19,-61.62 -49.84,-92.41 -67.95,-92.41 -5.44,0 -10.43,1.35 -14.96,4.07 -4.53,2.71 -8.61,6.34 -12.24,10.87 -3.61,4.53 -7.69,10.42 -12.22,17.67 -4.53,7.25 -7.7,13.59 -9.52,19.02 -1.81,5.44 -4.53,12.69 -8.15,21.75 -3.63,9.06 -6.34,15.4 -8.16,19.03zm1198.72 1595.56l0 -1614.59c0,-192.08 93.31,-288.12 279.97,-288.12l880.68 0c166.72,0 285.4,48.92 356.07,146.78 70.68,97.85 106.02,241 106.02,429.46 0,195.71 -33.07,345.66 -99.22,449.86 -66.14,104.2 -177.13,156.29 -332.97,156.29l-307.16 0 0 13.6 780.11 706.72 -337.05 0 -728.46 -668.67c-47.12,-43.49 -70.67,-83.36 -70.67,-119.6l0 -43.49c0,-63.42 38.05,-95.13 114.15,-95.13l464.82 0c105.1,0 173.5,-32.62 205.21,-97.86 31.72,-65.23 47.58,-165.81 47.58,-301.72 0,-130.47 -19.03,-224.69 -57.09,-282.68 -38.06,-57.98 -116.87,-86.98 -236.48,-86.98l-676.82 0c-47.12,0 -81.54,9.51 -103.29,28.54 -21.74,19.03 -32.61,53 -32.61,101.93l0 1565.66 -252.79 0zm2767.08 0l-252.79 0 0 -1696.13 -769.24 0 0 -206.58 1791.27 0 0 206.58 -769.24 0 0 1696.13z"/>
  </g>
 </g>
</svg>
