<svg width="27" height="24" viewBox="0 0 27 24" fill="none" xmlns="http://www.w3.org/2000/svg">
<path d="M3.375 5C3.375 4.44772 3.82272 4 4.375 4H22.625C23.1773 4 23.625 4.44772 23.625 5V5C23.625 5.55228 23.1773 6 22.625 6H4.375C3.82271 6 3.375 5.55228 3.375 5V5ZM10.125 12C10.125 11.4477 10.5727 11 11.125 11H22.625C23.1773 11 23.625 11.4477 23.625 12V12C23.625 12.5523 23.1773 13 22.625 13H11.125C10.5727 13 10.125 12.5523 10.125 12V12ZM3.375 19C3.375 18.4477 3.82272 18 4.375 18H22.625C23.1773 18 23.625 18.4477 23.625 19V19C23.625 19.5523 23.1773 20 22.625 20H4.375C3.82271 20 3.375 19.5523 3.375 19V19Z" fill="white"/>
</svg>
