<svg width="21" height="21" viewBox="0 0 21 21" fill="none" xmlns="http://www.w3.org/2000/svg">
<path d="M1.75 16.6256V7.30684C1.75 6.94225 1.84858 6.61413 2.04575 6.32246C2.24292 6.03079 2.50892 5.81934 2.84375 5.68809L9.84375 2.88809C10.0479 2.80059 10.2667 2.75684 10.5 2.75684C10.7333 2.75684 10.9521 2.80059 11.1562 2.88809L18.1562 5.68809C18.4917 5.81934 18.758 6.03079 18.9551 6.32246C19.1523 6.61413 19.2506 6.94225 19.25 7.30684V16.6256C19.25 17.1068 19.0788 17.519 18.7364 17.862C18.394 18.205 17.9818 18.3762 17.5 18.3756H14V11.3756H7V18.3756H3.5C3.01875 18.3756 2.60692 18.2044 2.2645 17.862C1.92208 17.5195 1.75058 17.1074 1.75 16.6256ZM7.875 18.3756V16.6256H9.625V18.3756H7.875ZM9.625 15.7506V14.0006H11.375V15.7506H9.625ZM11.375 18.3756V16.6256H13.125V18.3756H11.375Z" fill="white"/>
</svg>
