<svg width="20" height="21" viewBox="0 0 20 21" fill="none" xmlns="http://www.w3.org/2000/svg">
<path d="M9.51318 7.7731C8.8416 7.7731 8.21269 8.03364 7.73652 8.50981C7.26259 8.98599 6.9998 9.61489 6.9998 10.2865C6.9998 10.9581 7.26259 11.587 7.73652 12.0631C8.21269 12.5371 8.8416 12.7999 9.51318 12.7999C10.1848 12.7999 10.8137 12.5371 11.2898 12.0631C11.7638 11.587 12.0266 10.9581 12.0266 10.2865C12.0266 9.61489 11.7638 8.98599 11.2898 8.50981C11.0573 8.27545 10.7804 8.08964 10.4754 7.96316C10.1704 7.83669 9.84336 7.77209 9.51318 7.7731ZM18.7738 13.0626L17.3049 11.8071C17.3745 11.3803 17.4104 10.9446 17.4104 10.5111C17.4104 10.0776 17.3745 9.6396 17.3049 9.21509L18.7738 7.95952C18.8848 7.86453 18.9642 7.738 19.0015 7.59677C19.0388 7.45555 19.0323 7.30631 18.9827 7.1689L18.9625 7.1105C18.5582 5.98002 17.9525 4.93214 17.1746 4.01763L17.1342 3.97046C17.0397 3.85939 16.9138 3.77956 16.7731 3.74146C16.6324 3.70337 16.4834 3.70882 16.3458 3.75708L14.522 4.4062C13.8481 3.85366 13.0979 3.41792 12.2849 3.1147L11.9322 1.20776C11.9056 1.06411 11.8359 0.931949 11.7324 0.828843C11.6289 0.725737 11.4965 0.656565 11.3527 0.630518L11.2921 0.619287C10.1241 0.408154 8.89326 0.408154 7.72529 0.619287L7.66464 0.630518C7.52089 0.656565 7.38846 0.725737 7.28495 0.828843C7.18144 0.931949 7.11176 1.06411 7.08515 1.20776L6.73027 3.12368C5.92488 3.42931 5.1746 3.86399 4.50888 4.41069L2.67158 3.75708C2.53404 3.70843 2.38495 3.70279 2.24413 3.74091C2.10331 3.77902 1.97743 3.85908 1.8832 3.97046L1.84277 4.01763C1.06627 4.9331 0.46067 5.98072 0.0548784 7.1105L0.0346636 7.1689C-0.0664106 7.44966 0.0166949 7.76411 0.24355 7.95952L1.73046 9.22856C1.66084 9.65083 1.62714 10.0821 1.62714 10.5088C1.62714 10.9401 1.66084 11.3713 1.73046 11.7891L0.248042 13.0582C0.137076 13.1532 0.0576555 13.2797 0.0203424 13.4209C-0.0169708 13.5621 -0.0104089 13.7114 0.0391557 13.8488L0.0593706 13.9072C0.465914 15.037 1.06562 16.0814 1.84726 17L1.88769 17.0472C1.98215 17.1583 2.10804 17.2381 2.24878 17.2762C2.38951 17.3143 2.53849 17.3089 2.67607 17.2606L4.51337 16.607C5.18271 17.1573 5.92841 17.593 6.73476 17.894L7.08964 19.8099C7.11625 19.9536 7.18593 20.0857 7.28944 20.1888C7.39295 20.2919 7.52538 20.3611 7.66914 20.3872L7.72978 20.3984C8.90924 20.6106 10.1171 20.6106 11.2966 20.3984L11.3572 20.3872C11.501 20.3611 11.6334 20.2919 11.7369 20.1888C11.8404 20.0857 11.9101 19.9536 11.9367 19.8099L12.2893 17.903C13.1024 17.5975 13.8526 17.164 14.5265 16.6115L16.3503 17.2606C16.4878 17.3092 16.6369 17.3149 16.7777 17.2768C16.9186 17.2387 17.0444 17.1586 17.1387 17.0472L17.1791 17C17.9607 16.0769 18.5604 15.037 18.967 13.9072L18.9872 13.8488C19.0838 13.5703 19.0007 13.2581 18.7738 13.0626ZM9.51318 14.2351C7.33222 14.2351 5.56455 12.4674 5.56455 10.2865C5.56455 8.10552 7.33222 6.33784 9.51318 6.33784C11.6941 6.33784 13.4618 8.10552 13.4618 10.2865C13.4618 12.4674 11.6941 14.2351 9.51318 14.2351Z" fill="white"/>
</svg>
