<svg width="20" height="20" viewBox="0 0 20 20" fill="none" xmlns="http://www.w3.org/2000/svg">
<g clip-path="url(#clip0_340_43)">
<path fill-rule="evenodd" clip-rule="evenodd" d="M19.41 3.7167C19.584 3.78615 19.7332 3.90615 19.8384 4.06122C19.9436 4.2163 19.9999 4.39933 20 4.5867V15.4142C19.9999 15.6016 19.9436 15.7846 19.8384 15.9397C19.7332 16.0947 19.584 16.2147 19.41 16.2842L10.3475 19.9092C10.124 19.9986 9.87473 19.9986 9.65125 19.9092L0.58875 16.2842C0.414961 16.2145 0.266007 16.0945 0.161076 15.9394C0.0561445 15.7843 4.35749e-05 15.6014 0 15.4142L0 4.5867C4.35749e-05 4.39947 0.0561445 4.21655 0.161076 4.06149C0.266007 3.90643 0.414961 3.78634 0.58875 3.7167L9.30375 0.230446L9.30875 0.229196L9.65125 0.0916959C9.8751 0.00198679 10.1249 0.00198679 10.3488 0.0916959L10.6913 0.229196L10.6962 0.230446L19.41 3.7167ZM17.6925 4.37545L10 7.45295L2.3075 4.37545L1.25 4.7992V5.2992L9.375 8.5492V18.4517L10 18.7017L10.625 18.4517V8.55045L18.75 5.30045V4.80045L17.6925 4.37545Z" fill="white"/>
</g>
<defs>
<clipPath id="clip0_340_43">
<rect width="20" height="20" fill="white"/>
</clipPath>
</defs>
</svg>
