<svg width="20" height="20" viewBox="0 0 20 20" fill="none" xmlns="http://www.w3.org/2000/svg">
<path d="M17.0946 11.983L19.0606 15.389C19.1418 15.5292 19.1877 15.687 19.1943 15.8488C19.201 16.0107 19.1682 16.1717 19.0989 16.3181C19.0295 16.4645 18.9256 16.5919 18.7962 16.6892C18.6667 16.7866 18.5155 16.851 18.3556 16.877L18.2426 16.888L18.1306 16.887L15.1976 16.697L13.8946 19.333C13.8241 19.4759 13.7203 19.5999 13.5921 19.6946C13.4639 19.7893 13.315 19.8519 13.1576 19.8774C13.0003 19.9028 12.8392 19.8903 12.6876 19.8408C12.5361 19.7913 12.3986 19.7064 12.2866 19.593L12.2046 19.499L12.1326 19.389L10.1646 15.982C11.5499 15.8949 12.8963 15.4887 14.0985 14.7949C15.3006 14.1012 16.3261 13.1388 17.0946 11.983ZM9.02863 15.982L7.06263 19.39C6.98312 19.5282 6.8717 19.6455 6.73766 19.7319C6.60362 19.8183 6.45086 19.8714 6.29212 19.8868C6.13338 19.9022 5.97326 19.8793 5.82514 19.8202C5.67702 19.7611 5.54518 19.6674 5.44063 19.547L5.36463 19.447L5.30063 19.333L3.99663 16.698L1.06563 16.888C0.904111 16.8986 0.742427 16.8699 0.594467 16.8042C0.446507 16.7386 0.316693 16.638 0.216176 16.5111C0.115659 16.3843 0.0474434 16.2349 0.0173887 16.0758C-0.0126659 15.9168 -0.00366128 15.7528 0.0436293 15.598L0.0836293 15.491L0.133629 15.391L2.10163 11.982C2.86964 13.1378 3.89452 14.1003 5.09618 14.7944C6.29783 15.4885 7.64371 15.8943 9.02863 15.982ZM9.59863 0L9.83863 0.00399995C11.6525 0.0662278 13.3714 0.830561 14.6326 2.13577C15.8937 3.44098 16.5987 5.18502 16.5986 7L16.5956 7.193L16.5886 7.385L16.5706 7.63L16.5446 7.872L16.5206 8.05C16.4547 8.48163 16.3486 8.90615 16.2036 9.318L16.0876 9.626L15.9346 9.974C15.3685 11.18 14.47 12.1994 13.3447 12.9125C12.2194 13.6257 10.914 14.0029 9.58171 14C8.24946 13.9971 6.94571 13.614 5.82355 12.896C4.70139 12.1779 3.80743 11.1545 3.24663 9.946L3.11663 9.649L3.06463 9.516L2.98463 9.299L2.88963 9.005C2.85572 8.89114 2.82471 8.77644 2.79663 8.661L2.73663 8.39L2.68763 8.119L2.66763 7.98L2.62863 7.657L2.60463 7.292L2.59863 7C2.5986 5.18502 3.30352 3.44098 4.5647 2.13577C5.82588 0.830561 7.54472 0.0662278 9.35863 0.00399995L9.59863 0Z" fill="#F7F7F7"/>
</svg>
