<svg width="17" height="17" viewBox="0 0 17 17" fill="none" xmlns="http://www.w3.org/2000/svg">
<path d="M17 2.65625C17 3.25391 16.5252 3.80508 15.725 4.25C14.7588 4.78457 13.3178 5.16309 11.6643 5.27598C11.5414 5.21621 11.4186 5.15977 11.2891 5.10996C9.98086 4.56211 8.24102 4.25 6.375 4.25C6.09941 4.25 5.83047 4.25664 5.56152 4.26992L5.525 4.25C4.7248 3.80508 4.25 3.25391 4.25 2.65625C4.25 1.18867 7.10547 0 10.625 0C14.1445 0 17 1.18867 17 2.65625ZM5.33574 5.34902C5.67441 5.32578 6.02305 5.3125 6.375 5.3125C8.44023 5.3125 10.273 5.7209 11.4385 6.35508C12.2619 6.80332 12.75 7.36113 12.75 7.96875C12.75 8.10156 12.7268 8.23105 12.6803 8.35723C12.5275 8.79551 12.1158 9.19727 11.5182 9.53594C11.5148 9.53926 11.5082 9.53926 11.5049 9.54258C11.4949 9.54922 11.485 9.55254 11.475 9.55918C10.3129 10.2033 8.46016 10.6217 6.375 10.6217C4.39609 10.6217 2.62637 10.2465 1.4543 9.65547C1.39121 9.62559 1.33145 9.59238 1.27168 9.55918C0.474805 9.11758 0 8.56641 0 7.96875C0 6.81328 1.77305 5.82715 4.25 5.46523C4.59863 5.41543 4.96055 5.37559 5.33574 5.34902ZM13.8125 7.96875C13.8125 7.2416 13.4605 6.64395 13.0123 6.1957C13.952 6.04961 14.8119 5.81719 15.5424 5.51504C16.0836 5.28926 16.5883 5.01035 17 4.66836V5.84375C17 6.48457 16.4521 7.07559 15.5457 7.53379C15.0609 7.77949 14.4699 7.98867 13.8059 8.14805C13.8092 8.08828 13.8125 8.03184 13.8125 7.97207V7.96875ZM12.75 11.1562C12.75 11.7539 12.2752 12.3051 11.475 12.75C11.4152 12.7832 11.3555 12.8131 11.2924 12.8463C10.1236 13.4373 8.35391 13.8125 6.375 13.8125C4.28984 13.8125 2.43711 13.3941 1.275 12.75C0.474805 12.3051 0 11.7539 0 11.1562V9.98086C0.415039 10.3229 0.916406 10.6018 1.45762 10.8275C2.76914 11.3754 4.50898 11.6875 6.375 11.6875C8.24102 11.6875 9.98086 11.3754 11.2924 10.8275C11.5514 10.7213 11.8004 10.5984 12.0361 10.4656C12.2387 10.3527 12.4279 10.2266 12.6072 10.0938C12.657 10.0572 12.7035 10.0174 12.75 9.98086V10.283V11.1562ZM13.8125 11.1562V9.23379C14.4434 9.09434 15.0244 8.91836 15.5424 8.70254C16.0836 8.47676 16.5883 8.19785 17 7.85586V9.03125C17 9.37988 16.834 9.72852 16.5053 10.0572C15.9641 10.5984 15.0111 11.0434 13.8059 11.3322C13.8092 11.2758 13.8125 11.216 13.8125 11.1562ZM6.375 14.875C8.24102 14.875 9.98086 14.5629 11.2924 14.015C11.8336 13.7893 12.3383 13.5104 12.75 13.1684V14.3438C12.75 15.8113 9.89453 17 6.375 17C2.85547 17 0 15.8113 0 14.3438V13.1684C0.415039 13.5104 0.916406 13.7893 1.45762 14.015C2.76914 14.5629 4.50898 14.875 6.375 14.875Z" fill="#F7F7F7"/>
</svg>
