<svg width="74" height="42" viewBox="0 0 74 42" fill="none" xmlns="http://www.w3.org/2000/svg">
<mask id="mask0_432_496" style="mask-type:luminance" maskUnits="userSpaceOnUse" x="16" y="1" width="42" height="41">
<path d="M16 1H57.5547V41.9929H16V1Z" fill="white"/>
</mask>
<g mask="url(#mask0_432_496)">
<path fill-rule="evenodd" clip-rule="evenodd" d="M20.9258 41.7428C20.0487 41.7428 19.3076 41.0684 19.2385 40.2079L16.2494 3.04811C16.2122 2.58678 16.3735 2.127 16.6922 1.78678C17.0117 1.44567 17.4654 1.25 17.9366 1.25H55.6061C56.0774 1.25 56.5309 1.44567 56.8504 1.78667C57.1689 2.12689 57.3306 2.58678 57.2935 3.04811L54.3043 40.2079C54.235 41.0686 53.4939 41.7428 52.617 41.7428H20.9258Z" fill="#FFFFFE"/>
</g>
<mask id="mask1_432_496" style="mask-type:luminance" maskUnits="userSpaceOnUse" x="16" y="1" width="42" height="41">
<path d="M16 1H57.5547V41.9929H16V1Z" fill="white"/>
</mask>
<g mask="url(#mask1_432_496)">
<path fill-rule="evenodd" clip-rule="evenodd" d="M55.6076 1.5C56.4472 1.5 57.1085 2.20456 57.0422 3.02833L54.0531 40.1882C53.9938 40.9249 53.3692 41.4929 52.6185 41.4929H20.9273C20.1764 41.4929 19.5518 40.9249 19.4926 40.1882L16.5035 3.02833C16.4371 2.20456 17.0985 1.5 17.9381 1.5H55.6076ZM55.6076 1H17.9381C17.3964 1 16.8751 1.225 16.5077 1.61711C16.1412 2.00833 15.9555 2.53722 15.9982 3.06789L18.9874 40.2277C19.0669 41.2173 19.919 41.9929 20.9273 41.9929H52.6185C53.6267 41.9929 54.4788 41.2173 54.5585 40.2277L57.5476 3.06789C57.5902 2.53722 57.4044 2.00833 57.038 1.61711C56.6707 1.225 56.1494 1 55.6076 1Z" fill="#777777"/>
</g>
<path fill-rule="evenodd" clip-rule="evenodd" d="M40.691 34.1459C40.578 34.1459 40.4902 34.0492 40.5026 33.9385C40.5047 33.9197 40.505 33.9136 40.505 33.9136C40.5359 33.4482 40.3744 33.1753 39.8444 33.1753L38.2052 33.1772L37.7671 35.147H40.1137C40.2345 35.147 40.3241 35.2574 40.2981 35.3736L40.0695 36.3894C40.0504 36.4746 39.9738 36.535 39.8856 36.535H37.4554C37.4554 36.535 37.1854 37.7419 37.1757 37.794C37.0853 38.1836 37.3553 38.3859 37.5363 38.4728C37.5455 38.4772 37.5548 38.4814 37.5641 38.4855C37.6417 38.5198 37.6843 38.603 37.6658 38.6849L37.541 39.2402C37.522 39.3249 37.4457 39.3854 37.3577 39.3854H34.5002C34.3803 39.3854 34.2912 39.2759 34.317 39.1605L35.5618 33.5979C35.6887 33.1072 35.3975 32.9075 35.1883 32.8288C35.1812 32.8263 35.174 32.8238 35.1671 32.8213C35.0736 32.7885 35.0195 32.6922 35.0411 32.5965L35.151 32.1069C35.1719 32.0139 35.2555 31.9478 35.3522 31.9478H41.7056C41.8261 31.9478 41.9158 32.058 41.8898 32.1742L41.4787 34.0006C41.4596 34.0855 41.3833 34.1459 41.2951 34.1459H40.691ZM31.1351 32.1058C31.1558 32.0135 31.2387 31.9478 31.3346 31.9478H34.4416C34.5626 31.9478 34.6526 32.0584 34.6262 32.1749L34.5209 32.6459C34.5028 32.7258 34.4357 32.7827 34.3533 32.7914C34.339 32.7929 34.3298 32.7938 34.3298 32.7938C34.0957 32.8246 33.673 32.8997 33.3265 33.167L30.7439 35.2855C30.7436 35.2857 30.7436 35.286 30.7437 35.2863L32.7313 37.9393C33.1165 38.4278 33.3065 38.5164 33.6938 38.5222C33.8209 38.5246 33.9121 38.6422 33.8846 38.7644L33.7761 39.2414C33.7571 39.3256 33.6814 39.3854 33.594 39.3854H32.0462C30.3322 39.3856 29.8591 38.6442 28.4313 36.0697C28.431 36.0692 28.4302 36.0693 28.4301 36.0698L28.0133 37.9478C27.9499 38.2397 28.1978 38.3943 28.3794 38.4669C28.3873 38.4703 28.3951 38.4732 28.4025 38.4759C28.4893 38.5096 28.5384 38.6005 28.5182 38.69L28.3945 39.2406C28.3753 39.3252 28.2994 39.3854 28.2116 39.3854H24.625C24.4988 39.3854 24.4053 39.2703 24.4325 39.1488L24.538 38.6783C24.557 38.5928 24.6293 38.5289 24.7172 38.5195C24.7208 38.5189 24.7243 38.5186 24.7277 38.5182C25.0564 38.4807 25.4013 38.2759 25.6141 37.2728L26.4274 33.6003C26.5321 33.1109 26.284 32.9248 26.0701 32.8422C26.0683 32.8415 26.0557 32.837 26.0361 32.8306C25.9381 32.7976 25.8806 32.697 25.9031 32.5972L26.0137 32.1066C26.0345 32.0137 26.118 31.9478 26.2142 31.9478H29.6257C29.745 31.9478 29.8337 32.0567 29.8079 32.1717L29.6992 32.6558C29.6835 32.7265 29.6303 32.7836 29.56 32.8049C29.5515 32.8076 29.5427 32.8102 29.534 32.8129C29.3743 32.8642 29.1218 32.9933 29.0443 33.3068L28.5898 35.3507C28.5897 35.3514 28.5905 35.3518 28.5911 35.3514L31.2372 33.1824C31.3959 33.0533 31.3555 32.8807 31.1734 32.8116C31.1734 32.8116 31.173 32.8115 31.1723 32.8113C31.0689 32.7804 31.007 32.6759 31.0304 32.5719L31.1351 32.1058ZM48.9603 32.1018C49.0737 32.1326 49.1425 32.246 49.1168 32.3595L48.7143 34.146C48.6952 34.2312 48.6186 34.2918 48.5301 34.2918H47.9575C47.8494 34.2918 47.7633 34.2023 47.7689 34.0958C47.7703 34.0726 47.7705 34.0632 47.7705 34.0626C47.798 33.4802 47.425 33.0446 46.5809 33.0447C45.1777 33.0449 44.157 34.1806 44.0233 35.6726C43.8853 37.2132 44.9768 38.1084 46.4883 38.1082C47.2632 38.108 47.8768 37.9606 48.2207 37.8532C48.3572 37.8106 48.4904 37.9273 48.4634 38.0662L48.2858 38.9893C48.2707 39.068 48.213 39.1322 48.1355 39.1564C47.8258 39.2536 46.9561 39.4823 45.625 39.4825C42.4625 39.483 41.1793 37.6887 41.378 35.8598C41.5546 34.2309 42.6472 31.8318 46.9555 31.831C47.7804 31.8309 48.4405 31.9613 48.9603 32.1018ZM43.5245 13.3475C43.3541 14.2416 43.1634 14.6903 43.041 15.2419C42.914 15.8156 42.6642 16.6542 42.4217 16.6758C42.1768 16.7485 42.0784 16.469 41.9211 16.6759C41.8274 16.799 41.7548 16.9616 41.6714 17.0665C41.6182 17.1353 41.5655 17.2884 41.5647 17.3718C41.5647 17.5333 41.5557 18.0545 41.4092 18.7379C41.1885 19.7695 40.7874 20.5209 40.3704 20.9953C39.5721 21.9035 38.8243 22.0497 38.7353 22.096C38.6209 22.1558 38.4477 22.1205 38.391 22.0937C38.3335 22.0679 38.2896 21.9998 38.1908 21.9046C38.089 21.8107 38.0536 21.9535 38.0498 21.9899C38.0458 22.024 38.1015 22.4538 37.9904 22.6482C37.751 23.0665 37.5207 23.1028 37.3925 23.6237C37.3494 23.7996 37.3795 24.0653 37.1665 23.9449C36.6458 23.6516 35.8998 22.8573 35.7453 22.0872C35.6984 21.8527 35.7423 21.5912 35.8873 21.1453C35.9711 20.8835 36.0306 20.5922 36.0306 20.4244C36.0306 20.1267 35.9126 19.8744 36.0306 19.8485C36.2492 19.8006 36.3488 20.3587 36.4504 20.3009C36.627 20.2006 36.4958 19.6113 36.4958 19.6113C36.4958 19.6113 36.4233 19.4436 36.1136 19.3719C35.9354 19.3308 35.8794 19.1993 36.0694 19.1073C36.2113 19.0386 36.3761 18.9484 36.5682 18.9767C37.8519 19.1562 38.2213 18.9017 38.7406 18.7635C38.8425 18.7369 38.9026 18.7252 38.9824 18.7624C39.0617 18.7987 39.2749 18.9137 39.3182 19.0217C39.3622 19.1287 39.3167 19.5489 39.3847 19.865C39.4541 20.1827 39.6803 19.8942 39.7365 19.7686C39.7934 19.644 39.8517 19.3369 39.8634 19.2588C39.8759 19.1812 39.9419 18.8545 40.0607 18.7572C40.296 18.5646 40.3788 18.3114 40.4167 18.2125C40.4556 18.1133 40.517 17.8078 40.5061 17.3615C40.4948 16.9159 40.4131 16.8676 40.3041 16.7719C40.1963 16.6765 40.0668 16.6949 39.7917 16.4465C39.5465 16.2245 39.3445 15.8659 39.1671 15.6402C38.9891 15.415 38.6941 15.173 38.3573 15.0918C38.0219 15.012 38.1612 15.3172 38.1792 15.4029C38.1933 15.4634 38.2723 15.7342 38.1603 15.8234C38.0508 15.9124 37.3723 16.3623 36.7671 16.2063C36.0459 16.0205 35.7967 15.6246 35.7818 15.2419C35.7715 14.9709 35.9032 14.7095 36.0674 14.3988C36.1636 14.217 36.2024 13.9138 36.241 13.6229C36.2718 13.3902 36.335 13.0537 36.3863 12.934C36.4233 12.8477 36.5102 12.7538 36.7059 12.7649C36.8994 12.7756 37.0263 12.8706 37.0617 13.0353C37.1871 13.6075 37.3915 13.7519 37.4608 13.7984C37.5309 13.8445 37.6618 13.7519 37.7128 13.7185C37.7644 13.6855 37.8957 13.5546 37.8544 13.4844C37.7918 13.3756 37.7572 13.3104 37.7434 13.2466C37.7195 13.1377 37.8576 13.1509 37.8855 13.1727C38.1116 13.3484 38.3248 13.3638 38.7154 13.428C39.3988 13.5404 39.4969 13.2919 39.9663 13.3723C40.0273 13.3827 40.143 13.4328 40.1808 13.5024C40.2119 13.5618 40.269 13.6986 40.3264 13.7226C40.3833 13.7444 40.5226 13.7528 40.5945 13.7656C40.6939 13.782 40.8718 13.7712 40.8419 13.9523C40.7654 14.4376 40.1975 14.5715 39.9321 14.6165C39.8225 14.635 39.7722 14.6439 39.7544 14.6594C39.697 14.7092 39.6948 14.8612 39.761 14.9594C39.8078 15.0285 40.0226 15.0328 40.3164 14.9772C40.6229 14.9192 40.9172 14.7733 41.1497 14.4159C41.3959 14.0375 41.5313 13.2043 41.5599 13.0486C41.5878 12.8932 41.651 12.6328 41.7378 12.5795C41.8237 12.5263 42.2236 12.4064 42.2799 12.4162C42.347 12.4276 42.3958 12.4596 42.4275 12.6122C42.4589 12.7663 42.4002 13.6844 42.3991 13.8228C42.3975 13.9706 42.4742 13.9693 42.517 13.9498C42.6103 13.9074 42.8593 13.7438 42.9156 13.5547C42.9573 13.4143 42.8373 13.2099 42.8976 13.0158C42.9914 12.7132 43.0838 12.6326 43.1478 12.6386C43.538 12.6754 43.6179 12.8439 43.5245 13.3329M37.994 18.2836C37.849 18.3359 37.4301 18.432 37.2272 18.4442C37.0225 18.4555 36.3736 18.4989 36.2647 18.4938C36.1309 18.4862 35.9504 18.4218 35.8036 18.2895C35.7739 18.2626 35.7418 18.1703 35.8616 18.1682C36.0842 18.1643 36.4599 18.0472 37.7538 18.1552C37.8922 18.1664 37.9576 18.1724 37.9904 18.1755C38.0243 18.1789 38.1389 18.233 37.994 18.2836ZM34.8117 17.7652C34.1818 17.7574 33.8904 17.5259 33.8454 17.4568C33.8021 17.3898 33.8747 17.3378 33.9405 17.317C34.0893 17.2705 34.3535 17.1388 34.4607 17.0585C34.5684 16.9793 34.8653 16.7969 35.0151 16.7018C35.0856 16.6564 35.4906 16.4825 35.7274 16.6453C36.0827 16.8898 36.4147 17.0533 37.0225 17.0166C37.4135 16.9929 37.4047 16.6818 37.7228 16.5827C38.0103 16.4934 38.0655 16.4238 38.1555 16.3718C38.2717 16.3489 38.3573 16.32 38.4833 16.4357C38.6429 16.5823 38.7007 16.6978 38.8854 16.9038C39.1383 17.1854 39.4173 17.3166 39.5037 17.3333C39.5895 17.3507 39.6514 17.4196 39.6523 17.448C39.6531 17.4759 39.6178 17.5636 39.3627 17.6355C38.5115 17.876 37.5898 17.7218 37.1153 17.5348C36.8745 17.4399 36.6404 17.414 36.3761 17.542C36.1098 17.6708 35.3995 17.7723 34.8117 17.7652ZM34.5091 21.2185C34.0266 21.2332 32.7653 20.4824 32.2151 18.3513C32.0724 17.8032 32.4228 17.3584 32.6402 17.2819C32.7687 17.2355 32.8363 17.2208 32.8795 17.215C32.9242 17.2096 33.1438 17.2109 33.1363 17.4556C33.1286 17.6539 33.2956 19.3065 33.7329 19.9046C33.8414 20.0529 33.9418 20.0584 33.9915 19.9274C34.0373 19.8056 34.1132 19.6487 34.1377 19.589C34.1556 19.546 34.3147 19.306 34.3619 19.4883C34.4622 19.8754 34.6973 20.6719 34.7962 20.8776C34.9601 21.2187 34.69 21.2129 34.5091 21.2185ZM31.9738 14.8593C31.9399 14.7157 32.0047 14.5009 32.3474 14.7176C32.4022 14.7524 32.5632 14.8245 32.7422 14.8752C32.8505 14.9059 32.9208 14.8609 32.9513 14.7833C32.9831 14.7063 33.072 14.5526 32.9194 14.4789C32.7677 14.4042 32.3921 14.3397 32.1777 13.8192C32.1392 13.7263 32.2041 13.6194 32.2643 13.5919C32.3253 13.565 32.4005 13.5786 32.4708 13.6444C32.5406 13.7089 32.6904 13.8515 32.8245 13.8567C32.948 13.8625 32.9682 13.813 32.9932 13.7844C33.097 13.6694 33.3946 13.2403 34.0116 13.3147C34.2659 13.3455 34.5006 13.4013 34.5862 13.4076C34.6473 13.4115 34.8166 13.419 34.9787 13.3889C35.1635 13.3549 35.4393 13.2984 35.3043 13.4523C35.1946 13.5772 35.1029 13.6292 35.199 13.7647C35.2039 13.7717 35.2089 13.7783 35.2135 13.7847C35.3002 13.905 35.3025 14.0654 35.2144 14.1846L35.2037 14.1999C35.0674 14.3746 34.7854 14.5757 34.2025 14.6122C33.937 14.6287 33.9205 14.6192 33.9147 14.7689C33.9127 14.8267 33.9135 14.8572 33.9219 14.8975C33.9379 14.9728 33.9868 15.004 34.1712 15.0154C34.3048 15.0235 34.5495 14.9976 34.5499 14.9975C34.61 14.9797 34.6809 15.0175 34.6422 15.0668C34.6361 15.0743 34.6117 15.1104 34.6074 15.1159C34.4752 15.2845 34.4339 15.4386 34.4217 15.5306C34.4112 15.6085 34.3656 15.6783 34.2956 15.7142C34.2946 15.7146 34.2938 15.715 34.2928 15.7155C34.2077 15.7586 33.8639 15.8318 33.5932 16.0523C33.3238 16.2726 32.7608 16.4543 32.5187 16.1834C32.2764 15.9133 32.079 15.309 31.9738 14.8593ZM31.7989 12.1895C31.723 12.1975 31.6588 12.1519 31.5761 12.1343C31.4803 12.1137 31.4216 12.1425 31.3818 12.0905C31.3467 12.0369 31.3531 11.9865 31.4079 11.9659C31.4626 11.9457 31.5025 11.9608 31.5578 11.9503C31.6703 11.9293 31.8074 11.8023 31.9089 11.9432C31.9745 12.0346 31.9183 12.1768 31.7989 12.1895ZM30.8636 15.5763C30.6203 15.4165 30.6333 15.2072 30.5715 15.0013C30.4401 14.5645 30.299 14.0385 30.177 13.5913C30.1031 13.3209 30.0843 12.6864 30.4565 12.6864C30.6439 12.6864 30.7837 12.7444 30.8437 12.9185C30.9772 13.3062 30.7258 13.2387 30.7902 13.6967C30.836 14.0206 30.8986 14.3398 31.0024 14.8902C31.05 15.1437 31.1339 15.7538 30.9079 15.6054M30.1469 9.35249C30.2827 8.99038 30.5293 8.68194 30.6977 8.46405C30.8518 8.26471 30.779 8.00171 30.7003 7.76594C30.6492 7.54894 30.5078 7.32438 30.4862 7.26494C30.4706 7.22338 30.4702 7.18983 30.4836 7.16049C30.4937 7.15383 30.502 7.14838 30.5124 7.14183L30.8103 7.11671C31.6631 7.00905 32.4152 6.71371 32.6424 6.58794C32.7543 6.52605 32.873 6.47738 32.9944 6.43671C33.1368 6.38916 33.2841 6.34127 33.4315 6.32216C33.5431 6.30416 33.6752 6.28716 33.7882 6.27483C33.9568 6.25594 34.2234 6.37249 34.1642 6.40705C34.0214 6.49149 33.3588 6.64271 32.7758 7.32916C32.4186 7.74894 32.3357 8.0086 32.2152 8.20194C32.0932 8.39594 31.9954 8.44205 31.824 8.58816C31.7402 8.65871 31.5693 8.80649 31.4856 9.0416C31.401 9.27894 31.0754 10.1069 31.0329 11.4218C31.0283 11.5745 31.0014 11.7357 30.8547 11.791C30.8547 11.791 30.8539 11.7913 30.8536 11.7915C30.7332 11.8396 30.6355 11.9182 30.6153 11.8325C30.5379 11.5438 30.3586 10.9215 30.2836 10.5272C30.2598 10.4028 30.2318 10.2798 30.202 10.1567C30.1203 9.82083 30.0833 9.52238 30.1469 9.35249ZM32.7403 12.5499C32.5853 12.647 32.4333 12.7594 32.3177 12.8332C32.1767 12.9249 31.9783 12.8369 32.0363 12.6419C32.0648 12.5472 32.2014 12.3043 32.4307 12.2613C32.4607 12.2553 32.5744 12.2339 32.6696 12.2226C32.7806 12.2109 32.8989 12.2009 32.9592 12.1984C33.1217 12.1915 33.1394 12.32 33.0293 12.3864C32.9561 12.4308 32.8433 12.4857 32.7403 12.5499ZM32.9541 12.8373C32.9957 12.8039 33.0139 12.8038 33.1539 12.7279C33.2533 12.6736 33.3669 12.6064 33.4816 12.533C33.6893 12.3998 34.0826 12.262 34.2495 12.2637C34.3702 12.2652 34.5811 12.3165 34.6933 12.4372C34.8104 12.5632 34.8424 12.7097 34.6895 12.6843C34.5381 12.6586 34.3773 12.6183 34.0858 12.6843C33.7598 12.7577 33.5385 12.8809 33.3812 12.9504C33.2203 13.0238 33.0574 13.0415 33.0036 13.039C32.9516 13.0356 32.8036 12.9575 32.9541 12.8373ZM35.3617 15.6853C35.3998 15.7542 35.4121 15.8702 35.4013 15.9179C35.39 15.9766 35.1812 16.0533 35.0073 15.7972C34.834 15.5425 34.9153 15.2293 35.0185 15.1063C35.182 14.9088 35.4322 15.0523 35.3961 15.1253C35.2709 15.3785 35.3266 15.6167 35.3617 15.6853ZM40.5747 13.185C40.5108 13.2169 40.2696 13.1372 40.2029 13.1003C40.0695 13.0265 39.9746 12.9743 39.795 12.823C39.6759 12.7238 39.4591 12.6772 39.2535 12.6868C39.0962 12.6944 38.9396 12.7277 38.8189 12.7555C38.6998 12.7838 38.6907 12.6772 38.7261 12.6368C38.7619 12.5967 38.929 12.4456 39.2939 12.3514C39.347 12.3376 39.4497 12.3422 39.5015 12.3477C39.6536 12.3645 39.8358 12.4643 39.9668 12.5898C40.0977 12.7163 40.3627 12.9388 40.506 13.0249C40.574 13.0653 40.7259 13.1089 40.5747 13.185ZM40.4257 12.5899C40.4257 12.5899 40.2001 12.4379 40.1279 12.3144C40.0923 12.2533 40.1004 12.2023 40.1959 12.2014C40.5342 12.198 40.844 12.19 40.9948 12.3148C41.1045 12.4059 41.1075 12.5962 41.0537 12.7189C40.9915 12.8592 40.8675 12.8194 40.7967 12.8094C40.726 12.7988 40.4257 12.5899 40.4257 12.5899ZM42.1215 12.0905C42.0703 12.145 42.025 12.1123 41.9194 12.138C41.8371 12.1579 41.7823 12.2037 41.7065 12.197C41.5867 12.1864 41.5278 12.0452 41.5917 11.9526C41.6907 11.8099 41.8303 11.9343 41.9431 11.9537C41.9985 11.9633 42.0381 11.9473 42.0932 11.9667C42.1483 11.9859 42.1559 12.0363 42.1215 12.0905ZM32.3692 5.64127C32.4209 5.56238 32.5464 5.44716 32.6718 5.35783C32.8032 5.26516 33.4493 4.7876 34.0497 4.60727C34.161 4.5746 34.1895 4.55805 34.2606 4.54116C34.3506 4.51805 34.4268 4.32694 34.2396 4.29905C34.0429 4.27105 33.9628 4.28371 33.858 4.28705C33.7533 4.28938 33.7027 4.23394 33.7787 4.1526C33.856 4.07083 33.9951 3.98738 34.2399 3.89049C34.7744 3.6806 35.7216 3.56838 36.1633 3.52971C36.7396 3.48071 36.8093 3.48249 37.1843 3.51094C37.5356 3.53705 37.8112 3.6016 37.9416 3.62427C38.603 3.74227 39.3651 4.04449 40.0425 4.41127C40.3992 4.61994 40.7427 4.85294 41.0627 5.09883C42.0333 5.84516 43.1481 7.26471 42.9855 10.2547C42.9661 10.6077 42.9237 10.8035 42.9003 10.8887C42.8761 10.9753 42.7599 11.123 42.6984 10.9275C42.4979 10.2878 42.2399 9.16027 41.653 8.26983C41.5714 8.14571 41.4453 8.15727 41.4578 8.28805C41.4624 8.3426 41.4895 8.91294 41.4752 9.02305C41.3801 9.7576 41.6083 9.47149 41.9443 10.2595C42.0484 10.5033 42.1823 10.9852 42.2159 11.2959C42.2246 11.374 42.2353 11.4647 42.2373 11.5516C42.2396 11.6614 42.1844 11.6687 42.1844 11.6687C41.9544 11.6679 41.5536 11.5603 41.3373 11.5535C41.0914 11.5457 39.3844 11.5287 38.7429 11.5786C38.1009 11.6268 37.751 11.8547 37.3876 12.1482C37.3273 12.1969 37.2414 12.2424 37.193 12.2663C37.1687 12.2783 37.1417 12.2818 37.1151 12.2773C37.0856 12.2722 37.0377 12.2633 36.9619 12.2477C36.8051 12.2159 36.6155 12.2034 36.4623 12.2496C36.3093 12.2948 36.2372 12.3337 36.0718 12.2392C35.8364 12.1034 35.4752 11.5613 34.2149 11.5513C33.5008 11.5457 32.5642 11.5362 32.0128 11.5602C31.8346 11.5678 31.7416 11.5876 31.6959 11.5865C31.6921 11.5658 31.691 11.537 31.6908 11.5315C31.6816 10.5388 32.3384 10.7589 32.4136 10.501C32.6012 9.85816 32.645 8.31171 33.7834 7.36238C34.3276 6.9086 34.6106 6.8896 35.1156 6.8896C35.6599 6.8896 36.1909 7.02971 36.4617 7.16205C36.6772 7.26705 36.784 7.33738 36.8687 7.27549C36.9533 7.21205 37.1799 7.00949 37.2732 6.93994C37.3671 6.86894 37.3317 6.75871 37.2432 6.68649C37.158 6.61849 36.3504 5.61671 35.1124 5.41483C34.8288 5.36827 34.6194 5.32583 34.3617 5.32516C34.2225 5.32005 34.0989 5.31938 33.7754 5.35805C33.3015 5.41483 32.6821 5.67494 32.2835 5.83094C32.262 5.80838 32.3443 5.6766 32.3692 5.64127ZM31.9603 19.5638C31.9726 20.0765 32.2739 21.43 34.0171 22.7145C34.7441 23.2499 35.0774 23.4916 35.1733 23.5572L35.1728 23.561C35.2207 23.594 34.9151 23.5864 34.831 23.5944C34.6945 23.6072 34.2297 23.5656 33.8576 23.6335C33.5219 23.6946 33.5675 23.7744 33.5342 24.0139C33.5077 24.2037 33.5325 24.5046 33.5229 24.7612C33.5129 25.0175 33.4986 25.1998 33.6087 25.3239C33.7173 25.4459 33.7859 25.4655 34.2467 25.4374C34.6849 25.4109 35.8983 25.41 36.0445 25.3807C36.2322 25.3428 36.2023 25.4099 36.0941 25.6389C35.9088 26.0313 35.3044 27.83 34.3651 29.5393C34.2334 29.7787 34.6037 29.6655 34.9197 29.8157C35.491 30.0875 35.4723 30.1632 35.6223 29.8796C35.785 29.5724 36.6093 27.6589 36.7369 27.0682C36.7534 26.991 36.7869 26.9243 36.7999 27.04C36.809 27.1235 36.8212 29.5406 36.7528 30.3032C36.7492 30.3435 36.7591 30.3856 36.7878 30.4147C36.8291 30.4565 36.8911 30.4738 36.944 30.4859C36.9445 30.4859 36.945 30.4859 36.9455 30.4859C37.2292 30.3925 37.5728 30.3238 37.8645 30.3714C37.8904 30.3684 37.915 30.3628 37.9387 30.3555C37.9544 30.3426 37.9684 30.3275 37.9785 30.3094C38.0012 30.2688 38.0128 30.2229 38.023 30.1779C38.0239 30.1745 38.0246 30.171 38.0253 30.1674C38.0395 30.1032 38.0511 30.038 38.0582 29.9726C38.0623 29.9339 38.0651 29.895 38.0676 29.8562C38.0707 29.8059 38.073 29.7555 38.0747 29.705C38.0769 29.6443 38.0784 29.5834 38.0793 29.5227C38.0803 29.4525 38.0807 29.3823 38.0807 29.312C38.0807 29.2338 38.08 29.1552 38.0788 29.0767C38.0775 28.9912 38.0755 29.0197 38.073 28.9342C38.0703 28.8426 38.0669 28.7509 38.0629 28.6595C38.0588 28.5629 38.0539 28.4664 38.0483 28.3697C38.0427 28.2694 38.0362 28.1692 38.0289 28.0687C38.0215 27.9657 38.0133 27.8626 38.0039 27.7595C37.9947 27.6547 37.9845 27.55 37.9733 27.4454C37.962 27.3402 37.9497 27.2349 37.9364 27.1299C37.9231 27.0252 37.9088 26.9207 37.8931 26.8164C37.8777 26.7132 37.8611 26.6103 37.8429 26.5077C37.8253 26.4075 37.8061 26.3644 37.7855 26.2646C37.7653 26.1682 37.7438 26.072 37.7203 25.9763C37.6978 25.8848 37.6735 25.7937 37.647 25.7032C37.6259 25.6314 37.6034 25.5597 37.5794 25.4882C37.5752 25.4768 37.5556 25.3787 37.5583 25.366C37.5656 25.3307 37.6106 25.3562 37.6599 25.3468C37.6599 25.3468 37.683 25.3425 37.696 25.3405C38.008 25.2992 38.551 25.3267 38.6735 25.3317C38.7943 25.3353 39.4115 25.3933 39.5855 25.409C39.758 25.4254 39.9678 25.465 39.9586 24.948C39.9561 24.8102 39.9556 24.7282 39.9561 24.5996C39.9563 24.5823 39.9563 24.5643 39.9563 24.5473C39.9568 24.5146 39.9569 24.4825 39.9572 24.4516C39.9578 24.4326 39.9578 24.4155 39.9582 24.3973C39.9583 24.3796 39.9586 24.3622 39.9588 24.3453C39.959 24.3295 39.9594 24.3133 39.9596 24.2986C39.9606 24.2706 39.9612 24.2437 39.9623 24.2192C39.9625 24.2114 39.9625 24.2044 39.963 24.1969C39.9632 24.1782 39.964 24.161 39.9649 24.1452C39.9651 24.1372 39.9654 24.1294 39.9659 24.1218C39.9665 24.1072 39.9674 24.0954 39.9679 24.0846C39.9684 24.0812 39.9684 24.0762 39.9688 24.073C39.9703 24.0576 39.9711 24.0407 39.9716 24.0224C39.9757 23.8964 39.9591 23.6653 39.7169 23.6038C39.438 23.535 38.9476 23.5185 38.5065 23.5564C38.445 23.5618 38.4313 23.5564 38.4503 23.5394L38.4507 23.5355C38.5458 23.4687 39.1825 23.1216 39.9109 22.4786C40.7123 21.7696 41.0947 21.3927 41.3397 20.8797C41.3397 20.8797 42.2167 19.2015 42.1727 17.7804C42.1638 17.4934 42.2106 17.5175 42.3917 17.5227C42.446 17.5243 42.6532 17.5099 42.7648 17.437C43.1369 17.3534 43.4655 16.1007 43.4655 16.1007C43.4655 16.1007 44.0242 14.1983 44.1596 13.4204C44.2802 12.7283 44.2517 12.3239 43.8236 12.1185L43.7519 12.0785C43.7197 12.0605 43.7037 12.0233 43.7135 11.988C43.7218 11.9586 43.7307 11.924 43.735 11.8982C43.9442 11.1813 44.3183 10.2738 44.2334 9.90605C44.2188 9.80038 44.1279 9.76605 44.0964 9.74494C44.0528 9.71594 43.8869 9.53349 43.8408 9.40516C43.8341 9.38649 43.8315 9.36683 43.8297 9.34716C43.7117 7.9936 43.2239 6.29538 41.7713 4.81649C41.7691 4.81505 41.6715 4.7266 41.6119 4.67305C41.4874 4.56249 41.3283 4.42516 41.1453 4.28971C40.7584 4.00449 40.4497 3.7856 39.8136 3.47238C39.7645 3.44849 39.2867 3.23405 38.5807 3.06371C38.5147 3.04627 38.448 3.02927 38.3809 3.01371C38.2771 2.9896 38.1151 2.96016 37.9305 2.93527C37.4955 2.86805 37.0125 2.83205 36.5102 2.86249V2.86271C36.4504 2.8656 36.3805 2.86916 36.362 2.86938C36.332 2.86983 36.3005 2.87138 36.2698 2.8726C36.2357 2.87394 36.2024 2.87449 36.1669 2.87594C36.0606 2.88094 35.9204 2.89683 35.7733 2.91749C35.5357 2.95138 35.2809 2.99827 35.1238 3.0346C34.9482 3.07671 34.7113 3.12549 34.4152 3.20916C34.2937 3.24416 34.1712 3.28149 34.0496 3.32038C34.0152 3.33105 33.9811 3.34149 33.9472 3.35238C33.8157 3.39516 33.6835 3.43938 33.5499 3.48683C33.4531 3.52027 33.0414 3.69616 32.9519 3.73683C32.9089 3.75649 32.8498 3.78149 32.7859 3.80705C32.4957 3.89771 32.4348 4.06327 32.4243 4.15416C32.4175 4.21271 32.4041 4.27071 32.3788 4.32394C31.9606 5.20038 30.9773 5.28527 30.5867 5.30449C30.4846 5.30927 30.3943 5.32405 30.4266 5.42194C30.5099 5.6736 30.9698 6.14283 31.2514 6.22805C31.2473 6.26816 31.0103 6.31883 30.9605 6.33194C30.8472 6.36105 30.3811 6.32071 30.358 6.32527C30.356 6.32538 30.3544 6.32571 30.3525 6.32583C29.8239 6.36971 29.6616 6.72483 29.6142 6.89305C29.5994 6.94527 29.6079 7.00149 29.6382 7.04694C29.7548 7.22227 29.8776 7.36516 29.97 7.5966C29.9711 7.59894 29.9721 7.6016 29.973 7.60416C29.997 7.66505 30.0189 7.73227 30.0381 7.80749C30.0493 7.90671 30.1298 8.01005 30.0281 8.2046C29.8478 8.54916 29.3972 8.65683 29.3298 8.99916C29.2339 9.48594 29.4042 9.80449 29.5908 10.6088C29.7189 11.1604 29.8573 11.7304 29.9563 11.9889C29.9615 12.0026 29.9534 12.0167 29.9389 12.0195C29.8993 12.0268 29.8307 12.041 29.8076 12.0487C29.5466 12.1512 29.4646 12.3538 29.4347 12.7503C29.3693 13.6267 30.0255 14.979 30.2288 16.1375C30.2973 16.5284 30.4799 17.1548 30.7837 17.4113C30.8539 17.4705 31.0006 17.5084 31.0915 17.524C31.329 17.5646 31.4322 17.4164 31.4457 17.6517C31.4486 17.7006 31.4655 17.8326 31.4677 17.9073C31.5084 18.7386 31.9603 19.5638 31.9603 19.5638Z" fill="#777777"/>
<path fill-rule="evenodd" clip-rule="evenodd" d="M26.6347 2.55859H18.2941C17.8868 2.55859 17.566 2.90126 17.5979 3.30182L19.7324 29.8245H26.6347V2.55859Z" fill="#777777"/>
<path fill-rule="evenodd" clip-rule="evenodd" d="M55.2527 2.55859H46.9121V29.8245H53.8144L55.9488 3.30182C55.9809 2.90126 55.66 2.55859 55.2527 2.55859Z" fill="#777777"/>
</svg>
