<svg width="74" height="42" viewBox="0 0 74 42" fill="none" xmlns="http://www.w3.org/2000/svg">
<path d="M26.7902 17.6916L21.7432 12.8282C20.522 11.6514 18.9246 11.015 17.3236 11C15.7198 11.015 14.1252 11.6514 12.901 12.8282L7.85704 17.6916C5.38099 20.0782 5.38099 23.9478 7.85704 26.3344L8.49366 26.9469C9.62915 28.0396 15.5331 30.5373 16.0626 30.7474V21.303C16.0626 21.0148 15.8576 20.7536 15.579 20.6456L12.4327 19.4387C12.1695 19.6549 11.8328 19.784 11.4625 19.784C10.6269 19.784 9.95358 19.1205 9.95358 18.304C9.95358 17.4874 10.63 16.824 11.4625 16.824C12.2338 16.824 12.8704 17.3944 12.9591 18.1238L16.0228 19.2976C16.4421 19.4568 16.8798 19.5408 17.3205 19.5468C17.7613 19.5408 18.202 19.4598 18.6183 19.2976L21.685 18.1238C21.7768 17.3944 22.4104 16.824 23.1817 16.824C24.0172 16.824 24.6906 17.4874 24.6906 18.304C24.6906 19.1205 24.0142 19.784 23.1817 19.784C22.8113 19.784 22.4716 19.6549 22.2114 19.4387L19.062 20.6456C18.7805 20.7536 18.5785 21.0118 18.5785 21.303V30.7474C19.108 30.5373 25.015 28.0396 26.1474 26.9469L26.784 26.3314C29.2662 23.9448 29.2662 20.0782 26.7902 17.6916ZM17.3236 17.4664C16.3167 17.4664 15.4995 16.6649 15.4995 15.6772C15.4995 14.6895 16.3167 13.888 17.3236 13.888C18.3306 13.888 19.1447 14.6895 19.1447 15.6772C19.1447 16.6649 18.3275 17.4664 17.3236 17.4664Z" fill="#777777"/>
<path d="M36.0372 13.6387H34.9844V20.075H36.0372V13.6387Z" fill="#777777"/>
<path d="M38.7689 20.0751H39.8187V14.5453L41.7594 14.5573V13.6387H36.8438V14.5573L38.7689 14.5453V20.0751Z" fill="#777777"/>
<path d="M45.9326 17.7606H47.0804C47.4293 17.7606 47.7476 17.7066 48.0292 17.5985C48.3107 17.4904 48.5495 17.3433 48.7484 17.1542C48.9473 16.9681 49.1004 16.7459 49.2075 16.4938C49.3177 16.2446 49.3697 15.9744 49.3697 15.6802C49.3697 15.386 49.3207 15.1278 49.2167 14.8757C49.1157 14.6265 48.9688 14.4103 48.779 14.2242C48.5892 14.0411 48.3566 13.894 48.0812 13.7919C47.8057 13.6838 47.4905 13.6328 47.1416 13.6328H44.8828V20.0692H45.9357L45.9326 17.7606ZM45.9296 14.5574H47.1354C47.5211 14.5574 47.8118 14.6565 48.0138 14.8606C48.2159 15.0648 48.3169 15.338 48.3169 15.6832C48.3169 16.0465 48.2067 16.3286 47.9863 16.5358C47.769 16.7429 47.466 16.845 47.0773 16.845H45.9296V14.5574Z" fill="#777777"/>
<path d="M52.7381 13.6388H51.6669L49.2734 20.0752H50.3661L50.9292 18.4901H53.4696L54.0419 20.0752H55.1346L52.7381 13.6388ZM51.2537 17.5985L51.7403 16.2326L52.1902 14.7075H52.2086L52.6585 16.2326L53.1421 17.5985H51.2537Z" fill="#777777"/>
<path d="M60.2523 16.7697C60.5124 16.4395 60.641 16.0552 60.641 15.6079C60.641 15.3318 60.592 15.0766 60.4879 14.8394C60.3869 14.6023 60.24 14.3921 60.0503 14.215C59.8605 14.0379 59.6218 13.8938 59.3371 13.7947C59.0525 13.6956 58.7342 13.6416 58.3792 13.6416H55.9766V20.078H57.0294V17.6163H58.171L59.631 20.078H60.7573L59.2117 17.4602C59.6463 17.3251 59.9921 17.0939 60.2523 16.7697ZM57.0294 16.6947V14.5572H58.3853C58.7862 14.5572 59.0862 14.6533 59.2882 14.8454C59.4902 15.0376 59.5912 15.2927 59.5912 15.6079C59.5912 15.9232 59.4871 16.2023 59.2637 16.4005C59.0464 16.5986 58.7434 16.6947 58.3547 16.6947H57.0294Z" fill="#777777"/>
<path d="M62.8185 13.6387H61.7656V20.075H62.8185V13.6387Z" fill="#777777"/>
<path d="M66.9988 20.0752L64.1555 16.6559L66.9135 13.6418H65.7045L63.1914 16.3797V16.9711L65.7504 20.0752H66.9988Z" fill="#777777"/>
<path d="M60.0234 25.4428H61.4102L60.7121 23.5725L60.0234 25.4428Z" fill="#777777"/>
<path d="M44.3757 25.0615H43.2188V26.2924H44.3757V26.2954C44.5501 26.2954 44.694 26.2353 44.8133 26.1152C44.9327 25.9952 44.9909 25.8481 44.9909 25.6769C44.9909 25.5058 44.9296 25.3617 44.8103 25.2416C44.6909 25.1216 44.5471 25.0615 44.3757 25.0615Z" fill="#777777"/>
<path d="M44.6634 24.437C44.7736 24.326 44.8286 24.1879 44.8286 24.0258C44.8286 23.8636 44.7736 23.7316 44.6603 23.6175C44.5471 23.5004 44.4124 23.4434 44.2532 23.4434H43.2188V24.6052H44.2532C44.4155 24.6052 44.5532 24.5481 44.6634 24.437Z" fill="#777777"/>
<path d="M65.9785 21.6211H35.9598C35.3935 21.6211 34.9375 22.0714 34.9375 22.6238V27.1118C34.9375 27.6672 35.3966 28.1145 35.9598 28.1145H65.9785C66.5447 28.1145 67.0008 27.6672 67.0008 27.1118V22.6238C67.0008 22.0684 66.5417 21.6211 65.9785 21.6211ZM39.0143 25.4937C39.0143 25.902 38.8796 26.2262 38.6103 26.4694C38.3409 26.7156 37.992 26.8386 37.5666 26.8386C37.1412 26.8386 36.7892 26.7156 36.5199 26.4724C36.2475 26.2292 36.1128 25.902 36.1128 25.4937V22.972H36.627V25.4727C36.627 25.7399 36.7065 25.953 36.8688 26.1091C37.031 26.2653 37.2636 26.3463 37.5666 26.3463C37.8696 26.3463 38.1022 26.2683 38.2644 26.1091C38.4266 25.953 38.5062 25.7399 38.5062 25.4727V22.972H39.0143V25.4937ZM42.1269 26.7666H39.5989V26.3283L41.4689 23.4493H39.6509V22.972H42.0841V23.4073L40.2079 26.2893H42.1269V26.7666ZM45.1662 26.4574C44.9489 26.6645 44.6826 26.7666 44.3704 26.7666H42.7023V22.969H44.251C44.554 22.969 44.8081 23.0681 45.0192 23.2662C45.2304 23.4643 45.3345 23.7105 45.3345 24.0047C45.3345 24.3439 45.1937 24.6081 44.9152 24.7973C45.0927 24.8813 45.2335 24.9984 45.3376 25.1545C45.4416 25.3106 45.4936 25.4877 45.4936 25.6919C45.4936 25.9951 45.3835 26.2502 45.1662 26.4574ZM48.4135 26.7666H46.1027V22.969H48.386V23.4463H46.6169V24.6111H48.2482V25.0824H46.6169V26.2893H48.4135V26.7666ZM51.217 26.7666L49.5459 24.9444V26.7666H49.0317V22.969H49.5459V24.6832L51.1619 22.969H51.7924L50.0846 24.8123L51.8475 26.7666H51.217ZM52.8208 26.7696H52.3066V22.972H52.8208V26.7696ZM55.8172 26.5324C55.5601 26.7396 55.2387 26.8386 54.8408 26.8386C54.4797 26.8386 54.1706 26.7546 53.9135 26.5895C53.6564 26.4244 53.4789 26.1962 53.3748 25.905L53.8186 25.6558C53.9686 26.1152 54.3144 26.3433 54.8531 26.3433C55.1194 26.3433 55.3214 26.2893 55.4621 26.1842C55.6029 26.0761 55.6733 25.935 55.6733 25.7579C55.6733 25.5808 55.6029 25.4427 55.4621 25.3496C55.3214 25.2596 55.0887 25.1635 54.7613 25.0614C54.599 25.0104 54.4766 24.9714 54.3909 24.9384C54.3052 24.9083 54.2012 24.8603 54.0726 24.7973C53.9441 24.7342 53.8492 24.6682 53.788 24.6021C53.7268 24.5361 53.6686 24.449 53.6196 24.3379C53.5707 24.2299 53.5462 24.1068 53.5462 23.9687C53.5462 23.6385 53.6656 23.3773 53.9012 23.1852C54.1369 22.993 54.4246 22.894 54.7643 22.894C55.0704 22.894 55.3367 22.969 55.5632 23.1221C55.7896 23.2752 55.961 23.4734 56.0743 23.7255L55.6427 23.9687C55.4775 23.5784 55.1836 23.3833 54.7643 23.3833C54.5531 23.3833 54.3848 23.4343 54.2563 23.5364C54.1277 23.6385 54.0634 23.7736 54.0634 23.9477C54.0634 24.1128 54.1246 24.2419 54.2471 24.3259C54.3695 24.41 54.5776 24.5031 54.8776 24.5961C54.9847 24.6291 55.0612 24.6532 55.1041 24.6652C55.1469 24.6802 55.2173 24.7042 55.3122 24.7402C55.4071 24.7762 55.4744 24.8063 55.5203 24.8273C55.5631 24.8483 55.6244 24.8783 55.7009 24.9203C55.7774 24.9594 55.8325 24.9984 55.8692 25.0344C55.9059 25.0704 55.9488 25.1155 55.9978 25.1665C56.0467 25.2175 56.0835 25.2716 56.1049 25.3256C56.1263 25.3797 56.1477 25.4427 56.163 25.5117C56.1783 25.5808 56.1875 25.6588 56.1875 25.7369C56.1875 26.0701 56.0651 26.3343 55.8172 26.5324ZM57.9811 26.7696H57.473V23.4493H56.3344V22.972H59.1257V23.4493H57.9811V26.7696ZM61.9017 26.7666L61.5865 25.914H59.845L59.5297 26.7666H58.9819L60.4265 22.969H61.008L62.4526 26.7666H61.9017ZM65.8285 26.7696H65.4123L63.4229 23.9327V26.7696H62.9087V22.972H63.3249L65.3143 25.8029V22.972H65.8285V26.7696Z" fill="#777777"/>
</svg>
