<svg width="74" height="42" viewBox="0 0 74 42" fill="none" xmlns="http://www.w3.org/2000/svg">
<g clip-path="url(#clip0_432_614)">
<path d="M69.7408 24.8258C69.2107 24.8368 68.6836 24.7366 68.1898 24.5309C67.6964 24.3252 67.2466 24.0182 66.8665 23.6277C66.0829 22.8337 65.6914 21.8703 65.6914 20.7621C65.6914 19.6538 66.0829 18.6945 66.8665 17.8964C67.391 17.3772 68.0333 17.0093 68.7317 16.8283C69.4301 16.6472 70.1607 16.659 70.8534 16.8626C71.1592 16.9496 71.4525 17.0797 71.725 17.2493C71.9338 17.3848 72.1331 17.535 72.3226 17.699C72.459 17.8124 72.5826 17.9422 72.6909 18.0856L72.8289 18.2686L71.584 19.6404L71.4919 19.5153C71.4184 19.4229 71.337 19.3381 71.2483 19.262C71.1319 19.155 71.0084 19.0575 70.8781 18.9705C70.5321 18.7599 70.1406 18.6463 69.7408 18.6407C69.4748 18.6326 69.2099 18.6819 68.9621 18.7856C68.7146 18.8892 68.4896 19.0451 68.3012 19.2437C68.1125 19.4422 67.9643 19.6793 67.8654 19.9403C67.7669 20.2014 67.7195 20.481 67.7264 20.7621C67.7195 21.0433 67.7669 21.323 67.8658 21.5843C67.9647 21.8456 68.1129 22.0829 68.3012 22.2818C68.4896 22.4807 68.7146 22.6371 68.9621 22.7414C69.2096 22.8457 69.4744 22.8958 69.7408 22.8885C70.0921 22.8897 70.4392 22.8081 70.7564 22.6497C71.0111 22.5341 71.2434 22.3705 71.4423 22.1669L71.6909 21.8868L72.877 23.2555L72.8376 23.3124C72.8114 23.3527 72.777 23.4002 72.7398 23.454C72.6265 23.5877 72.5037 23.7121 72.3726 23.8261C71.9456 24.23 71.4313 24.5171 70.875 24.6625C70.5059 24.7719 70.1243 24.8269 69.7408 24.8258Z" fill="#777777"/>
<path d="M19.9881 24.8258C19.4577 24.8365 18.9304 24.7362 18.4368 24.5305C17.9433 24.3249 17.4933 24.018 17.1127 23.6277C16.3293 22.8337 15.9375 21.8703 15.9375 20.7621C15.9375 19.6538 16.3351 18.6945 17.1127 17.8964C17.6373 17.3772 18.2796 17.0093 18.9779 16.8283C19.6763 16.6472 20.407 16.659 21.0997 16.8626C21.4056 16.9492 21.6988 17.0793 21.9714 17.2493C22.1802 17.3843 22.3798 17.5346 22.5688 17.699C22.7049 17.8125 22.8281 17.9422 22.9361 18.0856L23.0741 18.2686L21.8313 19.6404L21.7393 19.5153C21.6657 19.4229 21.5841 19.3381 21.4954 19.262C21.3791 19.1547 21.255 19.0572 21.1242 18.9705C20.7784 18.7601 20.3873 18.6466 19.9881 18.6407C19.7219 18.6326 19.4569 18.6819 19.2094 18.7856C18.9618 18.8892 18.7369 19.0451 18.5483 19.2437C18.3597 19.4422 18.2115 19.6793 18.1127 19.9403C18.0139 20.2014 17.9666 20.481 17.9736 20.7621C17.9659 21.0435 18.0127 21.3237 18.1112 21.5853C18.2097 21.847 18.3578 22.0847 18.5465 22.2838C18.7351 22.4829 18.9603 22.6393 19.2082 22.7432C19.4561 22.8472 19.7215 22.8967 19.9881 22.8885C20.3393 22.8897 20.6863 22.8081 21.0038 22.6497C21.2581 22.5341 21.4905 22.3705 21.6893 22.1669L21.9371 21.8868L23.1319 23.2555L23.0937 23.3124C23.0663 23.3527 23.033 23.4002 22.9958 23.454C22.8822 23.5874 22.7595 23.7118 22.6285 23.8261C22.4369 24.0029 22.2297 24.1597 22.0096 24.2945C21.731 24.4544 21.435 24.578 21.1281 24.6625C20.759 24.7718 20.3774 24.8268 19.994 24.8258" fill="#777777"/>
<path d="M27.4413 18.6585C27.1903 18.6528 26.941 18.7035 26.7099 18.807C26.4788 18.9105 26.2711 19.0646 26.1005 19.2591C25.746 19.6519 25.5688 20.1688 25.5688 20.7891C25.5688 21.4094 25.746 21.9262 26.0966 22.3149C26.2679 22.5092 26.4764 22.6628 26.7082 22.7656C26.94 22.8685 27.1899 22.9182 27.4413 22.9114C27.6907 22.9178 27.9384 22.8674 28.1677 22.7638C28.397 22.6601 28.6025 22.5056 28.7703 22.3108C29.1277 21.9128 29.3089 21.4 29.3089 20.785C29.327 20.2212 29.1334 19.6728 28.7703 19.2591C28.6025 19.0642 28.397 18.9098 28.1677 18.8061C27.9384 18.7025 27.6907 18.6521 27.4413 18.6585ZM27.4413 24.826C26.3297 24.826 25.3954 24.43 24.6667 23.6485C24.3092 23.2751 24.0269 22.8294 23.8365 22.3381C23.6462 21.8467 23.5518 21.3199 23.5591 20.7891C23.551 20.2579 23.6446 19.7305 23.8342 19.2384C24.0239 18.7464 24.3057 18.2998 24.6628 17.9255C25.3915 17.145 26.3277 16.748 27.4374 16.748C28.547 16.748 29.4833 17.145 30.2109 17.9255C30.5681 18.2998 30.8499 18.7463 31.0396 19.2384C31.2293 19.7305 31.3228 20.2579 31.3147 20.7891C31.323 21.3203 31.2294 21.8477 31.0398 22.3398C30.8501 22.8319 30.5682 23.2784 30.2109 23.6526C29.4823 24.4342 28.546 24.8301 27.4374 24.8301" fill="#777777"/>
<path d="M57.2523 24.826V18.8746H55.0703V17.0469H61.4029V18.8746H59.2103V24.826H57.2523Z" fill="#777777"/>
<path d="M48.5156 24.826V17.0469H53.8963V18.8746H50.4733V19.9838H53.5026V21.7464H50.4733V22.9983H53.8963V24.826H48.5156Z" fill="#777777"/>
<path d="M45.1923 24.826V20.2422L43.2767 22.6602L41.36 20.2422V24.826H39.4023V17.0468H41.3372L43.2767 19.7046L45.2306 17.0396L47.1511 17.0468V24.826H45.1923Z" fill="#777777"/>
<path d="M1 18.5872C1.00181 17.6364 1.36044 16.7251 1.99737 16.0528C2.6343 15.3805 3.49765 15.0019 4.3984 15H12.2441V16.8225H4.3984C3.95557 16.8245 3.53139 17.011 3.21827 17.3415C2.90514 17.672 2.72843 18.1198 2.72662 18.5872L2.71683 21.6461C2.681 22.0385 2.5231 22.4072 2.26779 22.6949C2.01248 22.9825 1.67413 23.1728 1.30556 23.2361L1 23.2847V18.5872Z" fill="#777777"/>
<path d="M1 26.845V25.0276H8.84569C9.28902 25.0254 9.71355 24.8382 10.0266 24.5068C10.3396 24.1754 10.5157 23.7268 10.5165 23.2588V20.3549C10.5184 19.9336 10.6621 19.5267 10.9221 19.207C11.1821 18.8873 11.5413 18.6757 11.9356 18.6099L12.2412 18.5603V23.2588C12.2391 24.2094 11.8803 25.1205 11.2434 25.7926C10.6065 26.4647 9.74334 26.8431 8.84277 26.845H1Z" fill="#777777"/>
<path d="M7.64253 23.2908V20.9348L6.6191 22.225L5.59667 20.9348V23.2908H4.24219V18.6543H5.52516L6.6191 20.145L7.71305 18.6543H8.997V23.2908H7.64253Z" fill="#777777"/>
<path d="M33.2773 24.5779C32.792 24.4571 32.3306 24.2471 31.9141 23.9577L32.5996 22.3408C32.9539 22.582 33.3391 22.7683 33.7435 22.8939C34.158 23.0299 34.5895 23.0996 35.0236 23.1007C35.8207 23.1007 36.2194 22.8901 36.2194 22.469C36.2194 22.2478 36.1058 22.0838 35.8785 21.9769C35.5239 21.8289 35.157 21.7157 34.7826 21.6389C34.3126 21.5374 33.8496 21.4024 33.3968 21.2347C33.0288 21.0915 32.7005 20.8534 32.4419 20.5421C32.1769 20.2243 32.0443 19.7974 32.0443 19.2612C32.0396 18.8053 32.1678 18.3589 32.4116 17.9824C32.6869 17.576 33.0679 17.2625 33.5085 17.0799C33.9943 16.8573 34.5907 16.7464 35.2978 16.7471C35.778 16.7472 36.2567 16.8048 36.7247 16.9187C37.1592 17.0196 37.5766 17.1897 37.9626 17.4232L37.3221 19.0513C36.6229 18.6523 35.9445 18.4528 35.287 18.4528C34.8737 18.4528 34.5727 18.5176 34.384 18.6471C34.2989 18.6972 34.2279 18.7701 34.1782 18.8586C34.1284 18.947 34.1018 19.0478 34.101 19.1506C34.101 19.3573 34.2129 19.5124 34.4369 19.6158C34.7858 19.7578 35.1465 19.8655 35.5142 19.9373C35.9863 20.0368 36.4511 20.1719 36.9049 20.3415C37.2714 20.485 37.5991 20.7206 37.8598 21.0279C38.1294 21.3422 38.2639 21.7688 38.2633 22.3077C38.2674 22.7583 38.1394 23.1991 37.897 23.57C37.6176 23.9743 37.2357 24.2872 36.7952 24.4725C36.3049 24.6978 35.7094 24.8105 35.0089 24.8105C34.4246 24.8119 33.8426 24.7337 33.2773 24.5779Z" fill="#777777"/>
<path d="M62.5742 24.827V17.0386H64.5065V24.827H62.5742Z" fill="#777777"/>
</g>
<defs>
<clipPath id="clip0_432_614">
<rect width="72" height="12" fill="white" transform="translate(1 15)"/>
</clipPath>
</defs>
</svg>
