<svg width="74" height="42" viewBox="0 0 74 42" fill="none" xmlns="http://www.w3.org/2000/svg">
<g clip-path="url(#clip0_432_497)">
<path d="M35.4379 16.2412L32.6846 25.7539H29.7462L27.7733 18.4298L25.8055 25.7539H23.1139L20.082 16.2412H22.5752L24.5564 23.263L26.3975 16.2412H29.1892L31.137 23.263L33.0298 16.2412H35.4379Z" fill="#777777"/>
<path d="M43.3069 23.6412C43.2902 22.9359 43.2685 22.2141 43.2685 21.2494V20.0238C43.2685 17.2091 42.0594 16 39.136 16C38.0737 16 36.7696 16.2792 35.8023 16.7251L35.1836 19.0327C36.0225 18.4017 37.7752 17.8203 38.8408 17.8203C40.3117 17.8203 40.9988 18.3389 40.9988 19.8784H39.623C38.5773 19.8784 37.3499 19.9693 36.3994 20.4334C35.4521 20.8976 34.7617 21.7317 34.7617 23.1573C34.7617 24.9759 36.4194 25.995 38.1104 25.995C38.9926 25.995 39.9398 25.6383 40.5919 24.9825V23.1573C40.5552 23.2151 40.5185 23.2712 40.4768 23.3257C40.0849 23.8444 39.4896 24.1781 38.7258 24.1781C37.8319 24.1781 37.1432 23.8279 37.1432 23.0102C37.1432 21.5451 38.7991 21.3601 39.9182 21.3601L41.2089 21.3304L41.2289 25.668C41.2323 25.6977 41.2373 25.7241 41.2423 25.7506H43.5137C43.4586 25.0106 43.3302 24.3631 43.3102 23.6396" fill="#777777"/>
<path d="M46.8575 16.2427H44.3477V25.7537H46.8575V16.2427Z" fill="#777777"/>
<path d="M48.082 16.2427H50.5935V20.0831H50.6302L53.6287 16.2427H56.5888L52.9933 20.5341L56.9724 25.7554H53.7871L50.6302 21.1865H50.5935V25.7537H48.082V16.2427Z" fill="#777777"/>
<path d="M59.9311 16.2427H57.418V25.7537H59.9311V16.2427Z" fill="#777777"/>
<path d="M61.0508 16.2427H63.564V20.0831H63.599L66.5991 16.2427H69.5559L65.9604 20.5341L69.9445 25.7554H66.7592L63.599 21.1865H63.564V25.7537H61.0508V16.2427Z" fill="#777777"/>
<path d="M72.9981 16.2427H70.4883V25.7537H72.9981V16.2427Z" fill="#777777"/>
<path d="M1 16.2428H3.53986V23.59H7.69403V25.7671H1V16.2428Z" fill="#777777"/>
<path d="M17.5951 18.5589C17.6484 18.6943 17.6901 18.9784 17.7235 19.1139L15.3037 19.0808C15.237 18.914 15.1586 18.7653 15.0769 18.6365C15.0002 18.5176 14.9168 18.4168 14.8317 18.3309C14.4098 17.9147 13.7844 17.7065 12.9573 17.7065C12.1301 17.7065 11.4514 18.0022 10.9627 18.5836C10.4774 19.17 10.234 19.9959 10.234 21.068C10.234 22.14 10.4908 22.9411 11.0044 23.473C11.5181 24.0082 12.1718 24.2724 12.9623 24.2724C13.7527 24.2724 14.3915 24.0428 14.8184 23.5869C15.0535 23.3408 15.1836 23.1624 15.337 22.6719L17.7001 22.6388C17.495 23.6778 17.033 24.3682 16.2009 25.0207C15.3687 25.6699 14.2997 25.9986 12.9956 25.9986C11.3846 25.9986 10.1222 25.5559 9.19833 24.6771C8.27611 23.7901 7.8125 22.5777 7.8125 21.0366C7.8125 19.3699 8.33615 18.0848 9.38678 17.1829C10.3023 16.4 11.463 16.0068 12.8689 16.0068C14.7533 16.0068 16.1325 16.5354 17.003 17.5876C17.2682 17.9097 17.465 18.2351 17.5951 18.5589Z" fill="#777777"/>
</g>
<defs>
<clipPath id="clip0_432_497">
<rect width="72" height="10" fill="white" transform="translate(1 16)"/>
</clipPath>
</defs>
</svg>
