<svg width="74" height="42" viewBox="0 0 74 42" fill="none" xmlns="http://www.w3.org/2000/svg">
<path d="M2.90334 26.0452C2.80297 26.0452 2.73271 26.01 2.69256 25.9398C2.65241 25.8695 2.63234 25.7942 2.63234 25.7139C2.64238 25.5433 2.68253 25.448 2.75279 25.4279C2.82305 25.4078 2.90836 25.3978 3.00873 25.3978C3.32992 25.3978 3.55576 25.3426 3.68624 25.2322C3.81672 25.1117 3.89702 24.9662 3.92713 24.7955C3.96728 24.6149 3.99237 24.4292 4.00241 24.2385V18.2614C3.99237 18.0707 3.96728 17.89 3.92713 17.7194C3.89702 17.5387 3.81672 17.3931 3.68624 17.2827C3.55576 17.1623 3.32992 17.1021 3.00873 17.1021C2.90836 17.1021 2.82305 17.092 2.75279 17.072C2.68253 17.0519 2.64238 16.9565 2.63234 16.7859C2.63234 16.7056 2.65241 16.6303 2.69256 16.5601C2.73271 16.4898 2.80297 16.4547 2.90334 16.4547C3.22453 16.4647 3.52565 16.4747 3.80669 16.4848C4.09776 16.4948 4.39386 16.4998 4.69497 16.4998C5.30724 16.4998 5.93456 16.4848 6.57694 16.4547C6.66727 16.4547 6.73251 16.4898 6.77266 16.5601C6.82285 16.6303 6.84794 16.7056 6.84794 16.7859C6.8379 16.9565 6.79776 17.0519 6.7275 17.072C6.65724 17.092 6.5669 17.1021 6.45649 17.1021C6.14534 17.1021 5.91951 17.1623 5.77899 17.2827C5.6485 17.3931 5.5682 17.5387 5.53809 17.7194C5.50798 17.89 5.48791 18.0707 5.47787 18.2614V24.2385C5.48791 24.4292 5.50798 24.6149 5.53809 24.7955C5.5682 24.9662 5.6485 25.1117 5.77899 25.2322C5.91951 25.3426 6.14534 25.3978 6.45649 25.3978C6.5669 25.3978 6.65724 25.4078 6.7275 25.4279C6.79776 25.448 6.8379 25.5433 6.84794 25.7139C6.84794 25.7942 6.82285 25.8695 6.77266 25.9398C6.73251 26.01 6.66727 26.0452 6.57694 26.0452C5.93456 26.0151 5.31226 26 4.71003 26C4.40891 26 4.11282 26 3.82174 26C3.53066 26.01 3.22453 26.0251 2.90334 26.0452ZM13.928 26.0753C13.8678 26.0753 13.8076 26.0602 13.7473 26.0301C13.6871 26.01 13.642 25.9749 13.6118 25.9247L10.2243 18.2614H10.1791L10.2092 24.2385C10.2193 24.4292 10.2343 24.6149 10.2544 24.7955C10.2845 24.9662 10.3648 25.1117 10.4953 25.2322C10.6258 25.3426 10.8466 25.3978 11.1578 25.3978C11.2682 25.3978 11.3585 25.4078 11.4288 25.4279C11.499 25.448 11.5392 25.5433 11.5492 25.7139C11.5492 25.7942 11.5241 25.8695 11.4739 25.9398C11.4338 26.01 11.3685 26.0452 11.2782 26.0452C11.0674 26.0351 10.8968 26.0251 10.7663 26.0151C10.6358 26.0151 10.5104 26.01 10.3899 26C10.2695 26 10.1089 26 9.90813 26C9.60702 26 9.36111 26 9.1704 26C8.98973 26.01 8.73881 26.0251 8.41762 26.0452C8.31725 26.0452 8.24699 26.01 8.20684 25.9398C8.16669 25.8695 8.14661 25.7942 8.14661 25.7139C8.15665 25.5433 8.1968 25.448 8.26706 25.4279C8.33732 25.4078 8.42264 25.3978 8.52301 25.3978C8.8442 25.3978 9.06501 25.3426 9.18546 25.2322C9.31594 25.1117 9.39624 24.9662 9.42635 24.7955C9.45646 24.6149 9.47152 24.4292 9.47152 24.2385L9.50163 18.2614C9.50163 17.9402 9.4665 17.7043 9.39624 17.5537C9.32598 17.3931 9.21557 17.2827 9.06501 17.2225C8.91446 17.1523 8.72375 17.0971 8.4929 17.0569C8.35238 17.0268 8.252 17.0017 8.19178 16.9816C8.1416 16.9616 8.1165 16.8712 8.1165 16.7106C8.1165 16.54 8.17673 16.4497 8.29717 16.4396C8.41762 16.4195 8.55814 16.4095 8.71873 16.4095C9.21055 16.4095 9.64215 16.4497 10.0135 16.53C10.3949 16.6103 10.7262 16.7658 11.0072 16.9967C11.2882 17.2175 11.5191 17.5537 11.6998 18.0054L14.2893 23.8169H14.3345L17.3005 16.4998H18.1587C18.4598 16.4998 18.7509 16.4948 19.0319 16.4848C19.323 16.4747 19.6291 16.4647 19.9503 16.4547C20.0507 16.4547 20.1209 16.4898 20.1611 16.5601C20.2012 16.6303 20.2213 16.7056 20.2213 16.7859C20.2113 16.9565 20.1711 17.0519 20.1009 17.072C20.0306 17.092 19.9453 17.1021 19.8449 17.1021C19.5338 17.1021 19.3079 17.1623 19.1674 17.2827C19.0369 17.3931 18.9566 17.5387 18.9265 17.7194C18.8964 17.89 18.8763 18.0707 18.8663 18.2614V24.2385C18.8763 24.4292 18.8964 24.6149 18.9265 24.7955C18.9566 24.9662 19.0369 25.1117 19.1674 25.2322C19.3079 25.3426 19.5338 25.3978 19.8449 25.3978C19.9453 25.3978 20.0306 25.4078 20.1009 25.4279C20.1711 25.448 20.2113 25.5433 20.2213 25.7139C20.2213 25.7942 20.2012 25.8695 20.1611 25.9398C20.1209 26.01 20.0507 26.0452 19.9503 26.0452C19.6291 26.0251 19.323 26.01 19.0319 26C18.7408 26 18.4447 26 18.1436 26C17.5615 26 16.9442 26.0151 16.2918 26.0452C16.1914 26.0452 16.1211 26.01 16.081 25.9398C16.0408 25.8695 16.0208 25.7942 16.0208 25.7139C16.0308 25.5433 16.0709 25.448 16.1412 25.4279C16.2115 25.4078 16.2968 25.3978 16.3971 25.3978C16.7183 25.3978 16.9442 25.3426 17.0747 25.2322C17.2051 25.1117 17.2854 24.9662 17.3155 24.7955C17.3557 24.6149 17.3758 24.4292 17.3758 24.2385V18.2614H17.3306L14.2291 25.9247C14.209 25.9749 14.1689 26.01 14.1087 26.0301C14.0485 26.0602 13.9882 26.0753 13.928 26.0753ZM21.7671 26.0452C21.6768 26.0452 21.6065 26.01 21.5563 25.9398C21.5162 25.8695 21.4961 25.7942 21.4961 25.7139C21.5061 25.5433 21.5463 25.448 21.6165 25.4279C21.6968 25.4078 21.7872 25.3978 21.8875 25.3978C22.2087 25.3978 22.4346 25.3426 22.5651 25.2322C22.6955 25.1117 22.7758 24.9662 22.8059 24.7955C22.8461 24.6149 22.8662 24.4292 22.8662 24.2385V18.2614C22.8662 18.0707 22.8461 17.89 22.8059 17.7194C22.7758 17.5387 22.6955 17.3931 22.5651 17.2827C22.4346 17.1623 22.2087 17.1021 21.8875 17.1021C21.7872 17.1021 21.6968 17.092 21.6165 17.072C21.5463 17.0519 21.5061 16.9565 21.4961 16.7859C21.4961 16.7056 21.5162 16.6303 21.5563 16.5601C21.6065 16.4898 21.6768 16.4547 21.7671 16.4547C22.0883 16.4647 22.3944 16.4747 22.6855 16.4848C22.9766 16.4948 23.2727 16.4998 23.5738 16.4998H25.8321C26.0228 16.4998 26.2688 16.5149 26.5699 16.545C26.881 16.5751 27.2072 16.6353 27.5485 16.7257C27.8998 16.816 28.231 16.9616 28.5422 17.1623C28.8533 17.363 29.1042 17.629 29.295 17.9602C29.4957 18.2915 29.5961 18.708 29.5961 19.2099C29.5961 19.6816 29.4857 20.1082 29.2648 20.4896C29.0541 20.871 28.768 21.1972 28.4067 21.4682C28.0554 21.7392 27.6539 21.95 27.2022 22.1006C26.7606 22.2411 26.3089 22.3113 25.8472 22.3113C25.6264 22.3113 25.3855 22.2963 25.1245 22.2662C24.8636 22.2361 24.6026 22.1708 24.3416 22.0705V24.2385C24.3517 24.4292 24.3717 24.6149 24.4018 24.7955C24.432 24.9662 24.5123 25.1117 24.6427 25.2322C24.7833 25.3426 25.0091 25.3978 25.3202 25.3978C25.4307 25.3978 25.521 25.4078 25.5912 25.4279C25.6615 25.448 25.7017 25.5433 25.7117 25.7139C25.7117 25.7942 25.6866 25.8695 25.6364 25.9398C25.5963 26.01 25.531 26.0452 25.4407 26.0452C24.7983 26.0151 24.171 26 23.5587 26C23.2576 26 22.9615 26 22.6704 26C22.3894 26.01 22.0883 26.0251 21.7671 26.0452ZM25.4106 21.6338C25.6414 21.6338 25.8974 21.5987 26.1784 21.5285C26.4695 21.4482 26.7455 21.3227 27.0065 21.1521C27.2775 20.9714 27.4983 20.7305 27.6689 20.4294C27.8396 20.1182 27.9249 19.7268 27.9249 19.255C27.9249 18.7431 27.8245 18.3417 27.6238 18.0506C27.423 17.7495 27.1721 17.5286 26.871 17.3881C26.5799 17.2476 26.2888 17.1573 25.9978 17.1171C25.7067 17.077 25.4708 17.0569 25.2901 17.0569C25.0492 17.0569 24.8585 17.082 24.718 17.1322C24.5775 17.1824 24.4771 17.2928 24.4169 17.4634C24.3667 17.624 24.3416 17.8749 24.3416 18.2162V21.4682C24.442 21.5084 24.5875 21.5485 24.7782 21.5887C24.9689 21.6188 25.1797 21.6338 25.4106 21.6338ZM30.7505 26.0452C30.6602 26.0452 30.595 26.01 30.5548 25.9398C30.5147 25.8695 30.4946 25.7942 30.4946 25.7139C30.5046 25.5433 30.5448 25.448 30.615 25.4279C30.6853 25.4078 30.7706 25.3978 30.871 25.3978C31.1922 25.3978 31.418 25.3426 31.5485 25.2322C31.679 25.1117 31.7593 24.9662 31.7894 24.7955C31.8295 24.6149 31.8496 24.4292 31.8496 24.2385V18.2614C31.8496 18.0707 31.8295 17.89 31.7894 17.7194C31.7593 17.5387 31.679 17.3931 31.5485 17.2827C31.418 17.1623 31.1922 17.1021 30.871 17.1021C30.7706 17.1021 30.6853 17.092 30.615 17.072C30.5448 17.0519 30.5046 16.9565 30.4946 16.7859C30.4946 16.7056 30.5147 16.6303 30.5548 16.5601C30.595 16.4898 30.6602 16.4547 30.7505 16.4547C31.0818 16.4647 31.3879 16.4747 31.6689 16.4848C31.95 16.4948 32.2411 16.4998 32.5422 16.4998H37.2697C37.3801 16.4998 37.4704 16.5249 37.5407 16.5751C37.621 16.6253 37.6611 16.7207 37.6611 16.8612L37.7063 18.969C37.7063 19.0694 37.6561 19.1446 37.5557 19.1948C37.4654 19.245 37.3801 19.2701 37.2998 19.2701C37.1894 19.2701 37.089 19.25 36.9987 19.2099C36.9083 19.1597 36.8531 19.0894 36.833 18.9991C36.7628 18.5474 36.6775 18.1861 36.5771 17.9151C36.4868 17.634 36.3462 17.4333 36.1555 17.3129C35.9749 17.1824 35.7089 17.1121 35.3576 17.1021H33.3401V20.9262H36.0652C36.1455 20.9363 36.2007 20.9764 36.2308 21.0467C36.271 21.1169 36.291 21.1922 36.291 21.2725C36.291 21.3428 36.271 21.413 36.2308 21.4833C36.2007 21.5435 36.1455 21.5736 36.0652 21.5736H33.3401V24.4191C33.3502 24.5496 33.3702 24.6952 33.4003 24.8558C33.4305 25.0063 33.5158 25.1368 33.6563 25.2472C33.8068 25.3576 34.0528 25.4078 34.394 25.3978H35.7791C36.1304 25.3877 36.3964 25.3325 36.5771 25.2322C36.7678 25.1217 36.9184 24.9411 37.0288 24.6902C37.1392 24.4392 37.2596 24.0929 37.3901 23.6513C37.4303 23.5509 37.4955 23.4857 37.5858 23.4556C37.6862 23.4255 37.7916 23.4205 37.902 23.4405C37.9823 23.4506 38.0626 23.4857 38.1429 23.5459C38.2332 23.6061 38.2734 23.6864 38.2633 23.7868L37.9622 25.6838C37.9321 25.8243 37.8819 25.9147 37.8117 25.9548C37.7514 25.9849 37.6561 26 37.5256 26H32.5572C32.2561 26 31.96 26 31.6689 26C31.3879 26.01 31.0818 26.0251 30.7505 26.0452ZM39.7049 26.0452C39.6046 26.0452 39.5343 26.01 39.4941 25.9398C39.454 25.8695 39.4339 25.7942 39.4339 25.7139C39.444 25.5433 39.4841 25.448 39.5544 25.4279C39.6246 25.4078 39.7099 25.3978 39.8103 25.3978C40.1315 25.3978 40.3573 25.3426 40.4878 25.2322C40.6183 25.1117 40.6986 24.9662 40.7287 24.7955C40.7689 24.6149 40.7889 24.4292 40.7889 24.2385V18.2764C40.7889 18.0857 40.7689 17.9 40.7287 17.7194C40.6986 17.5387 40.6183 17.3931 40.4878 17.2827C40.3573 17.1623 40.1315 17.1021 39.8103 17.1021C39.7099 17.1021 39.6246 17.092 39.5544 17.072C39.4841 17.0519 39.444 16.9565 39.4339 16.7859C39.4339 16.7056 39.454 16.6303 39.4941 16.5601C39.5343 16.4898 39.6046 16.4547 39.7049 16.4547C40.0261 16.4647 40.3272 16.4747 40.6083 16.4848C40.8993 16.4948 41.1954 16.4998 41.4966 16.4998H44.0861C44.8991 16.5099 45.5566 16.6353 46.0584 16.8762C46.5703 17.1171 46.9417 17.4233 47.1726 17.7946C47.4034 18.166 47.5188 18.5524 47.5188 18.9539C47.5188 19.4859 47.303 19.9878 46.8714 20.4595C46.4499 20.9312 45.8527 21.2675 45.0798 21.4682C45.4612 22.0705 45.8477 22.6777 46.2391 23.29C46.6306 23.8922 47.0822 24.4593 47.5941 24.9913C47.7346 25.1017 47.8701 25.192 48.0006 25.2623C48.1411 25.3325 48.3068 25.3777 48.4975 25.3978C48.5778 25.4078 48.6581 25.4229 48.7384 25.4429C48.8187 25.453 48.8638 25.5433 48.8739 25.7139C48.8739 25.7942 48.8538 25.8695 48.8136 25.9398C48.7735 26.01 48.7032 26.0452 48.6029 26.0452C48.3921 26.0351 48.2214 26.0251 48.091 26.0151C47.9705 26.0151 47.8501 26.01 47.7296 26C47.6092 26 47.4486 26 47.2478 26C46.8363 25.9197 46.485 25.7742 46.1939 25.5634C45.9129 25.3526 45.6369 25.0615 45.3659 24.6902C45.0848 24.3087 44.8239 23.9223 44.583 23.5309C44.3421 23.1394 44.1062 22.758 43.8754 22.3866C43.7449 22.1758 43.6094 22.0253 43.4689 21.935C43.3384 21.8346 43.0874 21.7844 42.7161 21.7844H42.2795V24.2385C42.2895 24.4292 42.3096 24.6149 42.3397 24.7955C42.3698 24.9662 42.4501 25.1117 42.5806 25.2322C42.7211 25.3426 42.9469 25.3978 43.2581 25.3978C43.3584 25.3978 43.4438 25.4078 43.514 25.4279C43.5843 25.448 43.6244 25.5433 43.6345 25.7139C43.6345 25.7942 43.6144 25.8695 43.5742 25.9398C43.5341 26.01 43.4638 26.0452 43.3635 26.0452C42.7211 26.0151 42.0938 26 41.4815 26C41.1804 26 40.8893 26 40.6083 26C40.3272 26.01 40.0261 26.0251 39.7049 26.0452ZM42.2795 21.1972H43.6044C44.1162 21.1972 44.5177 21.127 44.8088 20.9864C45.1099 20.8459 45.3358 20.6653 45.4863 20.4444C45.6369 20.2236 45.7322 19.9928 45.7724 19.7519C45.8226 19.511 45.8477 19.2902 45.8477 19.0894C45.8477 18.7582 45.7724 18.437 45.6218 18.1259C45.4813 17.8147 45.2254 17.5588 44.854 17.358C44.4926 17.1573 43.9858 17.0569 43.3334 17.0569C42.9018 17.0569 42.6157 17.1422 42.4752 17.3129C42.3447 17.4734 42.2795 17.8047 42.2795 18.3065V21.1972ZM49.7907 26.0452C49.6904 26.0452 49.6201 26.01 49.5799 25.9398C49.5398 25.8695 49.5197 25.7942 49.5197 25.7139C49.5298 25.5433 49.5699 25.448 49.6402 25.4279C49.7104 25.4078 49.7957 25.3978 49.8961 25.3978C50.2173 25.3978 50.4431 25.3426 50.5736 25.2322C50.7041 25.1117 50.7844 24.9662 50.8145 24.7955C50.8547 24.6149 50.8798 24.4292 50.8898 24.2385V18.2614C50.8798 18.0707 50.8547 17.89 50.8145 17.7194C50.7844 17.5387 50.7041 17.3931 50.5736 17.2827C50.4431 17.1623 50.2173 17.1021 49.8961 17.1021C49.7957 17.1021 49.7104 17.092 49.6402 17.072C49.5699 17.0519 49.5298 16.9565 49.5197 16.7859C49.5197 16.7056 49.5398 16.6303 49.5799 16.5601C49.6201 16.4898 49.6904 16.4547 49.7907 16.4547C50.1119 16.4647 50.413 16.4747 50.6941 16.4848C50.9851 16.4948 51.2812 16.4998 51.5824 16.4998C52.1946 16.4998 52.8219 16.4848 53.4643 16.4547C53.5547 16.4547 53.6199 16.4898 53.66 16.5601C53.7102 16.6303 53.7353 16.7056 53.7353 16.7859C53.7253 16.9565 53.6851 17.0519 53.6149 17.072C53.5446 17.092 53.4543 17.1021 53.3439 17.1021C53.0327 17.1021 52.8069 17.1623 52.6664 17.2827C52.5359 17.3931 52.4556 17.5387 52.4255 17.7194C52.3954 17.89 52.3753 18.0707 52.3653 18.2614V24.2385C52.3753 24.4292 52.3954 24.6149 52.4255 24.7955C52.4556 24.9662 52.5359 25.1117 52.6664 25.2322C52.8069 25.3426 53.0327 25.3978 53.3439 25.3978C53.4543 25.3978 53.5446 25.4078 53.6149 25.4279C53.6851 25.448 53.7253 25.5433 53.7353 25.7139C53.7353 25.7942 53.7102 25.8695 53.66 25.9398C53.6199 26.01 53.5547 26.0452 53.4643 26.0452C52.8219 26.0151 52.1996 26 51.5974 26C51.2963 26 51.0002 26 50.7091 26C50.418 26.01 50.1119 26.0251 49.7907 26.0452ZM54.4619 26.0452C54.3615 26.0452 54.2912 26.01 54.2511 25.9398C54.2109 25.8695 54.1909 25.7942 54.1909 25.7139C54.2009 25.5433 54.2411 25.448 54.3113 25.4279C54.3816 25.4078 54.4669 25.3978 54.5673 25.3978C54.8383 25.3978 55.044 25.3426 55.1846 25.2322C55.3251 25.1217 55.4355 24.9762 55.5158 24.7955C55.6061 24.6149 55.6914 24.4292 55.7717 24.2385L58.4065 18.0054C58.5068 17.7645 58.5269 17.5839 58.4667 17.4634C58.4065 17.3329 58.3061 17.2426 58.1656 17.1924C58.0251 17.1322 57.8695 17.087 57.6989 17.0569C57.5483 17.0268 57.4479 17.0017 57.3977 16.9816C57.3476 16.9515 57.3225 16.8612 57.3225 16.7106C57.3225 16.54 57.3827 16.4497 57.5031 16.4396C57.6236 16.4195 57.7641 16.4095 57.9247 16.4095C58.3362 16.4095 58.6875 16.4497 58.9786 16.53C59.2697 16.6103 59.5206 16.7658 59.7314 16.9967C59.9422 17.2175 60.1379 17.5537 60.3186 18.0054L62.8479 24.2385C62.9182 24.4091 62.9935 24.5848 63.0737 24.7654C63.154 24.9461 63.2594 25.0967 63.3899 25.2171C63.5304 25.3275 63.7061 25.3877 63.9169 25.3978C64.0273 25.3978 64.1126 25.4078 64.1728 25.4279C64.2431 25.448 64.2832 25.5433 64.2933 25.7139C64.2933 25.7942 64.2682 25.8695 64.218 25.9398C64.1778 26.01 64.1126 26.0452 64.0223 26.0452C63.7011 26.0251 63.42 26.01 63.1791 26C62.9382 26 62.6672 26 62.3661 26C61.7739 26 61.1516 26.0151 60.4992 26.0452C60.3988 26.0452 60.3286 26.01 60.2884 25.9398C60.2483 25.8695 60.2282 25.7942 60.2282 25.7139C60.2383 25.5433 60.2784 25.448 60.3487 25.4279C60.4189 25.4078 60.5042 25.3978 60.6046 25.3978C61.0964 25.3978 61.3624 25.3074 61.4026 25.1268C61.4527 24.9461 61.4076 24.65 61.2671 24.2385L60.7552 22.9889H57.0364C56.8858 23.3703 56.7754 23.6463 56.7052 23.8169C56.645 23.9876 56.6048 24.098 56.5847 24.1481C56.5747 24.1983 56.5647 24.2284 56.5546 24.2385C56.4442 24.5797 56.384 24.8357 56.374 25.0063C56.374 25.1669 56.4543 25.2723 56.6148 25.3225C56.7855 25.3727 57.0665 25.3978 57.458 25.3978C57.5684 25.3978 57.6537 25.4078 57.7139 25.4279C57.7842 25.448 57.8243 25.5433 57.8344 25.7139C57.8344 25.7942 57.8093 25.8695 57.7591 25.9398C57.7189 26.01 57.6537 26.0452 57.5634 26.0452C57.2422 26.0251 56.9611 26.01 56.7202 26C56.4894 26 56.2234 26 55.9223 26C55.7215 26 55.5509 26 55.4104 26C55.2799 26.01 55.1444 26.0151 55.0039 26.0151C54.8634 26.0251 54.6827 26.0351 54.4619 26.0452ZM57.3225 22.3415H60.4842L58.9635 18.4721H58.9184L57.3225 22.3415ZM64.5083 26.0452C64.4179 26.0452 64.3527 26.01 64.3126 25.9398C64.2724 25.8695 64.2523 25.7942 64.2523 25.7139C64.2624 25.5433 64.3025 25.448 64.3728 25.4279C64.443 25.4078 64.5284 25.3978 64.6287 25.3978C64.9499 25.3978 65.1757 25.3426 65.3062 25.2322C65.4367 25.1117 65.517 24.9662 65.5471 24.7955C65.5873 24.6149 65.6073 24.4292 65.6073 24.2385V18.2614C65.6073 18.0707 65.5873 17.89 65.5471 17.7194C65.517 17.5387 65.4367 17.3931 65.3062 17.2827C65.1757 17.1623 64.9499 17.1021 64.6287 17.1021C64.5284 17.1021 64.443 17.092 64.3728 17.072C64.3025 17.0519 64.2624 16.9565 64.2523 16.7859C64.2523 16.7056 64.2724 16.6303 64.3126 16.5601C64.3527 16.4898 64.4179 16.4547 64.5083 16.4547C64.8395 16.4647 65.1456 16.4747 65.4267 16.4848C65.7077 16.4948 65.9988 16.4998 66.2999 16.4998C66.9122 16.4998 67.5395 16.4848 68.1819 16.4547C68.2822 16.4547 68.3525 16.4898 68.3927 16.5601C68.4328 16.6303 68.4529 16.7056 68.4529 16.7859C68.4428 16.9565 68.4027 17.0519 68.3324 17.072C68.2622 17.092 68.1769 17.1021 68.0765 17.1021C67.7653 17.1021 67.5395 17.1623 67.399 17.2827C67.2685 17.3931 67.1882 17.5387 67.1581 17.7194C67.128 17.89 67.1079 18.0707 67.0979 18.2614V24.4643C67.1079 24.5948 67.128 24.7353 67.1581 24.8859C67.1882 25.0364 67.2735 25.1619 67.414 25.2623C67.5646 25.3626 67.8105 25.4078 68.1518 25.3978H69.5068C69.8581 25.3877 70.1241 25.3325 70.3047 25.2322C70.4954 25.1217 70.646 24.9411 70.7564 24.6902C70.8668 24.4392 70.9873 24.0929 71.1177 23.6513C71.1579 23.5509 71.2231 23.4857 71.3135 23.4556C71.4138 23.4255 71.5192 23.4205 71.6296 23.4405C71.7099 23.4506 71.7902 23.4857 71.8705 23.5459C71.9609 23.6061 72.001 23.6864 71.991 23.7868L71.6899 25.6838C71.6597 25.8243 71.6096 25.9147 71.5393 25.9548C71.4791 25.9849 71.3837 26 71.2532 26H66.315C66.0138 26 65.7178 26 65.4267 26C65.1456 26.01 64.8395 26.0251 64.5083 26.0452Z" fill="#777777"/>
</svg>
