<svg width="74" height="42" viewBox="0 0 74 42" fill="none" xmlns="http://www.w3.org/2000/svg">
<g clip-path="url(#clip0_432_561)">
<path fill-rule="evenodd" clip-rule="evenodd" d="M57.5842 15.292L57.5803 15.2901C58.0468 14.7807 58.5636 14.2398 59.1045 13.7194C58.4463 13.3985 57.8384 13.0348 57.2503 12.683C55.976 11.9207 54.7947 11.214 53.3966 11.1194C52.3122 11.0523 51.2266 11.2317 50.2214 11.6443C50.2214 11.6443 49.6779 10.9065 48.0044 11.1456C46.3308 11.3847 41.1758 13.5382 36.7828 20.561C32.8119 26.9096 34.6778 30.5499 37.5299 30.5106C40.6211 30.4677 43.5609 27.031 44.5583 24.1976C45.5557 21.3642 44.379 20.5965 43.475 20.6693C42.4758 20.7534 40.7107 21.6425 39.7395 23.6074C38.7682 25.5723 38.7682 26.7826 38.7682 26.7826C39.1652 26.3661 39.5969 25.9843 40.0589 25.6414C40.4746 25.3167 40.9327 25.0503 41.4205 24.8494C41.5346 24.3417 41.7044 23.8482 41.9266 23.3776C42.2778 22.6455 42.8344 21.8834 43.5217 21.7116C44.9169 21.3623 44.2483 23.9062 43.2229 25.5648C42.6719 26.4501 40.7163 29.0108 39.0372 29.0108C37.3581 29.0108 37.0368 27.3933 37.3898 25.8748C37.7428 24.3563 38.234 22.4363 40.6883 18.9398C43.1426 15.4433 45.7966 13.3701 47.3338 12.5016C48.9121 11.6069 49.5546 11.9991 49.5546 11.9991C49.5546 11.9991 47.5393 13.2356 46.3925 14.7298C45.298 16.1568 44.6424 17.7612 45.1504 18.5476C45.636 19.2965 47.3413 19.3115 49.2221 16.5995C51.0787 13.9211 50.6118 12.3279 50.6118 12.3279C50.734 12.2881 50.8588 12.2569 50.9853 12.2345C51.8912 12.1131 52.6159 12.354 53.7365 12.9293C54.2831 13.21 54.8195 13.5694 55.3924 13.9534C56.0501 14.394 56.756 14.8671 57.5803 15.2901L57.5786 15.292H57.5842ZM49.9767 12.5352C49.9767 12.5352 48.7813 13.0115 47.3917 14.5431C46.0021 16.0746 45.1915 17.7986 45.791 18.2543C46.0208 18.428 46.5512 18.4579 47.515 17.5913C48.4036 16.8195 49.1011 15.8521 49.5527 14.7653C50.1392 13.3354 49.9967 12.6343 49.9785 12.5448C49.9774 12.5393 49.9767 12.5362 49.9767 12.5352Z" fill="#777777"/>
<path d="M60.0045 16.1597L60.0037 16.1606C63.2685 16.8069 66.1281 14.7841 67.6485 13.062C68.2033 12.4457 68.6806 11.7639 69.0698 11.0317C68.3774 11.7526 67.6025 12.3895 66.7613 12.9294L66.7519 12.9275C65.3362 13.8353 63.3769 14.6589 61.4942 14.4778C61.0179 14.9709 60.508 15.5405 60 16.1588L60.0045 16.1597Z" fill="#777777"/>
<path fill-rule="evenodd" clip-rule="evenodd" d="M61.1564 27.7632C60.8856 28.1965 60.5774 29.0276 61.4721 28.5103C62.561 27.8808 64.1131 25.5218 64.1131 25.5218H64.8154C64.1754 26.5077 63.4624 27.4442 62.6824 28.3235C61.5786 29.5469 60.2319 30.6582 59.2831 30.548C58.1755 30.4191 58.5229 28.9641 58.5229 28.9641C58.5229 28.9641 56.9315 30.6451 55.8389 30.5312C54.3577 30.3668 54.8097 28.5364 54.8097 28.5364C54.8097 28.5364 53.1287 30.591 51.9931 30.5293C50.2038 30.4266 50.654 28.2432 51.1508 26.7153C51.4179 25.8954 51.6644 25.251 51.6644 25.251C51.6644 25.251 51.487 25.2977 51.1041 25.3537C50.9042 25.3817 50.5438 25.4023 50.5438 25.4023C50.1331 26.1265 49.6855 26.829 49.2027 27.5073C48.6069 28.2992 46.0761 31.0205 44.5818 30.4752C43.2034 29.9709 43.6591 27.8603 44.4623 26.1793C45.6334 23.7344 48.9281 20.2211 50.8277 20.6824C52.7982 21.1606 50.8725 24.7542 50.8725 24.7542C50.8725 24.7542 50.8725 24.7672 50.893 24.7766C51.0174 24.799 51.1454 24.792 51.2666 24.756C51.5129 24.7062 51.7541 24.6343 51.9875 24.5412C51.9875 24.5412 53.9674 20.3948 56.1545 17.6828C58.3417 14.9708 62.7104 10.3051 64.4232 11.4351C64.8415 11.7134 64.651 12.6697 64.087 13.8314C63.8328 13.9118 63.5747 13.9791 63.3137 14.0331C63.6265 13.5144 63.863 12.9533 64.016 12.3671C64.2737 10.9663 61.0014 13.9192 58.663 17.0981C57.2566 19.0132 56.0073 21.0389 54.9274 23.1554C55.3499 22.8986 55.7532 22.6114 56.134 22.2962C57.1772 21.4311 58.1688 20.5055 59.1038 19.5244C60.0008 18.6002 60.8422 17.6235 61.6234 16.5995C61.8736 16.5877 62.123 16.5621 62.3705 16.5229C61.5156 17.6822 60.584 18.7829 59.5819 19.8176C59.4993 19.9002 59.4162 19.9834 59.3326 20.0671C58.4707 20.9303 57.5618 21.8405 56.7616 22.5147C55.9803 23.183 55.1561 23.7995 54.2942 24.3601C54.2942 24.3601 52.2397 28.4841 53.3604 28.7493C54.0141 28.9062 55.3066 26.9171 55.3066 26.9171C55.3066 26.9171 56.9876 24.3451 58.0074 23.1815C59.3858 21.6126 60.5793 20.7085 61.7653 20.6843C62.4601 20.6712 62.8692 21.4127 62.8692 21.4127L63.196 20.9065H65.2076C65.2076 20.9065 61.4515 27.2794 61.1508 27.7594L61.1564 27.7632ZM62.4172 22.1262C62.4417 22.0829 62.4617 22.0372 62.4769 21.9899C62.4674 21.9152 62.4325 21.8461 62.3781 21.7941C62.3237 21.7421 62.2531 21.7103 62.1781 21.7041C61.8681 21.6892 61.4422 21.7489 60.3309 22.9798C59.4074 23.999 58.6132 25.1282 57.9663 26.3418C57.3294 27.5054 57.0716 28.372 57.4377 28.5962C57.5564 28.6572 57.6938 28.6712 57.8225 28.6354C58.0709 28.5756 58.351 28.344 58.7788 27.8491C58.9388 27.6636 59.1132 27.4158 59.3126 27.1326L59.3145 27.1299C59.3635 27.0604 59.414 26.9886 59.4661 26.9152C60.202 25.9141 62.0511 22.7613 62.4172 22.1244V22.1262ZM50.8631 23.4635C51.0499 22.9779 51.2853 22.0254 50.794 21.6518C50.2655 21.254 48.9263 22.186 48.9132 23.146C48.9001 24.1061 49.8602 24.5674 50.0899 24.629C50.2206 24.6645 50.2655 24.6589 50.329 24.5543C50.5321 24.2048 50.7106 23.8416 50.8631 23.4673V23.4635ZM49.8452 25.2473C49.5118 25.0931 49.2008 24.8946 48.9207 24.6571C48.6386 24.4215 48.4024 24.1359 48.224 23.8147C48.2085 23.7884 48.1931 23.8056 48.1766 23.8239C48.1731 23.8278 48.1696 23.8317 48.1661 23.8352C48.145 23.8563 48.0613 23.94 47.3443 24.9895C46.6233 26.0448 45.5251 28.2189 46.5224 28.5906C47.1612 28.8278 48.224 27.709 48.8067 26.9675C49.2012 26.4503 49.5588 25.9061 49.877 25.3388C49.9069 25.2753 49.877 25.2603 49.8452 25.2473Z" fill="#777777"/>
<path d="M38.5213 16.0559H36.6087L35.5273 17.8041H37.4399L38.5213 16.0559Z" fill="#777777"/>
<path fill-rule="evenodd" clip-rule="evenodd" d="M34.0283 20.8393H34.7231C34.7231 20.8393 31.2117 25.9141 29.2263 25.6825C28.1187 25.5536 28.4474 24.1882 28.4474 24.1882C28.4474 24.1882 26.8878 26.0093 25.459 25.6451C24.1627 25.3126 24.9995 23.1591 24.9995 23.1591C24.9774 23.168 24.8959 23.2463 24.7667 23.3705C24.032 24.0765 21.7537 26.2657 20.0779 25.6208C18.0234 24.8252 19.0861 22.1785 19.4784 21.3828C19.8108 20.7123 20.1788 20.0586 20.1788 20.0586C20.1788 20.0586 19.8631 20.1483 19.6651 20.1931C19.4672 20.2379 19.1702 20.2958 19.1702 20.2958C19.1702 20.2958 18.1952 21.8815 17.5994 22.6716C17.0036 23.4617 14.469 26.1812 12.9766 25.6395C11.4843 25.0978 11.856 23.0097 12.6927 21.3436C14.0525 18.654 17.28 15.3481 19.2299 15.8449C21.1799 16.3417 19.568 19.53 19.568 19.53C19.568 19.53 19.9584 19.5805 20.8941 18.9417C21.2806 18.6787 21.7019 18.2884 22.1515 17.8721C23.2727 16.8335 24.5692 15.6327 25.9371 15.8393C26.8411 15.9757 27.6835 16.9039 26.5311 18.6652C26.1575 19.2256 25.543 19.7373 25.0686 19.2368C24.7735 18.9286 25.0312 18.3589 25.3413 17.9704C25.4625 17.8121 25.6208 17.686 25.8022 17.6033C25.9836 17.5206 26.1826 17.4837 26.3816 17.496C26.3816 17.496 26.6992 16.7657 25.8904 16.7807C25.2348 16.7937 23.5762 18.3197 22.6405 19.8625C21.7925 21.2839 20.4944 23.697 21.7925 24.2237C22.9898 24.7075 25.2684 22.0029 26.3237 20.5853C27.379 19.1677 29.781 15.9551 31.7982 15.8262C32.493 15.7814 32.9058 16.4146 32.9058 16.4146L33.1392 16.041H35.1527C35.1527 16.041 31.3611 22.3896 31.0641 22.8659C30.8307 23.2394 30.5206 24.0855 31.3798 23.613C32.239 23.1404 34.0283 20.8393 34.0283 20.8393ZM29.4616 22.1038C30.2759 20.9832 32.521 17.0795 32.521 17.0795C32.5114 17.0049 32.4765 16.9358 32.4221 16.8838C32.3677 16.8317 32.2972 16.8 32.2222 16.7937C31.9121 16.7788 31.3966 16.8834 30.3544 18.1722C29.3122 19.4609 28.5352 20.4863 27.9562 21.5528C27.3174 22.7164 27.0391 23.5383 27.4052 23.7605C27.5242 23.8207 27.6612 23.8346 27.7899 23.7997C28.029 23.74 28.3409 23.5009 28.7687 23.0078C28.9704 22.7781 29.1982 22.468 29.4653 22.1038H29.4616ZM19.2019 16.818C18.6733 16.4183 17.3342 17.3522 17.3211 18.3122C17.308 19.2723 18.5351 19.5711 18.6939 19.5786C18.7293 19.5879 18.7668 19.5853 18.8006 19.5711C18.8344 19.5569 18.8625 19.532 18.8807 19.5001C19.0243 19.2187 19.1534 18.9301 19.2673 18.6354C19.4541 18.1497 19.6875 17.1972 19.1963 16.8236L19.2019 16.818ZM18.3988 20.1856C18.0344 20.0716 17.686 19.9116 17.3622 19.7093C17.0463 19.5053 16.7889 19.2228 16.6151 18.8894C16.5988 18.8617 16.5811 18.8823 16.5644 18.9016C16.562 18.9045 16.5596 18.9073 16.5572 18.9099C16.5385 18.9305 16.4302 19.0724 15.7111 20.1277C14.992 21.183 13.9255 23.3421 14.9247 23.712C15.5635 23.9492 16.6375 22.8266 17.2184 22.0851C17.6561 21.5064 18.0608 20.9034 18.4305 20.279C18.4548 20.2155 18.4305 20.2006 18.395 20.1893L18.3988 20.1856Z" fill="#777777"/>
<path d="M32.9329 31C31.4475 29.972 29.669 29.4529 27.8638 29.5207C27.3752 29.5339 26.8965 29.6622 26.4668 29.8953C26.0371 30.1283 25.6685 30.4594 25.3909 30.8618C24.6214 29.5189 23.101 28.6952 20.7495 28.7138C18.7585 28.7364 16.7753 29.2283 14.9091 29.6911C13.2144 30.1114 11.6162 30.5078 10.1966 30.5069C7.33137 30.5069 5.24507 28.7064 5.31417 25.5106C5.43747 19.9073 10.1704 14.8643 13.7192 12.5894C15.7532 11.2819 17.4547 10.8972 18.5754 11.0223C19.3879 11.112 20.3647 12.0515 19.7483 13.4355C18.8425 15.462 17.5911 15.292 17.6378 14.3245C17.6572 14.0721 17.7363 13.828 17.8684 13.6121C18.0006 13.3961 18.1821 13.2146 18.3979 13.0825C18.6271 12.9577 18.8842 12.8935 19.1451 12.8957C19.3318 12.7444 19.4607 11.6368 18.0038 12.001C16.547 12.3652 14.7726 13.7978 13.0991 15.6469C11.4256 17.496 8.82187 20.9887 8.17747 24.6571C7.87677 26.3586 8.07657 29.461 12.0998 29.4273C13.651 29.4146 15.5382 28.944 17.5704 28.4373C20.0139 27.8281 22.6668 27.1666 25.1966 27.186C26.8103 27.1792 28.3951 27.6132 29.7801 28.4412C30.9793 29.1883 32.4156 30.2566 32.9255 30.9925L32.9329 31Z" fill="#777777"/>
</g>
<defs>
<clipPath id="clip0_432_561">
<rect width="68" height="20" fill="white" transform="translate(3 11)"/>
</clipPath>
</defs>
</svg>
