<svg width="74" height="42" viewBox="0 0 74 42" fill="none" xmlns="http://www.w3.org/2000/svg">
<g clip-path="url(#clip0_432_599)">
<path fill-rule="evenodd" clip-rule="evenodd" d="M9.55191 21.0931C11.0143 21.3208 11.2119 22.1938 11.3302 23.0062L11.3499 23.1447L11.3633 23.239L11.4345 23.7171C11.5738 24.63 11.8644 26.5249 11.8644 27.5138C11.8644 27.7609 11.8429 27.9506 11.8035 28.0548C11.7379 28.2154 11.5467 28.3695 11.2827 28.498C10.644 28.6566 9.97631 28.7424 9.28858 28.7424C9.21576 28.7424 9.14412 28.7389 9.07222 28.7367C8.79428 28.6571 8.58538 28.5241 8.47477 28.3424C8.14082 27.794 8.1207 26.5721 8.11401 25.1442L8.11324 24.9786L8.11054 24.5506C8.09966 23.039 8.09031 21.7356 8.63471 21.2679C8.84555 21.088 9.14514 21.0285 9.55191 21.0931ZM6.36359 24.3841C6.68049 24.3662 6.88429 25.9387 6.92524 27.1311C6.95394 27.9612 6.86754 28.3027 6.72957 28.4253C6.57336 28.3727 6.41986 28.3158 6.26861 28.254C6.16771 28.069 6.09059 27.7781 6.04159 27.3969C5.89201 26.1993 6.02195 24.4053 6.36359 24.3841ZM14.3084 26.734C14.2886 26.8433 14.2607 26.9276 14.2263 26.9988C13.9554 27.2182 13.6706 27.4196 13.3726 27.6007C13.2777 27.6169 13.1934 27.6056 13.1522 27.5354C12.7572 26.8352 12.609 24.6388 12.9912 24.4476C13.4895 24.2048 14.3822 26.3543 14.3084 26.734ZM9.17062 12.2576C13.6202 12.2576 17.2386 15.8124 17.3384 20.2359L17.3404 20.3888V20.4595C17.3323 22.4576 16.6034 24.2856 15.4026 25.7005C15.359 25.6785 15.2795 25.6063 15.1356 25.3891C14.9866 25.1707 13.7021 23.1764 13.7021 20.8905C13.7021 20.4419 14.343 19.7412 14.9102 19.1261C15.3342 18.6632 15.7358 18.2266 15.8837 17.8835C16.0721 17.4407 15.9403 17.1315 15.7318 17.0267C15.5431 16.9336 15.2599 17.0015 15.0611 17.3577C14.7349 17.9342 14.6304 18.0419 14.1546 18.4276C13.6863 18.8131 12.942 19.2011 12.942 18.6988C12.942 18.4276 13.3566 17.8133 13.5614 17.3828C13.7706 16.9474 13.5451 16.6322 13.1132 16.6322C12.2651 16.6322 11.7021 17.7221 11.7021 18.0997C11.7021 18.477 11.8835 18.5308 11.8835 18.9701C11.8835 19.4128 10.953 19.987 10.0764 19.987C9.23251 19.987 8.74312 19.8147 8.54034 19.3292L8.51445 19.2611L8.45583 19.0861C8.2479 18.473 8.09874 18.0284 7.83908 17.5637C7.70121 17.318 7.48848 17.1477 7.30449 16.9978C7.06403 16.8093 6.93929 16.6358 6.91324 16.5065C6.88924 16.3781 6.87632 16.1362 7.28739 15.5785C7.69758 15.024 7.75508 14.6051 7.5498 14.389C7.4754 14.3121 7.34856 14.2628 7.18567 14.2628C6.89757 14.2628 6.49723 14.4168 6.08466 14.8398C5.44332 15.5028 5.80741 16.1323 5.80741 16.4086C5.80741 16.6847 5.68992 16.8409 5.30504 17.2166C4.91735 17.594 4.78355 17.9175 4.73921 19.2177C4.72222 19.8877 4.60526 20.2733 4.50028 20.6153C4.40956 20.915 4.32612 21.1968 4.32162 21.6039C4.31443 22.0551 4.38887 22.3458 4.47574 22.6813C4.56103 22.9914 4.65162 23.3467 4.70966 23.941C4.80197 24.861 4.76988 25.6382 4.60204 26.4325L4.55725 26.6315L4.54678 26.6887C4.51241 26.8283 4.47155 26.9978 4.41633 27.0613C2.34847 25.5796 1 23.1597 1 20.4243C1 15.9143 4.65796 12.2576 9.17062 12.2576Z" fill="#777777"/>
<path d="M48.5435 17.5607C49.3519 17.5607 49.9804 17.8495 50.4291 18.4271C50.8777 19.0047 51.1019 19.7986 51.1019 20.8089V20.9029C51.1019 21.8897 50.8726 22.6778 50.4139 23.2671C49.955 23.8564 49.3357 24.1511 48.5556 24.1511C47.9534 24.1511 47.4582 23.9377 47.0702 23.5109V26.7177H45.0271V17.6782H46.9369L46.9975 18.2656C47.3896 17.7957 47.9049 17.5607 48.5435 17.5607ZM34.2966 17.5607C35.1332 17.5607 35.794 17.7585 36.2791 18.154C36.7641 18.5495 37.0127 19.0918 37.0248 19.781V22.5946C37.0329 23.178 37.1258 23.6244 37.3037 23.9338V24.0336H35.2605C35.1878 23.9044 35.1231 23.7145 35.0665 23.4639C34.6906 23.922 34.1652 24.1511 33.4902 24.1511C32.8718 24.1511 32.3464 23.97 31.9139 23.6078C31.4814 23.2456 31.2652 22.7903 31.2652 22.2421C31.2652 21.5529 31.5279 21.0321 32.0533 20.6797C32.5788 20.3273 33.3427 20.1511 34.345 20.1511H34.9756V19.8163C34.9756 19.2328 34.7149 18.9411 34.1935 18.9411C33.7085 18.9411 33.466 19.1721 33.466 19.6341H31.4228C31.4228 19.0194 31.6926 18.5201 32.2322 18.1363C32.7718 17.7526 33.4599 17.5607 34.2966 17.5607ZM40.9472 17.5607C41.8121 17.5607 42.5072 17.7507 43.0327 18.1305C43.5582 18.5103 43.8209 19.0096 43.8209 19.6283H41.7717C41.7717 19.1193 41.4948 18.8647 40.9411 18.8647C40.7268 18.8647 40.547 18.9225 40.4015 19.038C40.256 19.1535 40.1832 19.2974 40.1832 19.4697C40.1832 19.6459 40.2722 19.7888 40.45 19.8985C40.6278 20.0081 40.9117 20.0982 41.3018 20.1687C41.6918 20.2392 42.0344 20.3234 42.3295 20.4212C43.3157 20.7502 43.8087 21.3395 43.8087 22.1892C43.8087 22.7688 43.543 23.2407 43.0115 23.6048C42.48 23.969 41.7919 24.1511 40.9472 24.1511C40.3853 24.1511 39.8841 24.0532 39.4436 23.8574C39.003 23.6616 38.6595 23.3953 38.4129 23.0586C38.1664 22.7218 38.0431 22.3674 38.0431 21.9954H39.9529C39.9609 22.2891 40.0619 22.5035 40.256 22.6386C40.45 22.7737 40.6985 22.8412 41.0017 22.8412C41.2805 22.8412 41.4898 22.7864 41.6292 22.6768C41.7686 22.5671 41.8383 22.4242 41.8383 22.248C41.8383 22.0796 41.7475 21.9445 41.5655 21.8427C41.3836 21.7409 41.038 21.6352 40.5288 21.5255C40.0196 21.4159 39.5992 21.272 39.2677 21.0938C38.9363 20.9156 38.6837 20.6993 38.5099 20.4447C38.3361 20.1902 38.2492 19.8985 38.2492 19.5695C38.2492 18.9861 38.4978 18.5055 38.9949 18.1275C39.4921 17.7497 40.1428 17.5607 40.9472 17.5607ZM25.5968 15.0003V19.2524L28.4885 15.0003H31.1197L27.8885 19.2641L30.8714 24.0336H28.3493L26.4698 20.8501L25.5968 21.7781V24.0336H23.4688V15.0003H25.5968ZM54.4058 17.6782V24.0336H52.3566V17.6782H54.4058ZM72.4232 17.6782V18.7472L69.5013 22.5064H72.4901V24.0336H66.9185V22.9294L69.8286 19.2054H66.4002L67.7657 17.6782H72.4232ZM57.1454 21.9835C57.7045 21.9835 58.157 22.424 58.157 22.9673C58.157 23.5106 57.7045 23.951 57.1454 23.951C56.5868 23.951 56.1338 23.5106 56.1338 22.9673C56.1338 22.424 56.5868 21.9835 57.1454 21.9835ZM61.8902 15V19.7466L62.0965 19.4848L63.6407 17.6466H66.0964L63.7929 20.2352L66.2485 23.9405H63.9022L62.4678 21.5963L61.8902 22.1489V23.9405H59.8416V15H61.8902ZM34.9756 21.2083H34.3815C33.6701 21.2083 33.3144 21.5177 33.3144 22.1364C33.3144 22.3165 33.377 22.4624 33.5023 22.574C33.6276 22.6856 33.7873 22.7414 33.9813 22.7414C34.2359 22.7414 34.4471 22.6885 34.6149 22.5828C34.7826 22.4771 34.9028 22.3577 34.9756 22.2245V21.2083ZM48.0403 19.0879C47.5553 19.0879 47.2319 19.2563 47.0702 19.593V22.0953C47.2481 22.4477 47.5755 22.6239 48.0524 22.6239C48.7032 22.6239 49.0386 22.0796 49.0588 20.991V20.7795C49.0588 19.6518 48.7194 19.0879 48.0403 19.0879ZM53.4091 15C53.9677 15 54.4206 15.4614 54.4206 16.0306C54.4206 16.5997 53.9677 17.0611 53.4091 17.0611C52.8504 17.0611 52.3975 16.5997 52.3975 16.0306C52.3975 15.4614 52.8504 15 53.4091 15Z" fill="#777777"/>
</g>
<defs>
<clipPath id="clip0_432_599">
<rect width="72" height="17" fill="white" transform="translate(1 12)"/>
</clipPath>
</defs>
</svg>
