<svg width="17" height="16" viewBox="0 0 17 16" fill="none" xmlns="http://www.w3.org/2000/svg">
<path d="M16.312 1.375C16.312 1.21753 16.2527 1.06651 16.1473 0.955155C16.0418 0.843806 15.8987 0.78125 15.7495 0.78125C12.6501 0.78125 9.4699 4.47066 7.70365 6.91395C7.07286 6.71003 6.40555 6.6651 5.75532 6.78278C5.10509 6.90047 4.49008 7.17747 3.95967 7.59155C3.42926 8.00563 2.99824 8.54524 2.70123 9.16705C2.40422 9.78885 2.24951 10.4755 2.24951 11.1719C2.24951 13.4637 0.875605 14.4917 0.810215 14.5392C0.710433 14.6103 0.634904 14.7133 0.594733 14.8331C0.554561 14.953 0.551868 15.0832 0.587049 15.2047C0.62223 15.3263 0.693429 15.4327 0.790176 15.5084C0.886922 15.584 1.00411 15.6249 1.12451 15.625H6.46826C7.12798 15.625 7.7785 15.4617 8.36757 15.1482C8.95665 14.8347 9.46786 14.3797 9.86015 13.8198C10.2524 13.26 10.5149 12.6108 10.6263 11.9244C10.7378 11.2381 10.6953 10.5337 10.5021 9.86785C12.8175 8.00348 16.312 4.64656 16.312 1.375ZM8.74779 7.42754C8.98873 7.09801 9.22521 6.78753 9.45724 6.49609C10.0252 6.90107 10.5143 7.41732 10.8979 8.01684C10.6214 8.26126 10.3272 8.51089 10.0155 8.7657C9.68781 8.22965 9.25563 7.77346 8.74779 7.42754ZM11.7501 7.22863C11.3254 6.59617 10.8024 6.04411 10.2033 5.59582C12.4378 3.03305 14.1232 2.25598 15.1181 2.04C14.9177 3.09094 14.178 4.86996 11.7501 7.22863Z" fill="white"/>
</svg>
