<svg width="18" height="20" viewBox="0 0 18 20" fill="none" xmlns="http://www.w3.org/2000/svg">
<path d="M10.5 0.75V6C10.5 6.46413 10.6844 6.90925 11.0126 7.23744C11.3408 7.56563 11.7859 7.75 12.25 7.75H17.5V16.5C17.5 16.9641 17.3156 17.4092 16.9874 17.7374C16.6592 18.0656 16.2141 18.25 15.75 18.25H9.2715L9.29075 18.2404C9.6541 18.0587 9.95969 17.7794 10.1733 17.4339C10.3869 17.0883 10.5 16.6901 10.5 16.2839V12.3438C10.5 11.9375 10.3869 11.5393 10.1733 11.1937C9.95969 10.8482 9.6541 10.5689 9.29075 10.3872L6.22825 8.856C5.92451 8.70414 5.58959 8.62507 5.25 8.62507C4.91041 8.62507 4.57549 8.70414 4.27175 8.856L3.5 9.241V2.5C3.5 2.03587 3.68437 1.59075 4.01256 1.26256C4.34075 0.934374 4.78587 0.75 5.25 0.75H10.5ZM11.8125 1.1875V6C11.8125 6.11603 11.8586 6.22731 11.9406 6.30936C12.0227 6.39141 12.134 6.4375 12.25 6.4375H17.0625L11.8125 1.1875ZM5.83625 9.63825L8.89875 11.1695C9.11695 11.2784 9.30048 11.446 9.42876 11.6534C9.55704 11.8608 9.62499 12.0999 9.625 12.3438V16.2839C9.62499 16.5278 9.55704 16.7668 9.42876 16.9742C9.30048 17.1816 9.11695 17.3492 8.89875 17.4581L5.83625 18.9894C5.65419 19.0803 5.45349 19.1276 5.25 19.1276C5.04651 19.1276 4.84581 19.0803 4.66375 18.9894L1.60125 17.4581C1.38305 17.3492 1.19952 17.1816 1.07124 16.9742C0.942963 16.7668 0.875008 16.5278 0.875 16.2839V12.3438C0.875008 12.0999 0.942963 11.8608 1.07124 11.6534C1.19952 11.446 1.38305 11.2784 1.60125 11.1695L4.66375 9.63825C4.84581 9.54736 5.04651 9.50004 5.25 9.50004C5.45349 9.50004 5.65419 9.54736 5.83625 9.63825ZM2.821 12.1714C2.76958 12.1451 2.71347 12.1293 2.65591 12.1248C2.59834 12.1203 2.54046 12.1273 2.4856 12.1453C2.43074 12.1633 2.37998 12.192 2.33626 12.2297C2.29253 12.2674 2.2567 12.3134 2.23083 12.365C2.20497 12.4166 2.18957 12.4728 2.18554 12.5304C2.18151 12.588 2.18891 12.6458 2.20734 12.7006C2.22576 12.7553 2.25483 12.8058 2.29287 12.8493C2.33092 12.8927 2.37718 12.9282 2.429 12.9536L4.8125 14.1462V16.9375C4.8125 17.0535 4.85859 17.1648 4.94064 17.2469C5.02269 17.3289 5.13397 17.375 5.25 17.375C5.36603 17.375 5.47731 17.3289 5.55936 17.2469C5.64141 17.1648 5.6875 17.0535 5.6875 16.9375V14.1462L8.071 12.9536C8.12282 12.9282 8.16908 12.8927 8.20713 12.8493C8.24517 12.8058 8.27424 12.7553 8.29266 12.7006C8.31109 12.6458 8.31849 12.588 8.31446 12.5304C8.31043 12.4728 8.29503 12.4166 8.26917 12.365C8.2433 12.3134 8.20747 12.2674 8.16374 12.2297C8.12002 12.192 8.06926 12.1633 8.0144 12.1453C7.95954 12.1273 7.90166 12.1203 7.84409 12.1248C7.78653 12.1293 7.73042 12.1451 7.679 12.1714L5.25 13.385L2.821 12.1714Z" fill="white"/>
</svg>
