<svg width="20" height="21" viewBox="0 0 20 21" fill="none" xmlns="http://www.w3.org/2000/svg">
<path d="M16.5 5.71712V2.46154C16.5 2.07391 16.3537 1.70217 16.0932 1.42807C15.8327 1.15398 15.4795 1 15.1111 1H5.38889C5.02053 1 4.66726 1.15398 4.4068 1.42807C4.14633 1.70217 4 2.07391 4 2.46154V5.75C4.00064 5.97687 4.05121 6.20051 4.14775 6.40337C4.24428 6.60623 4.38417 6.7828 4.55642 6.91923L9.09288 10.5L4.55556 14.0808C4.38341 14.2172 4.24366 14.3939 4.14727 14.5967C4.05088 14.7996 4.00047 15.0232 4 15.25V18.5385C4 18.9261 4.14633 19.2978 4.4068 19.5719C4.66726 19.846 5.02053 20 5.38889 20H15.1111C15.4795 20 15.8327 19.846 16.0932 19.5719C16.3537 19.2978 16.5 18.9261 16.5 18.5385V15.2829C16.5 15.0568 16.4501 14.8337 16.3543 14.6313C16.2585 14.4289 16.1194 14.2526 15.9479 14.1164L11.401 10.5L15.9479 6.88361C16.1192 6.74712 16.2581 6.57081 16.3539 6.36846C16.4497 6.1661 16.4997 5.94318 16.5 5.71712Z" fill="white"/>
</svg>
