<svg width="21" height="21" viewBox="0 0 21 21" fill="none" xmlns="http://www.w3.org/2000/svg">
<path d="M12.0586 13.2756L13.9144 11.4197L19.1609 16.6662L17.3051 18.5221L12.0586 13.2756ZM15.3109 8.75007C16.9997 8.75007 18.3734 7.37632 18.3734 5.68757C18.3734 5.18007 18.2334 4.70757 18.0147 4.28757L15.6522 6.65007L14.3484 5.34632L16.7109 2.98382C16.2909 2.76507 15.8184 2.62507 15.3109 2.62507C13.6222 2.62507 12.2484 3.99882 12.2484 5.68757C12.2484 6.04632 12.3184 6.38757 12.4322 6.70257L10.8134 8.32132L9.25594 6.76382L9.87719 6.14257L8.64344 4.90882L10.4984 3.05382C10.0062 2.56225 9.33907 2.28613 8.64344 2.28613C7.94781 2.28613 7.28063 2.56225 6.78844 3.05382L3.69094 6.15132L4.92469 7.38507H2.45719L1.83594 8.00632L4.93344 11.1038L5.55469 10.4826V8.00632L6.78844 9.24007L7.40969 8.61882L8.96719 10.1763L2.48344 16.6601L4.33844 18.5151L14.2959 8.56632C14.6109 8.68007 14.9522 8.75007 15.3109 8.75007Z" fill="white"/>
</svg>
