<svg width="19" height="19" viewBox="0 0 19 19" fill="none" xmlns="http://www.w3.org/2000/svg">
<g clip-path="url(#clip0_340_672)">
<path d="M3.48086 4.25273C3.30645 4.29355 3.41777 4.28613 3.27305 4.30469C2.65332 4.43828 3.11348 4.55703 3.48086 4.25273ZM14.3799 4.50137C14.4244 4.47168 14.5803 4.31953 14.0941 4.17109C14.1238 4.32324 13.9939 4.3084 13.9939 4.39375C14.3539 4.72031 14.5023 5.28809 14.9625 5.40684C15.0516 4.99863 14.5543 4.79824 14.3799 4.50137ZM3.15059 4.13398C3.20625 4.46426 3.45488 3.78516 3.45859 3.54395C3.36211 3.59961 3.26562 3.65527 3.16543 3.6998C3.39922 3.81855 3.19512 3.94473 2.94277 4.13398C2.43066 4.77227 3.42148 3.63672 3.15059 4.13398ZM9.5 0C4.25273 0 0 4.25273 0 9.5C0 14.7436 4.25273 19 9.5 19C14.7473 19 19 14.7436 19 9.5C19 4.25273 14.7473 0 9.5 0ZM9.75234 3.18398L9.79688 3.19883C9.61875 3.42891 10.7246 4.10059 9.93047 4.15625C9.18828 4.36777 10.2422 3.96328 9.66699 4.03379C9.97129 3.61074 9.42578 3.60332 9.75234 3.18398ZM5.24727 3.79258C4.98008 3.56992 4.14141 4.09688 4.43457 3.9707C5.16191 3.68496 4.48281 4.00039 4.65352 4.3418C4.49766 4.66465 4.60156 4.02266 4.21562 4.40488C3.9373 4.46797 3.25449 5.09883 3.33984 4.90586C3.31758 5.20645 2.52715 5.5627 2.41953 6.06367C2.15977 6.75762 2.35645 6.03769 2.3082 5.7668C1.93711 5.29551 1.26172 6.56465 1.46211 7.06562C1.7998 6.47187 1.77383 7.00254 1.52891 7.26602C1.77754 7.72246 1.30254 8.31621 1.77383 8.65391C1.98164 8.70215 2.39727 7.95625 2.21543 8.73184C2.3416 8.06016 2.56426 8.89141 2.92422 8.70586C2.94648 9.0584 3.16543 8.89512 3.21367 9.32187C3.81484 9.27734 4.36406 10.2941 3.64785 10.4871C3.75547 10.4574 3.96699 10.6467 4.21191 10.502C4.62754 10.8322 5.72227 10.873 5.75195 11.6895C4.99863 12.0494 5.56641 13.0365 4.91328 13.3891C4.16367 13.2777 4.65723 14.3131 4.3418 14.1943C4.46797 14.9402 3.58477 14.0979 3.92617 14.5098C4.55332 14.8957 3.65156 14.8178 3.93359 15.0998C3.61816 15.033 4.13027 15.6861 4.21562 15.9273C4.66836 16.6621 3.82598 15.7641 3.57734 15.5191C3.33984 15.0441 2.77949 14.135 2.62363 13.3891C2.53457 12.3055 1.6959 11.5781 1.50293 10.5205C1.30996 9.93047 2.03359 8.98418 1.64395 8.65391C1.30625 8.39043 1.44355 7.48867 1.24316 7.01367C1.74414 4.84277 3.33613 3.01328 5.24727 1.92969C5.05059 2.07441 6.37168 1.55488 6.21953 1.68105C6.17871 1.77383 6.99141 1.32852 7.48125 1.26172C7.4293 1.26914 6.2084 1.70703 6.54609 1.64766C6.02285 1.90371 6.49414 1.75898 6.75391 1.6291C6.23438 2.01133 5.83359 1.90371 5.24355 2.24141C4.6498 2.39727 4.77227 3.01328 4.34922 3.32129C4.59785 3.36582 5.22129 2.6793 5.58496 2.43809C6.41992 2.03359 5.16191 3.17285 5.95605 2.68301C5.68887 2.93164 5.74453 3.32871 5.58125 3.44004C5.49961 3.41777 5.9041 3.63301 5.24727 3.79258ZM6.54609 2.08555C6.46074 2.20059 6.34199 2.44922 6.27148 2.29707C6.175 2.34531 6.13789 2.55313 5.95605 2.38613C6.06367 2.3082 6.175 2.12266 5.96348 2.2377C6.05996 2.13379 6.9209 1.84062 6.87266 1.7293C7.0248 1.63281 7.00996 1.58457 6.83555 1.64395C6.74648 1.61426 7.04707 1.36191 7.44785 1.32852C7.50352 1.32852 7.52578 1.36563 7.42559 1.35449C6.8207 1.54004 7.08047 1.48809 7.48867 1.35449C7.33281 1.44355 7.2252 1.46953 7.19922 1.51035C7.60742 1.36191 7.17695 1.61797 7.26973 1.59941C7.15469 1.65879 7.28828 1.67734 7.06562 1.7627C7.10645 1.7293 6.70195 2.00391 6.94316 1.92227C6.70938 2.14492 6.60547 2.14863 6.54609 2.08555ZM6.90234 2.61621C6.90977 2.25996 7.42188 2.03359 7.35879 2.01504C7.98965 1.71816 7.13984 2.02617 7.63711 1.75898C7.82266 1.74043 8.21602 1.14668 8.76152 1.10957C9.3627 0.927734 9.08437 1.1207 9.52969 0.95L9.44063 1.02422C9.36269 1.03535 9.45918 1.17266 9.17715 1.38047C9.14746 1.70332 8.63906 1.55488 8.89141 1.9C8.72813 1.66621 8.4832 1.89258 8.79121 1.91484C8.46094 2.16719 7.69277 2.21172 7.32539 2.63105C7.08789 2.97246 6.86895 2.86484 6.90234 2.61621ZM9.54082 3.80371C9.28848 4.4123 9.04355 3.71465 9.48887 3.60332C9.60019 3.6627 9.64473 3.68125 9.54082 3.80371ZM8.59082 2.58652C8.5166 2.31191 8.57598 2.45664 9.01758 2.32676C9.32187 2.5457 8.74668 2.69043 8.59082 2.58652ZM15.5006 13.4781C15.1518 12.877 15.9236 12.3203 16.1834 11.8156C16.15 12.4057 16.0758 12.9883 15.5006 13.4781ZM16.8143 6.60918C16.4357 6.63887 16.0943 6.72793 15.7529 6.5127C14.9662 5.65176 15.8977 7.48496 16.1574 6.73535C17.0926 7.0916 16.1426 8.62793 15.5525 8.46836C15.2223 7.75586 14.8141 6.97285 14.0941 6.62402C14.6471 7.23633 14.9217 7.98965 15.5154 8.54258C15.5563 9.31445 16.3393 8.26055 16.291 8.85801C16.3652 9.88594 15.1295 10.502 15.3447 11.5336C15.8049 12.4725 14.4578 12.6432 14.61 13.4855C14.0682 14.0904 13.4893 14.9068 12.517 14.777C12.517 14.2648 12.2572 13.8307 12.1979 13.3037C11.6709 12.6357 12.7545 11.9195 12.0828 11.2219C11.3072 11.0475 12.2424 9.97871 11.4445 10.0789C10.9658 9.6002 10.2645 10.0641 9.57793 10.0678C8.71699 10.1494 7.83008 9.01016 8.21231 8.20488C7.90801 7.36621 9.17715 7.12129 9.21055 6.38281C9.81914 5.87441 10.6838 5.9375 11.5076 5.81875C11.4482 6.40879 12.0717 6.4125 12.543 6.60918C12.8064 5.9709 13.6266 6.71309 14.1869 6.30859C14.3799 5.36602 13.6414 5.93379 13.2184 5.6332C12.7063 4.88359 14.3131 5.24727 14.1461 4.85391C13.5227 4.8502 13.8752 4.08574 13.4336 4.5125C13.8307 4.58301 13.3631 4.89473 13.3742 4.53848C12.773 4.36406 13.352 5.22129 13.0477 5.30293C12.5838 5.10996 12.8027 5.52187 12.851 5.58496C12.6506 6.01914 12.4057 4.94668 11.8379 4.97637C11.2738 4.46055 11.6152 5.21016 12.1051 5.33262C12.0012 5.3623 12.1645 5.78906 12.0346 5.60723C11.6301 5.05059 10.8619 4.67949 10.4055 5.3623C10.3572 6.00059 9.0584 6.18242 9.26621 5.43652C8.96191 4.66465 10.2088 5.41426 10.0938 4.79824C9.29219 4.26758 10.3127 4.43828 10.5836 3.94102C11.1996 3.95957 10.6096 3.43633 10.899 3.28418C10.8693 3.85195 11.3703 3.74434 11.7674 3.63672C11.6709 3.31016 12.0049 3.32129 11.8008 3.05039C12.7211 2.68301 11.0994 3.22109 11.426 2.41582C11.0289 2.14121 11.259 3.0207 11.426 3.11348C11.4371 3.38438 11.207 3.71836 10.8916 3.15059C10.4314 3.45117 10.4797 2.84629 10.45 2.90937C10.398 2.67559 10.7988 2.66445 10.8025 2.25625C10.7691 1.99648 10.7766 1.85918 10.9621 1.84434C10.977 1.88145 11.7229 1.89258 11.9863 2.20059C11.2664 2.05586 11.8787 2.31934 12.2016 2.46777C11.8564 2.19688 12.3389 2.46777 12.0568 2.15977C12.1682 2.18203 11.7488 1.73672 12.1793 2.12637C11.9455 1.84805 12.6357 1.92969 12.2275 1.72188C12.825 1.88887 12.4725 1.73672 12.1199 1.58457C11.1477 1.00566 13.8381 2.36758 12.7396 1.7627C13.441 1.91484 11.2404 1.2209 12.2424 1.5252C11.8602 1.3582 12.2312 1.45098 12.5764 1.55859C11.9566 1.36563 11.0289 1.00566 11.066 0.99082C11.2812 1.00566 11.4928 1.05391 11.6969 1.11328C12.3314 1.30254 11.515 1.06875 11.6895 1.07246C13.8715 1.63281 15.7826 3.09492 16.9441 5.00605C17.215 5.2918 17.9535 7.18066 17.5676 6.34199C17.742 7.00996 17.768 7.72988 17.8607 8.41269C17.6678 8.19746 17.4525 7.40332 17.267 6.96172C17.1891 7.13242 17.1 6.72051 16.8143 6.60918Z" fill="white"/>
</g>
<defs>
<clipPath id="clip0_340_672">
<rect width="19" height="19" fill="white"/>
</clipPath>
</defs>
</svg>
