<svg width="16" height="20" viewBox="0 0 16 20" fill="none" xmlns="http://www.w3.org/2000/svg">
<path d="M4.33073 15.4997H11.6641V13.6663H4.33073V15.4997ZM4.33073 11.833H11.6641V9.99967H4.33073V11.833ZM2.4974 19.1663C1.99323 19.1663 1.56178 18.987 1.20306 18.6283C0.84434 18.2695 0.664674 17.8378 0.664062 17.333V2.66634C0.664062 2.16217 0.843729 1.73073 1.20306 1.37201C1.5624 1.01329 1.99384 0.833619 2.4974 0.833008H9.83073L15.3307 6.33301V17.333C15.3307 17.8372 15.1514 18.2689 14.7926 18.6283C14.4339 18.9876 14.0022 19.167 13.4974 19.1663H2.4974ZM8.91406 7.24967H13.4974L8.91406 2.66634V7.24967Z" fill="white"/>
</svg>
