<svg width="21" height="21" viewBox="0 0 21 21" fill="none" xmlns="http://www.w3.org/2000/svg">
<path d="M19.3922 5.79548L10.6805 3.30665C10.5918 3.28122 10.4987 3.27479 10.4073 3.28778L1.78336 4.51989C1.47111 4.56582 1.18568 4.72218 0.978873 4.96059C0.772069 5.199 0.657601 5.50366 0.65625 5.81927V15.1807C0.657601 15.4963 0.772069 15.8009 0.978873 16.0394C1.18568 16.2778 1.47111 16.4341 1.78336 16.48L10.4073 17.7105C10.438 17.7153 10.469 17.7181 10.5 17.7187C10.561 17.7187 10.6218 17.7101 10.6805 17.6933L19.3922 15.2045C19.6654 15.1253 19.9057 14.96 20.0772 14.733C20.2487 14.5061 20.3422 14.2297 20.3438 13.9453V7.05466C20.3422 6.7702 20.2487 6.49387 20.0772 6.26692C19.9057 6.03998 19.6654 5.8746 19.3922 5.79548ZM5.25 9.84372H3.9375C3.76345 9.84372 3.59653 9.91286 3.47346 10.0359C3.35039 10.159 3.28125 10.3259 3.28125 10.5C3.28125 10.674 3.35039 10.8409 3.47346 10.964C3.59653 11.0871 3.76345 11.1562 3.9375 11.1562H5.25V15.6499L1.96875 15.1807V5.81927L5.25 5.35005V9.84372ZM9.84375 16.3061L6.5625 15.8369V11.1562H7.875C8.04905 11.1562 8.21597 11.0871 8.33904 10.964C8.46211 10.8409 8.53125 10.674 8.53125 10.5C8.53125 10.3259 8.46211 10.159 8.33904 10.0359C8.21597 9.91286 8.04905 9.84372 7.875 9.84372H6.5625V5.16302L9.84375 4.6938V16.3061Z" fill="white"/>
</svg>
