<svg width="28" height="28" viewBox="0 0 28 28" fill="none" xmlns="http://www.w3.org/2000/svg">
<path d="M13.6341 27.2683C21.1641 27.2683 27.2683 21.1641 27.2683 13.6341C27.2683 6.10422 21.1641 0 13.6341 0C6.10422 0 0 6.10422 0 13.6341C0 21.1641 6.10422 27.2683 13.6341 27.2683Z" fill="#441DB5"/>
<path d="M10.8211 13.6898L10.6464 13.5179L10.4711 13.6892L9.82531 14.32L9.64288 14.4983L9.82467 14.6771L12.367 17.1782L12.5424 17.3507L12.7177 17.1782L18.1753 11.8091L18.3565 11.6309L18.1753 11.4527L17.5341 10.8218L17.3588 10.6494L17.1835 10.8217L12.5424 15.3832L10.8211 13.6898Z" fill="white" stroke="white" stroke-width="0.5"/>
</svg>
